<?xml version="1.0" encoding="UTF-8" standalone="no"?>
<!DOCTYPE svg PUBLIC "-//W3C//DTD SVG 1.1//EN"
 "http://www.w3.org/Graphics/SVG/1.1/DTD/svg11.dtd">
<!-- Generated by graphviz version 2.38.0 (20140413.2041)
 -->
<!-- Title: controllers_diagram Pages: 1 -->
<svg width="1060pt" height="988pt"
 viewBox="0.00 0.00 1060.27 988.00" xmlns="http://www.w3.org/2000/svg" xmlns:xlink="http://www.w3.org/1999/xlink">
<g id="graph0" class="graph" transform="scale(1 1) rotate(0) translate(444.89 564.5)">
<title>controllers_diagram</title>
<polygon fill="none" stroke="none" points="-444.89,423.5 -444.89,-564.5 615.379,-564.5 615.379,423.5 -444.89,423.5"/>
<!-- _diagram_info -->
<g id="node1" class="node"><title>_diagram_info</title>
<text text-anchor="start" x="406.788" y="-143.1" font-family="Times,serif" font-size="13.00">Controllers diagram</text>
<text text-anchor="start" x="406.788" y="-130.1" font-family="Times,serif" font-size="13.00">Date: Nov 24 2016 &#45; 17:37</text>
<text text-anchor="start" x="406.788" y="-117.1" font-family="Times,serif" font-size="13.00">Migration version: 20161110230418</text>
<text text-anchor="start" x="406.788" y="-104.1" font-family="Times,serif" font-size="13.00">Generated by RailRoady 1.5.2</text>
<text text-anchor="start" x="406.788" y="-91.1" font-family="Times,serif" font-size="13.00">http://railroady.prestonlee.com</text>
</g>
<!-- AccountActivationsController -->
<g id="node2" class="node"><title>AccountActivationsController</title>
<path fill="none" stroke="black" d="M-407.759,419C-407.759,419 -246.241,419 -246.241,419 -240.241,419 -234.241,413 -234.241,407 -234.241,407 -234.241,341 -234.241,341 -234.241,335 -240.241,329 -246.241,329 -246.241,329 -407.759,329 -407.759,329 -413.759,329 -419.759,335 -419.759,341 -419.759,341 -419.759,407 -419.759,407 -419.759,413 -413.759,419 -407.759,419"/>
<text text-anchor="middle" x="-327" y="344.2" font-family="Times,serif" font-size="14.00">AccountActivationsController</text>
<polyline fill="none" stroke="black" points="-419.759,351 -234.241,351 "/>
<text text-anchor="start" x="-411.759" y="366.2" font-family="Times,serif" font-size="14.00">edit</text>
<polyline fill="none" stroke="black" points="-419.759,373 -234.241,373 "/>
<polyline fill="none" stroke="black" points="-419.759,397 -234.241,397 "/>
<text text-anchor="start" x="-411.759" y="412.2" font-family="Times,serif" font-size="14.00">_layout</text>
</g>
<!-- ApplicationController -->
<g id="node3" class="node"><title>ApplicationController</title>
<path fill="none" stroke="black" d="M-113.556,-211C-113.556,-211 143.556,-211 143.556,-211 149.556,-211 155.556,-217 155.556,-223 155.556,-223 155.556,-331 155.556,-331 155.556,-337 149.556,-343 143.556,-343 143.556,-343 -113.556,-343 -113.556,-343 -119.556,-343 -125.556,-337 -125.556,-331 -125.556,-331 -125.556,-223 -125.556,-223 -125.556,-217 -119.556,-211 -113.556,-211"/>
<text text-anchor="middle" x="15" y="-327.8" font-family="Times,serif" font-size="14.00">ApplicationController</text>
<polyline fill="none" stroke="black" points="-125.556,-321 155.556,-321 "/>
<text text-anchor="start" x="-117.556" y="-305.8" font-family="Times,serif" font-size="14.00">index</text>
<polyline fill="none" stroke="black" points="-125.556,-299 155.556,-299 "/>
<polyline fill="none" stroke="black" points="-125.556,-275 155.556,-275 "/>
<text text-anchor="start" x="-117.556" y="-259.8" font-family="Times,serif" font-size="14.00">_layout</text>
<text text-anchor="start" x="-117.556" y="-245.8" font-family="Times,serif" font-size="14.00">logged_in_user</text>
<text text-anchor="start" x="-117.556" y="-231.8" font-family="Times,serif" font-size="14.00">not_found</text>
<text text-anchor="start" x="-117.556" y="-217.8" font-family="Times,serif" font-size="14.00">unauthorized_access_message_and_redirect_to</text>
</g>
<!-- AssignmentsController -->
<g id="node4" class="node"><title>AssignmentsController</title>
<path fill="none" stroke="black" d="M-323.979,62C-323.979,62 -164.021,62 -164.021,62 -158.021,62 -152.021,56 -152.021,50 -152.021,50 -152.021,-156 -152.021,-156 -152.021,-162 -158.021,-168 -164.021,-168 -164.021,-168 -323.979,-168 -323.979,-168 -329.979,-168 -335.979,-162 -335.979,-156 -335.979,-156 -335.979,50 -335.979,50 -335.979,56 -329.979,62 -323.979,62"/>
<text text-anchor="middle" x="-244" y="-152.8" font-family="Times,serif" font-size="14.00">AssignmentsController</text>
<polyline fill="none" stroke="black" points="-335.979,-146 -152.021,-146 "/>
<text text-anchor="start" x="-327.979" y="-130.8" font-family="Times,serif" font-size="14.00">update</text>
<text text-anchor="start" x="-327.979" y="-116.8" font-family="Times,serif" font-size="14.00">create</text>
<text text-anchor="start" x="-327.979" y="-102.8" font-family="Times,serif" font-size="14.00">edit</text>
<text text-anchor="start" x="-327.979" y="-88.8" font-family="Times,serif" font-size="14.00">index</text>
<text text-anchor="start" x="-327.979" y="-74.8" font-family="Times,serif" font-size="14.00">new</text>
<text text-anchor="start" x="-327.979" y="-60.8" font-family="Times,serif" font-size="14.00">remove_problem</text>
<text text-anchor="start" x="-327.979" y="-46.8" font-family="Times,serif" font-size="14.00">show</text>
<text text-anchor="start" x="-327.979" y="-32.8" font-family="Times,serif" font-size="14.00">add_problem</text>
<polyline fill="none" stroke="black" points="-335.979,-26 -152.021,-26 "/>
<polyline fill="none" stroke="black" points="-335.979,-2 -152.021,-2 "/>
<text text-anchor="start" x="-327.979" y="13.2" font-family="Times,serif" font-size="14.00">_layout</text>
<text text-anchor="start" x="-327.979" y="27.2" font-family="Times,serif" font-size="14.00">assignment_params</text>
<text text-anchor="start" x="-327.979" y="41.2" font-family="Times,serif" font-size="14.00">check_assignment_ownership</text>
<text text-anchor="start" x="-327.979" y="55.2" font-family="Times,serif" font-size="14.00">problem_params</text>
</g>
<!-- CoursesController -->
<g id="node5" class="node"><title>CoursesController</title>
<path fill="none" stroke="black" d="M201.248,-190C201.248,-190 334.752,-190 334.752,-190 340.752,-190 346.752,-196 346.752,-202 346.752,-202 346.752,-464 346.752,-464 346.752,-470 340.752,-476 334.752,-476 334.752,-476 201.248,-476 201.248,-476 195.248,-476 189.248,-470 189.248,-464 189.248,-464 189.248,-202 189.248,-202 189.248,-196 195.248,-190 201.248,-190"/>
<text text-anchor="middle" x="268" y="-460.8" font-family="Times,serif" font-size="14.00">CoursesController</text>
<polyline fill="none" stroke="black" points="189.248,-454 346.752,-454 "/>
<text text-anchor="start" x="197.248" y="-438.8" font-family="Times,serif" font-size="14.00">update</text>
<text text-anchor="start" x="197.248" y="-424.8" font-family="Times,serif" font-size="14.00">add_student</text>
<text text-anchor="start" x="197.248" y="-410.8" font-family="Times,serif" font-size="14.00">add_students</text>
<text text-anchor="start" x="197.248" y="-396.8" font-family="Times,serif" font-size="14.00">create</text>
<text text-anchor="start" x="197.248" y="-382.8" font-family="Times,serif" font-size="14.00">edit</text>
<text text-anchor="start" x="197.248" y="-368.8" font-family="Times,serif" font-size="14.00">new</text>
<text text-anchor="start" x="197.248" y="-354.8" font-family="Times,serif" font-size="14.00">remove_assignment</text>
<text text-anchor="start" x="197.248" y="-340.8" font-family="Times,serif" font-size="14.00">remove_student</text>
<text text-anchor="start" x="197.248" y="-326.8" font-family="Times,serif" font-size="14.00">show</text>
<text text-anchor="start" x="197.248" y="-312.8" font-family="Times,serif" font-size="14.00">add_assignment</text>
<polyline fill="none" stroke="black" points="189.248,-306 346.752,-306 "/>
<polyline fill="none" stroke="black" points="189.248,-282 346.752,-282 "/>
<text text-anchor="start" x="197.248" y="-266.8" font-family="Times,serif" font-size="14.00">_layout</text>
<text text-anchor="start" x="197.248" y="-252.8" font-family="Times,serif" font-size="14.00">add_students_params</text>
<text text-anchor="start" x="197.248" y="-238.8" font-family="Times,serif" font-size="14.00">assignment_params</text>
<text text-anchor="start" x="197.248" y="-224.8" font-family="Times,serif" font-size="14.00">check_course_ownership</text>
<text text-anchor="start" x="197.248" y="-210.8" font-family="Times,serif" font-size="14.00">course_params</text>
<text text-anchor="start" x="197.248" y="-196.8" font-family="Times,serif" font-size="14.00">student_params</text>
</g>
<!-- ProblemsController -->
<g id="node6" class="node"><title>ProblemsController</title>
<path fill="none" stroke="black" d="M-92.707,167C-92.707,167 58.707,167 58.707,167 64.707,167 70.707,161 70.707,155 70.707,155 70.707,-149 70.707,-149 70.707,-155 64.707,-161 58.707,-161 58.707,-161 -92.707,-161 -92.707,-161 -98.707,-161 -104.707,-155 -104.707,-149 -104.707,-149 -104.707,155 -104.707,155 -104.707,161 -98.707,167 -92.707,167"/>
<text text-anchor="middle" x="-17" y="-145.8" font-family="Times,serif" font-size="14.00">ProblemsController</text>
<polyline fill="none" stroke="black" points="-104.707,-139 70.707,-139 "/>
<text text-anchor="start" x="-96.707" y="-123.8" font-family="Times,serif" font-size="14.00">upload_input_files</text>
<text text-anchor="start" x="-96.707" y="-109.8" font-family="Times,serif" font-size="14.00">edit</text>
<text text-anchor="start" x="-96.707" y="-95.8" font-family="Times,serif" font-size="14.00">generate_outputs</text>
<text text-anchor="start" x="-96.707" y="-81.8" font-family="Times,serif" font-size="14.00">group_individual_test_cases</text>
<text text-anchor="start" x="-96.707" y="-67.8" font-family="Times,serif" font-size="14.00">group_test_cases</text>
<text text-anchor="start" x="-96.707" y="-53.8" font-family="Times,serif" font-size="14.00">index</text>
<text text-anchor="start" x="-96.707" y="-39.8" font-family="Times,serif" font-size="14.00">new</text>
<text text-anchor="start" x="-96.707" y="-25.8" font-family="Times,serif" font-size="14.00">polygon_create</text>
<text text-anchor="start" x="-96.707" y="-11.8" font-family="Times,serif" font-size="14.00">show</text>
<text text-anchor="start" x="-96.707" y="2.2" font-family="Times,serif" font-size="14.00">ungroup_test_cases</text>
<text text-anchor="start" x="-96.707" y="16.2" font-family="Times,serif" font-size="14.00">update</text>
<text text-anchor="start" x="-96.707" y="30.2" font-family="Times,serif" font-size="14.00">create</text>
<polyline fill="none" stroke="black" points="-104.707,37 70.707,37 "/>
<polyline fill="none" stroke="black" points="-104.707,61 70.707,61 "/>
<text text-anchor="start" x="-96.707" y="76.2" font-family="Times,serif" font-size="14.00">generate_outputs_params</text>
<text text-anchor="start" x="-96.707" y="90.2" font-family="Times,serif" font-size="14.00">check_input_files_uploaded</text>
<text text-anchor="start" x="-96.707" y="104.2" font-family="Times,serif" font-size="14.00">check_problem_ownership</text>
<text text-anchor="start" x="-96.707" y="118.2" font-family="Times,serif" font-size="14.00">_layout</text>
<text text-anchor="start" x="-96.707" y="132.2" font-family="Times,serif" font-size="14.00">problem_params</text>
<text text-anchor="start" x="-96.707" y="146.2" font-family="Times,serif" font-size="14.00">upload_input_files_params</text>
<text text-anchor="start" x="-96.707" y="160.2" font-family="Times,serif" font-size="14.00">upload_polygon_params</text>
</g>
<!-- ProfessorPortal::AssignmentsController -->
<g id="node7" class="node"><title>ProfessorPortal::AssignmentsController</title>
<path fill="none" stroke="black" d="M348.007,335C348.007,335 563.993,335 563.993,335 569.993,335 575.993,329 575.993,323 575.993,323 575.993,229 575.993,229 575.993,223 569.993,217 563.993,217 563.993,217 348.007,217 348.007,217 342.007,217 336.007,223 336.007,229 336.007,229 336.007,323 336.007,323 336.007,329 342.007,335 348.007,335"/>
<text text-anchor="middle" x="456" y="232.2" font-family="Times,serif" font-size="14.00">ProfessorPortal::AssignmentsController</text>
<polyline fill="none" stroke="black" points="336.007,239 575.993,239 "/>
<text text-anchor="start" x="344.007" y="254.2" font-family="Times,serif" font-size="14.00">index</text>
<text text-anchor="start" x="344.007" y="268.2" font-family="Times,serif" font-size="14.00">student_solutions</text>
<text text-anchor="start" x="344.007" y="282.2" font-family="Times,serif" font-size="14.00">student_statistics</text>
<polyline fill="none" stroke="black" points="336.007,289 575.993,289 "/>
<polyline fill="none" stroke="black" points="336.007,313 575.993,313 "/>
<text text-anchor="start" x="344.007" y="328.2" font-family="Times,serif" font-size="14.00">_layout</text>
</g>
<!-- ProfessorPortal::BaseController -->
<g id="node8" class="node"><title>ProfessorPortal::BaseController</title>
<path fill="none" stroke="black" d="M116.569,314C116.569,314 287.431,314 287.431,314 293.431,314 299.431,308 299.431,302 299.431,302 299.431,150 299.431,150 299.431,144 293.431,138 287.431,138 287.431,138 116.569,138 116.569,138 110.569,138 104.569,144 104.569,150 104.569,150 104.569,302 104.569,302 104.569,308 110.569,314 116.569,314"/>
<text text-anchor="middle" x="202" y="153.2" font-family="Times,serif" font-size="14.00">ProfessorPortal::BaseController</text>
<polyline fill="none" stroke="black" points="104.569,160 299.431,160 "/>
<polyline fill="none" stroke="black" points="104.569,184 299.431,184 "/>
<polyline fill="none" stroke="black" points="104.569,208 299.431,208 "/>
<text text-anchor="start" x="112.569" y="223.2" font-family="Times,serif" font-size="14.00">correct_user</text>
<text text-anchor="start" x="112.569" y="237.2" font-family="Times,serif" font-size="14.00">correct_assignment</text>
<text text-anchor="start" x="112.569" y="251.2" font-family="Times,serif" font-size="14.00">correct_course</text>
<text text-anchor="start" x="112.569" y="265.2" font-family="Times,serif" font-size="14.00">_layout</text>
<text text-anchor="start" x="112.569" y="279.2" font-family="Times,serif" font-size="14.00">load_assignment</text>
<text text-anchor="start" x="112.569" y="293.2" font-family="Times,serif" font-size="14.00">load_course</text>
<text text-anchor="start" x="112.569" y="307.2" font-family="Times,serif" font-size="14.00">load_user</text>
</g>
<!-- ProfessorPortal::CoursesController -->
<g id="node9" class="node"><title>ProfessorPortal::CoursesController</title>
<path fill="none" stroke="black" d="M410.621,167C410.621,167 599.379,167 599.379,167 605.379,167 611.379,161 611.379,155 611.379,155 611.379,89 611.379,89 611.379,83 605.379,77 599.379,77 599.379,77 410.621,77 410.621,77 404.621,77 398.621,83 398.621,89 398.621,89 398.621,155 398.621,155 398.621,161 404.621,167 410.621,167"/>
<text text-anchor="middle" x="505" y="92.2" font-family="Times,serif" font-size="14.00">ProfessorPortal::CoursesController</text>
<polyline fill="none" stroke="black" points="398.621,99 611.379,99 "/>
<text text-anchor="start" x="406.621" y="114.2" font-family="Times,serif" font-size="14.00">index</text>
<polyline fill="none" stroke="black" points="398.621,121 611.379,121 "/>
<polyline fill="none" stroke="black" points="398.621,145 611.379,145 "/>
<text text-anchor="start" x="406.621" y="160.2" font-family="Times,serif" font-size="14.00">_layout</text>
</g>
<!-- SessionsController -->
<g id="node10" class="node"><title>SessionsController</title>
<path fill="none" stroke="black" d="M-428.89,-442C-428.89,-442 -331.11,-442 -331.11,-442 -325.11,-442 -319.11,-448 -319.11,-454 -319.11,-454 -319.11,-548 -319.11,-548 -319.11,-554 -325.11,-560 -331.11,-560 -331.11,-560 -428.89,-560 -428.89,-560 -434.89,-560 -440.89,-554 -440.89,-548 -440.89,-548 -440.89,-454 -440.89,-454 -440.89,-448 -434.89,-442 -428.89,-442"/>
<text text-anchor="middle" x="-380" y="-544.8" font-family="Times,serif" font-size="14.00">SessionsController</text>
<polyline fill="none" stroke="black" points="-440.89,-538 -319.11,-538 "/>
<text text-anchor="start" x="-432.89" y="-522.8" font-family="Times,serif" font-size="14.00">create</text>
<text text-anchor="start" x="-432.89" y="-508.8" font-family="Times,serif" font-size="14.00">destroy</text>
<text text-anchor="start" x="-432.89" y="-494.8" font-family="Times,serif" font-size="14.00">new</text>
<polyline fill="none" stroke="black" points="-440.89,-488 -319.11,-488 "/>
<polyline fill="none" stroke="black" points="-440.89,-464 -319.11,-464 "/>
<text text-anchor="start" x="-432.89" y="-448.8" font-family="Times,serif" font-size="14.00">_layout</text>
</g>
<!-- StudentPortal::AssignmentsController -->
<g id="node11" class="node"><title>StudentPortal::AssignmentsController</title>
<path fill="none" stroke="black" d="M390.059,-358C390.059,-358 595.941,-358 595.941,-358 601.941,-358 607.941,-364 607.941,-370 607.941,-370 607.941,-450 607.941,-450 607.941,-456 601.941,-462 595.941,-462 595.941,-462 390.059,-462 390.059,-462 384.059,-462 378.059,-456 378.059,-450 378.059,-450 378.059,-370 378.059,-370 378.059,-364 384.059,-358 390.059,-358"/>
<text text-anchor="middle" x="493" y="-446.8" font-family="Times,serif" font-size="14.00">StudentPortal::AssignmentsController</text>
<polyline fill="none" stroke="black" points="378.059,-440 607.941,-440 "/>
<text text-anchor="start" x="386.059" y="-424.8" font-family="Times,serif" font-size="14.00">index</text>
<text text-anchor="start" x="386.059" y="-410.8" font-family="Times,serif" font-size="14.00">submissions</text>
<polyline fill="none" stroke="black" points="378.059,-404 607.941,-404 "/>
<polyline fill="none" stroke="black" points="378.059,-380 607.941,-380 "/>
<text text-anchor="start" x="386.059" y="-364.8" font-family="Times,serif" font-size="14.00">_layout</text>
</g>
<!-- StudentPortal::BaseController -->
<g id="node12" class="node"><title>StudentPortal::BaseController</title>
<path fill="none" stroke="black" d="M-324.379,293C-324.379,293 -163.621,293 -163.621,293 -157.621,293 -151.621,287 -151.621,281 -151.621,281 -151.621,115 -151.621,115 -151.621,109 -157.621,103 -163.621,103 -163.621,103 -324.379,103 -324.379,103 -330.379,103 -336.379,109 -336.379,115 -336.379,115 -336.379,281 -336.379,281 -336.379,287 -330.379,293 -324.379,293"/>
<text text-anchor="middle" x="-244" y="118.2" font-family="Times,serif" font-size="14.00">StudentPortal::BaseController</text>
<polyline fill="none" stroke="black" points="-336.379,125 -151.621,125 "/>
<polyline fill="none" stroke="black" points="-336.379,149 -151.621,149 "/>
<polyline fill="none" stroke="black" points="-336.379,173 -151.621,173 "/>
<text text-anchor="start" x="-328.379" y="188.2" font-family="Times,serif" font-size="14.00">load_user</text>
<text text-anchor="start" x="-328.379" y="202.2" font-family="Times,serif" font-size="14.00">assignment_started?</text>
<text text-anchor="start" x="-328.379" y="216.2" font-family="Times,serif" font-size="14.00">correct_course</text>
<text text-anchor="start" x="-328.379" y="230.2" font-family="Times,serif" font-size="14.00">correct_course_assignment</text>
<text text-anchor="start" x="-328.379" y="244.2" font-family="Times,serif" font-size="14.00">correct_user</text>
<text text-anchor="start" x="-328.379" y="258.2" font-family="Times,serif" font-size="14.00">load_course</text>
<text text-anchor="start" x="-328.379" y="272.2" font-family="Times,serif" font-size="14.00">load_course_and_assignment</text>
<text text-anchor="start" x="-328.379" y="286.2" font-family="Times,serif" font-size="14.00">_layout</text>
</g>
<!-- StudentPortal::CoursesController -->
<g id="node13" class="node"><title>StudentPortal::CoursesController</title>
<path fill="none" stroke="black" d="M410.672,41C410.672,41 589.328,41 589.328,41 595.328,41 601.328,35 601.328,29 601.328,29 601.328,-37 601.328,-37 601.328,-43 595.328,-49 589.328,-49 589.328,-49 410.672,-49 410.672,-49 404.672,-49 398.672,-43 398.672,-37 398.672,-37 398.672,29 398.672,29 398.672,35 404.672,41 410.672,41"/>
<text text-anchor="middle" x="500" y="-33.8" font-family="Times,serif" font-size="14.00">StudentPortal::CoursesController</text>
<polyline fill="none" stroke="black" points="398.672,-27 601.328,-27 "/>
<text text-anchor="start" x="406.672" y="-11.8" font-family="Times,serif" font-size="14.00">index</text>
<polyline fill="none" stroke="black" points="398.672,-5 601.328,-5 "/>
<polyline fill="none" stroke="black" points="398.672,19 601.328,19 "/>
<text text-anchor="start" x="406.672" y="34.2" font-family="Times,serif" font-size="14.00">_layout</text>
</g>
<!-- StudentPortal::ProblemSolutionsController -->
<g id="node14" class="node"><title>StudentPortal::ProblemSolutionsController</title>
<path fill="none" stroke="black" d="M117.055,104C117.055,104 350.945,104 350.945,104 356.945,104 362.945,98 362.945,92 362.945,92 362.945,-128 362.945,-128 362.945,-134 356.945,-140 350.945,-140 350.945,-140 117.055,-140 117.055,-140 111.055,-140 105.055,-134 105.055,-128 105.055,-128 105.055,92 105.055,92 105.055,98 111.055,104 117.055,104"/>
<text text-anchor="middle" x="234" y="-124.8" font-family="Times,serif" font-size="14.00">StudentPortal::ProblemSolutionsController</text>
<polyline fill="none" stroke="black" points="105.055,-118 362.945,-118 "/>
<text text-anchor="start" x="113.055" y="-102.8" font-family="Times,serif" font-size="14.00">save_code</text>
<text text-anchor="start" x="113.055" y="-88.8" font-family="Times,serif" font-size="14.00">submit</text>
<text text-anchor="start" x="113.055" y="-74.8" font-family="Times,serif" font-size="14.00">test</text>
<text text-anchor="start" x="113.055" y="-60.8" font-family="Times,serif" font-size="14.00">user_solutions</text>
<polyline fill="none" stroke="black" points="105.055,-54 362.945,-54 "/>
<polyline fill="none" stroke="black" points="105.055,-30 362.945,-30 "/>
<text text-anchor="start" x="113.055" y="-14.8" font-family="Times,serif" font-size="14.00">user_solutions_params</text>
<text text-anchor="start" x="113.055" y="-0.8" font-family="Times,serif" font-size="14.00">correct_user?</text>
<text text-anchor="start" x="113.055" y="13.2" font-family="Times,serif" font-size="14.00">course_owner?</text>
<text text-anchor="start" x="113.055" y="27.2" font-family="Times,serif" font-size="14.00">load_problem_solution</text>
<text text-anchor="start" x="113.055" y="41.2" font-family="Times,serif" font-size="14.00">problem_show_path_for</text>
<text text-anchor="start" x="113.055" y="55.2" font-family="Times,serif" font-size="14.00">submissions_path_for</text>
<text text-anchor="start" x="113.055" y="69.2" font-family="Times,serif" font-size="14.00">submit_solution_params</text>
<text text-anchor="start" x="113.055" y="83.2" font-family="Times,serif" font-size="14.00">test_solution_params</text>
<text text-anchor="start" x="113.055" y="97.2" font-family="Times,serif" font-size="14.00">_layout</text>
</g>
<!-- StudentPortal::ProblemsController -->
<g id="node15" class="node"><title>StudentPortal::ProblemsController</title>
<path fill="none" stroke="black" d="M-51.2173,-379C-51.2173,-379 135.217,-379 135.217,-379 141.217,-379 147.217,-385 147.217,-391 147.217,-391 147.217,-485 147.217,-485 147.217,-491 141.217,-497 135.217,-497 135.217,-497 -51.2173,-497 -51.2173,-497 -57.2173,-497 -63.2173,-491 -63.2173,-485 -63.2173,-485 -63.2173,-391 -63.2173,-391 -63.2173,-385 -57.2173,-379 -51.2173,-379"/>
<text text-anchor="middle" x="42" y="-481.8" font-family="Times,serif" font-size="14.00">StudentPortal::ProblemsController</text>
<polyline fill="none" stroke="black" points="-63.2173,-475 147.217,-475 "/>
<text text-anchor="start" x="-55.2173" y="-459.8" font-family="Times,serif" font-size="14.00">assignment_start_countdown</text>
<text text-anchor="start" x="-55.2173" y="-445.8" font-family="Times,serif" font-size="14.00">index</text>
<text text-anchor="start" x="-55.2173" y="-431.8" font-family="Times,serif" font-size="14.00">show</text>
<polyline fill="none" stroke="black" points="-63.2173,-425 147.217,-425 "/>
<polyline fill="none" stroke="black" points="-63.2173,-401 147.217,-401 "/>
<text text-anchor="start" x="-55.2173" y="-385.8" font-family="Times,serif" font-size="14.00">_layout</text>
</g>
<!-- StudentPortal::SubmissionsController -->
<g id="node16" class="node"><title>StudentPortal::SubmissionsController</title>
<path fill="none" stroke="black" d="M389.828,-190C389.828,-190 594.172,-190 594.172,-190 600.172,-190 606.172,-196 606.172,-202 606.172,-202 606.172,-296 606.172,-296 606.172,-302 600.172,-308 594.172,-308 594.172,-308 389.828,-308 389.828,-308 383.828,-308 377.828,-302 377.828,-296 377.828,-296 377.828,-202 377.828,-202 377.828,-196 383.828,-190 389.828,-190"/>
<text text-anchor="middle" x="492" y="-292.8" font-family="Times,serif" font-size="14.00">StudentPortal::SubmissionsController</text>
<polyline fill="none" stroke="black" points="377.828,-286 606.172,-286 "/>
<text text-anchor="start" x="385.828" y="-270.8" font-family="Times,serif" font-size="14.00">show</text>
<polyline fill="none" stroke="black" points="377.828,-264 606.172,-264 "/>
<polyline fill="none" stroke="black" points="377.828,-240 606.172,-240 "/>
<text text-anchor="start" x="385.828" y="-224.8" font-family="Times,serif" font-size="14.00">_layout</text>
<text text-anchor="start" x="385.828" y="-210.8" font-family="Times,serif" font-size="14.00">can_view_submission</text>
<text text-anchor="start" x="385.828" y="-196.8" font-family="Times,serif" font-size="14.00">load_submission</text>
</g>
<!-- TestCasesController -->
<g id="node17" class="node"><title>TestCasesController</title>
<path fill="none" stroke="black" d="M-92.8105,335C-92.8105,335 50.8105,335 50.8105,335 56.8105,335 62.8105,329 62.8105,323 62.8105,323 62.8105,229 62.8105,229 62.8105,223 56.8105,217 50.8105,217 50.8105,217 -92.8105,217 -92.8105,217 -98.8105,217 -104.811,223 -104.811,229 -104.811,229 -104.811,323 -104.811,323 -104.811,329 -98.8105,335 -92.8105,335"/>
<text text-anchor="middle" x="-21" y="232.2" font-family="Times,serif" font-size="14.00">TestCasesController</text>
<polyline fill="none" stroke="black" points="-104.811,239 62.8105,239 "/>
<text text-anchor="start" x="-96.8105" y="254.2" font-family="Times,serif" font-size="14.00">show_input_file</text>
<text text-anchor="start" x="-96.8105" y="268.2" font-family="Times,serif" font-size="14.00">show_output_file</text>
<polyline fill="none" stroke="black" points="-104.811,275 62.8105,275 "/>
<polyline fill="none" stroke="black" points="-104.811,299 62.8105,299 "/>
<text text-anchor="start" x="-96.8105" y="314.2" font-family="Times,serif" font-size="14.00">_layout</text>
<text text-anchor="start" x="-96.8105" y="328.2" font-family="Times,serif" font-size="14.00">check_problem_ownership</text>
</g>
<!-- UsersController -->
<g id="node18" class="node"><title>UsersController</title>
<path fill="none" stroke="black" d="M-260.714,-274C-260.714,-274 -179.286,-274 -179.286,-274 -173.286,-274 -167.286,-280 -167.286,-286 -167.286,-286 -167.286,-520 -167.286,-520 -167.286,-526 -173.286,-532 -179.286,-532 -179.286,-532 -260.714,-532 -260.714,-532 -266.714,-532 -272.714,-526 -272.714,-520 -272.714,-520 -272.714,-286 -272.714,-286 -272.714,-280 -266.714,-274 -260.714,-274"/>
<text text-anchor="middle" x="-220" y="-516.8" font-family="Times,serif" font-size="14.00">UsersController</text>
<polyline fill="none" stroke="black" points="-272.714,-510 -167.286,-510 "/>
<text text-anchor="start" x="-264.714" y="-494.8" font-family="Times,serif" font-size="14.00">update</text>
<text text-anchor="start" x="-264.714" y="-480.8" font-family="Times,serif" font-size="14.00">connect</text>
<text text-anchor="start" x="-264.714" y="-466.8" font-family="Times,serif" font-size="14.00">connections</text>
<text text-anchor="start" x="-264.714" y="-452.8" font-family="Times,serif" font-size="14.00">create</text>
<text text-anchor="start" x="-264.714" y="-438.8" font-family="Times,serif" font-size="14.00">destroy</text>
<text text-anchor="start" x="-264.714" y="-424.8" font-family="Times,serif" font-size="14.00">edit</text>
<text text-anchor="start" x="-264.714" y="-410.8" font-family="Times,serif" font-size="14.00">index</text>
<text text-anchor="start" x="-264.714" y="-396.8" font-family="Times,serif" font-size="14.00">new</text>
<text text-anchor="start" x="-264.714" y="-382.8" font-family="Times,serif" font-size="14.00">show</text>
<text text-anchor="start" x="-264.714" y="-368.8" font-family="Times,serif" font-size="14.00">administration</text>
<polyline fill="none" stroke="black" points="-272.714,-362 -167.286,-362 "/>
<polyline fill="none" stroke="black" points="-272.714,-338 -167.286,-338 "/>
<text text-anchor="start" x="-264.714" y="-322.8" font-family="Times,serif" font-size="14.00">_layout</text>
<text text-anchor="start" x="-264.714" y="-308.8" font-family="Times,serif" font-size="14.00">admin_user</text>
<text text-anchor="start" x="-264.714" y="-294.8" font-family="Times,serif" font-size="14.00">correct_user</text>
<text text-anchor="start" x="-264.714" y="-280.8" font-family="Times,serif" font-size="14.00">user_params</text>
</g>
</g>
</svg>
