<?xml version="1.0" encoding="UTF-8" standalone="no"?>
<!DOCTYPE svg PUBLIC "-//W3C//DTD SVG 1.1//EN"
 "http://www.w3.org/Graphics/SVG/1.1/DTD/svg11.dtd">
<!-- Generated by graphviz version 2.38.0 (20140413.2041)
 -->
<!-- Title: controllers_diagram Pages: 1 -->
<svg width="1081pt" height="1030pt"
 viewBox="0.00 0.00 1081.14 1030.00" xmlns="http://www.w3.org/2000/svg" xmlns:xlink="http://www.w3.org/1999/xlink">
<g id="graph0" class="graph" transform="scale(1 1) rotate(0) translate(465.759 564.5)">
<title>controllers_diagram</title>
<polygon fill="none" stroke="none" points="-465.759,465.5 -465.759,-564.5 615.379,-564.5 615.379,465.5 -465.759,465.5"/>
<!-- _diagram_info -->
<g id="node1" class="node"><title>_diagram_info</title>
<text text-anchor="start" x="134.312" y="339.9" font-family="Times,serif" font-size="13.00">Controllers diagram</text>
<text text-anchor="start" x="134.312" y="352.9" font-family="Times,serif" font-size="13.00">Date: Oct 16 2016 &#45; 16:28</text>
<text text-anchor="start" x="134.312" y="365.9" font-family="Times,serif" font-size="13.00">Migration version: 20161005020206</text>
<text text-anchor="start" x="134.312" y="378.9" font-family="Times,serif" font-size="13.00">Generated by RailRoady 1.5.2</text>
<text text-anchor="start" x="134.312" y="391.9" font-family="Times,serif" font-size="13.00">http://railroady.prestonlee.com</text>
</g>
<!-- AccountActivationsController -->
<g id="node2" class="node"><title>AccountActivationsController</title>
<path fill="none" stroke="black" d="M-449.759,461C-449.759,461 -288.241,461 -288.241,461 -282.241,461 -276.241,455 -276.241,449 -276.241,449 -276.241,383 -276.241,383 -276.241,377 -282.241,371 -288.241,371 -288.241,371 -449.759,371 -449.759,371 -455.759,371 -461.759,377 -461.759,383 -461.759,383 -461.759,449 -461.759,449 -461.759,455 -455.759,461 -449.759,461"/>
<text text-anchor="middle" x="-369" y="386.2" font-family="Times,serif" font-size="14.00">AccountActivationsController</text>
<polyline fill="none" stroke="black" points="-461.759,393 -276.241,393 "/>
<text text-anchor="start" x="-453.759" y="408.2" font-family="Times,serif" font-size="14.00">edit</text>
<polyline fill="none" stroke="black" points="-461.759,415 -276.241,415 "/>
<polyline fill="none" stroke="black" points="-461.759,439 -276.241,439 "/>
<text text-anchor="start" x="-453.759" y="454.2" font-family="Times,serif" font-size="14.00">_layout</text>
</g>
<!-- ApplicationController -->
<g id="node3" class="node"><title>ApplicationController</title>
<path fill="none" stroke="black" d="M201.444,-190C201.444,-190 458.556,-190 458.556,-190 464.556,-190 470.556,-196 470.556,-202 470.556,-202 470.556,-310 470.556,-310 470.556,-316 464.556,-322 458.556,-322 458.556,-322 201.444,-322 201.444,-322 195.444,-322 189.444,-316 189.444,-310 189.444,-310 189.444,-202 189.444,-202 189.444,-196 195.444,-190 201.444,-190"/>
<text text-anchor="middle" x="330" y="-306.8" font-family="Times,serif" font-size="14.00">ApplicationController</text>
<polyline fill="none" stroke="black" points="189.444,-300 470.556,-300 "/>
<text text-anchor="start" x="197.444" y="-284.8" font-family="Times,serif" font-size="14.00">index</text>
<polyline fill="none" stroke="black" points="189.444,-278 470.556,-278 "/>
<polyline fill="none" stroke="black" points="189.444,-254 470.556,-254 "/>
<text text-anchor="start" x="197.444" y="-238.8" font-family="Times,serif" font-size="14.00">_layout</text>
<text text-anchor="start" x="197.444" y="-224.8" font-family="Times,serif" font-size="14.00">logged_in_user</text>
<text text-anchor="start" x="197.444" y="-210.8" font-family="Times,serif" font-size="14.00">not_found</text>
<text text-anchor="start" x="197.444" y="-196.8" font-family="Times,serif" font-size="14.00">unauthorized_access_message_and_redirect_to</text>
</g>
<!-- AssignmentsController -->
<g id="node4" class="node"><title>AssignmentsController</title>
<path fill="none" stroke="black" d="M-260.979,-274C-260.979,-274 -101.021,-274 -101.021,-274 -95.0205,-274 -89.0205,-280 -89.0205,-286 -89.0205,-286 -89.0205,-492 -89.0205,-492 -89.0205,-498 -95.0205,-504 -101.021,-504 -101.021,-504 -260.979,-504 -260.979,-504 -266.979,-504 -272.979,-498 -272.979,-492 -272.979,-492 -272.979,-286 -272.979,-286 -272.979,-280 -266.979,-274 -260.979,-274"/>
<text text-anchor="middle" x="-181" y="-488.8" font-family="Times,serif" font-size="14.00">AssignmentsController</text>
<polyline fill="none" stroke="black" points="-272.979,-482 -89.0205,-482 "/>
<text text-anchor="start" x="-264.979" y="-466.8" font-family="Times,serif" font-size="14.00">update</text>
<text text-anchor="start" x="-264.979" y="-452.8" font-family="Times,serif" font-size="14.00">create</text>
<text text-anchor="start" x="-264.979" y="-438.8" font-family="Times,serif" font-size="14.00">edit</text>
<text text-anchor="start" x="-264.979" y="-424.8" font-family="Times,serif" font-size="14.00">index</text>
<text text-anchor="start" x="-264.979" y="-410.8" font-family="Times,serif" font-size="14.00">new</text>
<text text-anchor="start" x="-264.979" y="-396.8" font-family="Times,serif" font-size="14.00">remove_problem</text>
<text text-anchor="start" x="-264.979" y="-382.8" font-family="Times,serif" font-size="14.00">show</text>
<text text-anchor="start" x="-264.979" y="-368.8" font-family="Times,serif" font-size="14.00">add_problem</text>
<polyline fill="none" stroke="black" points="-272.979,-362 -89.0205,-362 "/>
<polyline fill="none" stroke="black" points="-272.979,-338 -89.0205,-338 "/>
<text text-anchor="start" x="-264.979" y="-322.8" font-family="Times,serif" font-size="14.00">_layout</text>
<text text-anchor="start" x="-264.979" y="-308.8" font-family="Times,serif" font-size="14.00">assignment_params</text>
<text text-anchor="start" x="-264.979" y="-294.8" font-family="Times,serif" font-size="14.00">check_assignment_ownership</text>
<text text-anchor="start" x="-264.979" y="-280.8" font-family="Times,serif" font-size="14.00">problem_params</text>
</g>
<!-- CoursesController -->
<g id="node5" class="node"><title>CoursesController</title>
<path fill="none" stroke="black" d="M-29.752,-169C-29.752,-169 103.752,-169 103.752,-169 109.752,-169 115.752,-175 115.752,-181 115.752,-181 115.752,-443 115.752,-443 115.752,-449 109.752,-455 103.752,-455 103.752,-455 -29.752,-455 -29.752,-455 -35.752,-455 -41.752,-449 -41.752,-443 -41.752,-443 -41.752,-181 -41.752,-181 -41.752,-175 -35.752,-169 -29.752,-169"/>
<text text-anchor="middle" x="37" y="-439.8" font-family="Times,serif" font-size="14.00">CoursesController</text>
<polyline fill="none" stroke="black" points="-41.752,-433 115.752,-433 "/>
<text text-anchor="start" x="-33.752" y="-417.8" font-family="Times,serif" font-size="14.00">update</text>
<text text-anchor="start" x="-33.752" y="-403.8" font-family="Times,serif" font-size="14.00">add_student</text>
<text text-anchor="start" x="-33.752" y="-389.8" font-family="Times,serif" font-size="14.00">add_students</text>
<text text-anchor="start" x="-33.752" y="-375.8" font-family="Times,serif" font-size="14.00">create</text>
<text text-anchor="start" x="-33.752" y="-361.8" font-family="Times,serif" font-size="14.00">edit</text>
<text text-anchor="start" x="-33.752" y="-347.8" font-family="Times,serif" font-size="14.00">new</text>
<text text-anchor="start" x="-33.752" y="-333.8" font-family="Times,serif" font-size="14.00">remove_assignment</text>
<text text-anchor="start" x="-33.752" y="-319.8" font-family="Times,serif" font-size="14.00">remove_student</text>
<text text-anchor="start" x="-33.752" y="-305.8" font-family="Times,serif" font-size="14.00">show</text>
<text text-anchor="start" x="-33.752" y="-291.8" font-family="Times,serif" font-size="14.00">add_assignment</text>
<polyline fill="none" stroke="black" points="-41.752,-285 115.752,-285 "/>
<polyline fill="none" stroke="black" points="-41.752,-261 115.752,-261 "/>
<text text-anchor="start" x="-33.752" y="-245.8" font-family="Times,serif" font-size="14.00">_layout</text>
<text text-anchor="start" x="-33.752" y="-231.8" font-family="Times,serif" font-size="14.00">add_students_params</text>
<text text-anchor="start" x="-33.752" y="-217.8" font-family="Times,serif" font-size="14.00">assignment_params</text>
<text text-anchor="start" x="-33.752" y="-203.8" font-family="Times,serif" font-size="14.00">check_course_ownership</text>
<text text-anchor="start" x="-33.752" y="-189.8" font-family="Times,serif" font-size="14.00">course_params</text>
<text text-anchor="start" x="-33.752" y="-175.8" font-family="Times,serif" font-size="14.00">student_params</text>
</g>
<!-- ProblemsController -->
<g id="node6" class="node"><title>ProblemsController</title>
<path fill="none" stroke="black" d="M159.293,146C159.293,146 310.707,146 310.707,146 316.707,146 322.707,140 322.707,134 322.707,134 322.707,-142 322.707,-142 322.707,-148 316.707,-154 310.707,-154 310.707,-154 159.293,-154 159.293,-154 153.293,-154 147.293,-148 147.293,-142 147.293,-142 147.293,134 147.293,134 147.293,140 153.293,146 159.293,146"/>
<text text-anchor="middle" x="235" y="-138.8" font-family="Times,serif" font-size="14.00">ProblemsController</text>
<polyline fill="none" stroke="black" points="147.293,-132 322.707,-132 "/>
<text text-anchor="start" x="155.293" y="-116.8" font-family="Times,serif" font-size="14.00">upload_input_files</text>
<text text-anchor="start" x="155.293" y="-102.8" font-family="Times,serif" font-size="14.00">edit</text>
<text text-anchor="start" x="155.293" y="-88.8" font-family="Times,serif" font-size="14.00">generate_outputs</text>
<text text-anchor="start" x="155.293" y="-74.8" font-family="Times,serif" font-size="14.00">group_individual_test_cases</text>
<text text-anchor="start" x="155.293" y="-60.8" font-family="Times,serif" font-size="14.00">group_test_cases</text>
<text text-anchor="start" x="155.293" y="-46.8" font-family="Times,serif" font-size="14.00">index</text>
<text text-anchor="start" x="155.293" y="-32.8" font-family="Times,serif" font-size="14.00">new</text>
<text text-anchor="start" x="155.293" y="-18.8" font-family="Times,serif" font-size="14.00">show</text>
<text text-anchor="start" x="155.293" y="-4.8" font-family="Times,serif" font-size="14.00">ungroup_test_cases</text>
<text text-anchor="start" x="155.293" y="9.2" font-family="Times,serif" font-size="14.00">update</text>
<text text-anchor="start" x="155.293" y="23.2" font-family="Times,serif" font-size="14.00">create</text>
<polyline fill="none" stroke="black" points="147.293,30 322.707,30 "/>
<polyline fill="none" stroke="black" points="147.293,54 322.707,54 "/>
<text text-anchor="start" x="155.293" y="69.2" font-family="Times,serif" font-size="14.00">_layout</text>
<text text-anchor="start" x="155.293" y="83.2" font-family="Times,serif" font-size="14.00">check_input_files_uploaded</text>
<text text-anchor="start" x="155.293" y="97.2" font-family="Times,serif" font-size="14.00">check_problem_ownership</text>
<text text-anchor="start" x="155.293" y="111.2" font-family="Times,serif" font-size="14.00">generate_outputs_params</text>
<text text-anchor="start" x="155.293" y="125.2" font-family="Times,serif" font-size="14.00">problem_params</text>
<text text-anchor="start" x="155.293" y="139.2" font-family="Times,serif" font-size="14.00">upload_input_files_params</text>
</g>
<!-- ProfessorPortal::AssignmentsController -->
<g id="node7" class="node"><title>ProfessorPortal::AssignmentsController</title>
<path fill="none" stroke="black" d="M138.007,293C138.007,293 353.993,293 353.993,293 359.993,293 365.993,287 365.993,281 365.993,281 365.993,201 365.993,201 365.993,195 359.993,189 353.993,189 353.993,189 138.007,189 138.007,189 132.007,189 126.007,195 126.007,201 126.007,201 126.007,281 126.007,281 126.007,287 132.007,293 138.007,293"/>
<text text-anchor="middle" x="246" y="204.2" font-family="Times,serif" font-size="14.00">ProfessorPortal::AssignmentsController</text>
<polyline fill="none" stroke="black" points="126.007,211 365.993,211 "/>
<text text-anchor="start" x="134.007" y="226.2" font-family="Times,serif" font-size="14.00">index</text>
<text text-anchor="start" x="134.007" y="240.2" font-family="Times,serif" font-size="14.00">student_solutions</text>
<polyline fill="none" stroke="black" points="126.007,247 365.993,247 "/>
<polyline fill="none" stroke="black" points="126.007,271 365.993,271 "/>
<text text-anchor="start" x="134.007" y="286.2" font-family="Times,serif" font-size="14.00">_layout</text>
</g>
<!-- ProfessorPortal::BaseController -->
<g id="node8" class="node"><title>ProfessorPortal::BaseController</title>
<path fill="none" stroke="black" d="M-324.431,335C-324.431,335 -153.569,335 -153.569,335 -147.569,335 -141.569,329 -141.569,323 -141.569,323 -141.569,171 -141.569,171 -141.569,165 -147.569,159 -153.569,159 -153.569,159 -324.431,159 -324.431,159 -330.431,159 -336.431,165 -336.431,171 -336.431,171 -336.431,323 -336.431,323 -336.431,329 -330.431,335 -324.431,335"/>
<text text-anchor="middle" x="-239" y="174.2" font-family="Times,serif" font-size="14.00">ProfessorPortal::BaseController</text>
<polyline fill="none" stroke="black" points="-336.431,181 -141.569,181 "/>
<polyline fill="none" stroke="black" points="-336.431,205 -141.569,205 "/>
<polyline fill="none" stroke="black" points="-336.431,229 -141.569,229 "/>
<text text-anchor="start" x="-328.431" y="244.2" font-family="Times,serif" font-size="14.00">correct_user</text>
<text text-anchor="start" x="-328.431" y="258.2" font-family="Times,serif" font-size="14.00">correct_assignment</text>
<text text-anchor="start" x="-328.431" y="272.2" font-family="Times,serif" font-size="14.00">correct_course</text>
<text text-anchor="start" x="-328.431" y="286.2" font-family="Times,serif" font-size="14.00">_layout</text>
<text text-anchor="start" x="-328.431" y="300.2" font-family="Times,serif" font-size="14.00">load_assignment</text>
<text text-anchor="start" x="-328.431" y="314.2" font-family="Times,serif" font-size="14.00">load_course</text>
<text text-anchor="start" x="-328.431" y="328.2" font-family="Times,serif" font-size="14.00">load_user</text>
</g>
<!-- ProfessorPortal::CoursesController -->
<g id="node9" class="node"><title>ProfessorPortal::CoursesController</title>
<path fill="none" stroke="black" d="M410.621,272C410.621,272 599.379,272 599.379,272 605.379,272 611.379,266 611.379,260 611.379,260 611.379,194 611.379,194 611.379,188 605.379,182 599.379,182 599.379,182 410.621,182 410.621,182 404.621,182 398.621,188 398.621,194 398.621,194 398.621,260 398.621,260 398.621,266 404.621,272 410.621,272"/>
<text text-anchor="middle" x="505" y="197.2" font-family="Times,serif" font-size="14.00">ProfessorPortal::CoursesController</text>
<polyline fill="none" stroke="black" points="398.621,204 611.379,204 "/>
<text text-anchor="start" x="406.621" y="219.2" font-family="Times,serif" font-size="14.00">index</text>
<polyline fill="none" stroke="black" points="398.621,226 611.379,226 "/>
<polyline fill="none" stroke="black" points="398.621,250 611.379,250 "/>
<text text-anchor="start" x="406.621" y="265.2" font-family="Times,serif" font-size="14.00">_layout</text>
</g>
<!-- SessionsController -->
<g id="node10" class="node"><title>SessionsController</title>
<path fill="none" stroke="black" d="M-428.89,-442C-428.89,-442 -331.11,-442 -331.11,-442 -325.11,-442 -319.11,-448 -319.11,-454 -319.11,-454 -319.11,-548 -319.11,-548 -319.11,-554 -325.11,-560 -331.11,-560 -331.11,-560 -428.89,-560 -428.89,-560 -434.89,-560 -440.89,-554 -440.89,-548 -440.89,-548 -440.89,-454 -440.89,-454 -440.89,-448 -434.89,-442 -428.89,-442"/>
<text text-anchor="middle" x="-380" y="-544.8" font-family="Times,serif" font-size="14.00">SessionsController</text>
<polyline fill="none" stroke="black" points="-440.89,-538 -319.11,-538 "/>
<text text-anchor="start" x="-432.89" y="-522.8" font-family="Times,serif" font-size="14.00">create</text>
<text text-anchor="start" x="-432.89" y="-508.8" font-family="Times,serif" font-size="14.00">destroy</text>
<text text-anchor="start" x="-432.89" y="-494.8" font-family="Times,serif" font-size="14.00">new</text>
<polyline fill="none" stroke="black" points="-440.89,-488 -319.11,-488 "/>
<polyline fill="none" stroke="black" points="-440.89,-464 -319.11,-464 "/>
<text text-anchor="start" x="-432.89" y="-448.8" font-family="Times,serif" font-size="14.00">_layout</text>
</g>
<!-- StudentPortal::AssignmentsController -->
<g id="node11" class="node"><title>StudentPortal::AssignmentsController</title>
<path fill="none" stroke="black" d="M369.059,-22C369.059,-22 574.941,-22 574.941,-22 580.941,-22 586.941,-28 586.941,-34 586.941,-34 586.941,-114 586.941,-114 586.941,-120 580.941,-126 574.941,-126 574.941,-126 369.059,-126 369.059,-126 363.059,-126 357.059,-120 357.059,-114 357.059,-114 357.059,-34 357.059,-34 357.059,-28 363.059,-22 369.059,-22"/>
<text text-anchor="middle" x="472" y="-110.8" font-family="Times,serif" font-size="14.00">StudentPortal::AssignmentsController</text>
<polyline fill="none" stroke="black" points="357.059,-104 586.941,-104 "/>
<text text-anchor="start" x="365.059" y="-88.8" font-family="Times,serif" font-size="14.00">index</text>
<text text-anchor="start" x="365.059" y="-74.8" font-family="Times,serif" font-size="14.00">submissions</text>
<polyline fill="none" stroke="black" points="357.059,-68 586.941,-68 "/>
<polyline fill="none" stroke="black" points="357.059,-44 586.941,-44 "/>
<text text-anchor="start" x="365.059" y="-28.8" font-family="Times,serif" font-size="14.00">_layout</text>
</g>
<!-- StudentPortal::BaseController -->
<g id="node12" class="node"><title>StudentPortal::BaseController</title>
<path fill="none" stroke="black" d="M-93.3794,356C-93.3794,356 67.3794,356 67.3794,356 73.3794,356 79.3794,350 79.3794,344 79.3794,344 79.3794,178 79.3794,178 79.3794,172 73.3794,166 67.3794,166 67.3794,166 -93.3794,166 -93.3794,166 -99.3794,166 -105.379,172 -105.379,178 -105.379,178 -105.379,344 -105.379,344 -105.379,350 -99.3794,356 -93.3794,356"/>
<text text-anchor="middle" x="-13" y="181.2" font-family="Times,serif" font-size="14.00">StudentPortal::BaseController</text>
<polyline fill="none" stroke="black" points="-105.379,188 79.3794,188 "/>
<polyline fill="none" stroke="black" points="-105.379,212 79.3794,212 "/>
<polyline fill="none" stroke="black" points="-105.379,236 79.3794,236 "/>
<text text-anchor="start" x="-97.3794" y="251.2" font-family="Times,serif" font-size="14.00">load_user</text>
<text text-anchor="start" x="-97.3794" y="265.2" font-family="Times,serif" font-size="14.00">assignment_started?</text>
<text text-anchor="start" x="-97.3794" y="279.2" font-family="Times,serif" font-size="14.00">correct_course</text>
<text text-anchor="start" x="-97.3794" y="293.2" font-family="Times,serif" font-size="14.00">correct_course_assignment</text>
<text text-anchor="start" x="-97.3794" y="307.2" font-family="Times,serif" font-size="14.00">correct_user</text>
<text text-anchor="start" x="-97.3794" y="321.2" font-family="Times,serif" font-size="14.00">load_course</text>
<text text-anchor="start" x="-97.3794" y="335.2" font-family="Times,serif" font-size="14.00">load_course_and_assignment</text>
<text text-anchor="start" x="-97.3794" y="349.2" font-family="Times,serif" font-size="14.00">_layout</text>
</g>
<!-- StudentPortal::CoursesController -->
<g id="node13" class="node"><title>StudentPortal::CoursesController</title>
<path fill="none" stroke="black" d="M410.672,398C410.672,398 589.328,398 589.328,398 595.328,398 601.328,392 601.328,386 601.328,386 601.328,320 601.328,320 601.328,314 595.328,308 589.328,308 589.328,308 410.672,308 410.672,308 404.672,308 398.672,314 398.672,320 398.672,320 398.672,386 398.672,386 398.672,392 404.672,398 410.672,398"/>
<text text-anchor="middle" x="500" y="323.2" font-family="Times,serif" font-size="14.00">StudentPortal::CoursesController</text>
<polyline fill="none" stroke="black" points="398.672,330 601.328,330 "/>
<text text-anchor="start" x="406.672" y="345.2" font-family="Times,serif" font-size="14.00">index</text>
<polyline fill="none" stroke="black" points="398.672,352 601.328,352 "/>
<polyline fill="none" stroke="black" points="398.672,376 601.328,376 "/>
<text text-anchor="start" x="406.672" y="391.2" font-family="Times,serif" font-size="14.00">_layout</text>
</g>
<!-- StudentPortal::ProblemSolutionsController -->
<g id="node14" class="node"><title>StudentPortal::ProblemSolutionsController</title>
<path fill="none" stroke="black" d="M-134.945,125C-134.945,125 98.9448,125 98.9448,125 104.945,125 110.945,119 110.945,113 110.945,113 110.945,-107 110.945,-107 110.945,-113 104.945,-119 98.9448,-119 98.9448,-119 -134.945,-119 -134.945,-119 -140.945,-119 -146.945,-113 -146.945,-107 -146.945,-107 -146.945,113 -146.945,113 -146.945,119 -140.945,125 -134.945,125"/>
<text text-anchor="middle" x="-18" y="-103.8" font-family="Times,serif" font-size="14.00">StudentPortal::ProblemSolutionsController</text>
<polyline fill="none" stroke="black" points="-146.945,-97 110.945,-97 "/>
<text text-anchor="start" x="-138.945" y="-81.8" font-family="Times,serif" font-size="14.00">save_code</text>
<text text-anchor="start" x="-138.945" y="-67.8" font-family="Times,serif" font-size="14.00">submit</text>
<text text-anchor="start" x="-138.945" y="-53.8" font-family="Times,serif" font-size="14.00">test</text>
<text text-anchor="start" x="-138.945" y="-39.8" font-family="Times,serif" font-size="14.00">user_solutions</text>
<polyline fill="none" stroke="black" points="-146.945,-33 110.945,-33 "/>
<polyline fill="none" stroke="black" points="-146.945,-9 110.945,-9 "/>
<text text-anchor="start" x="-138.945" y="6.2" font-family="Times,serif" font-size="14.00">user_solutions_params</text>
<text text-anchor="start" x="-138.945" y="20.2" font-family="Times,serif" font-size="14.00">correct_user?</text>
<text text-anchor="start" x="-138.945" y="34.2" font-family="Times,serif" font-size="14.00">course_owner?</text>
<text text-anchor="start" x="-138.945" y="48.2" font-family="Times,serif" font-size="14.00">load_problem_solution</text>
<text text-anchor="start" x="-138.945" y="62.2" font-family="Times,serif" font-size="14.00">problem_show_path_for</text>
<text text-anchor="start" x="-138.945" y="76.2" font-family="Times,serif" font-size="14.00">submissions_path_for</text>
<text text-anchor="start" x="-138.945" y="90.2" font-family="Times,serif" font-size="14.00">submit_solution_params</text>
<text text-anchor="start" x="-138.945" y="104.2" font-family="Times,serif" font-size="14.00">test_solution_params</text>
<text text-anchor="start" x="-138.945" y="118.2" font-family="Times,serif" font-size="14.00">_layout</text>
</g>
<!-- StudentPortal::ProblemsController -->
<g id="node15" class="node"><title>StudentPortal::ProblemsController</title>
<path fill="none" stroke="black" d="M368.783,-358C368.783,-358 555.217,-358 555.217,-358 561.217,-358 567.217,-364 567.217,-370 567.217,-370 567.217,-464 567.217,-464 567.217,-470 561.217,-476 555.217,-476 555.217,-476 368.783,-476 368.783,-476 362.783,-476 356.783,-470 356.783,-464 356.783,-464 356.783,-370 356.783,-370 356.783,-364 362.783,-358 368.783,-358"/>
<text text-anchor="middle" x="462" y="-460.8" font-family="Times,serif" font-size="14.00">StudentPortal::ProblemsController</text>
<polyline fill="none" stroke="black" points="356.783,-454 567.217,-454 "/>
<text text-anchor="start" x="364.783" y="-438.8" font-family="Times,serif" font-size="14.00">assignment_start_countdown</text>
<text text-anchor="start" x="364.783" y="-424.8" font-family="Times,serif" font-size="14.00">index</text>
<text text-anchor="start" x="364.783" y="-410.8" font-family="Times,serif" font-size="14.00">show</text>
<polyline fill="none" stroke="black" points="356.783,-404 567.217,-404 "/>
<polyline fill="none" stroke="black" points="356.783,-380 567.217,-380 "/>
<text text-anchor="start" x="364.783" y="-364.8" font-family="Times,serif" font-size="14.00">_layout</text>
</g>
<!-- StudentPortal::SubmissionsController -->
<g id="node16" class="node"><title>StudentPortal::SubmissionsController</title>
<path fill="none" stroke="black" d="M368.828,146C368.828,146 573.172,146 573.172,146 579.172,146 585.172,140 585.172,134 585.172,134 585.172,40 585.172,40 585.172,34 579.172,28 573.172,28 573.172,28 368.828,28 368.828,28 362.828,28 356.828,34 356.828,40 356.828,40 356.828,134 356.828,134 356.828,140 362.828,146 368.828,146"/>
<text text-anchor="middle" x="471" y="43.2" font-family="Times,serif" font-size="14.00">StudentPortal::SubmissionsController</text>
<polyline fill="none" stroke="black" points="356.828,50 585.172,50 "/>
<text text-anchor="start" x="364.828" y="65.2" font-family="Times,serif" font-size="14.00">show</text>
<polyline fill="none" stroke="black" points="356.828,72 585.172,72 "/>
<polyline fill="none" stroke="black" points="356.828,96 585.172,96 "/>
<text text-anchor="start" x="364.828" y="111.2" font-family="Times,serif" font-size="14.00">_layout</text>
<text text-anchor="start" x="364.828" y="125.2" font-family="Times,serif" font-size="14.00">can_view_submission</text>
<text text-anchor="start" x="364.828" y="139.2" font-family="Times,serif" font-size="14.00">load_submission</text>
</g>
<!-- TestCasesController -->
<g id="node17" class="node"><title>TestCasesController</title>
<path fill="none" stroke="black" d="M159.189,-358C159.189,-358 302.811,-358 302.811,-358 308.811,-358 314.811,-364 314.811,-370 314.811,-370 314.811,-464 314.811,-464 314.811,-470 308.811,-476 302.811,-476 302.811,-476 159.189,-476 159.189,-476 153.189,-476 147.189,-470 147.189,-464 147.189,-464 147.189,-370 147.189,-370 147.189,-364 153.189,-358 159.189,-358"/>
<text text-anchor="middle" x="231" y="-460.8" font-family="Times,serif" font-size="14.00">TestCasesController</text>
<polyline fill="none" stroke="black" points="147.189,-454 314.811,-454 "/>
<text text-anchor="start" x="155.189" y="-438.8" font-family="Times,serif" font-size="14.00">show_input_file</text>
<text text-anchor="start" x="155.189" y="-424.8" font-family="Times,serif" font-size="14.00">show_output_file</text>
<polyline fill="none" stroke="black" points="147.189,-418 314.811,-418 "/>
<polyline fill="none" stroke="black" points="147.189,-394 314.811,-394 "/>
<text text-anchor="start" x="155.189" y="-378.8" font-family="Times,serif" font-size="14.00">_layout</text>
<text text-anchor="start" x="155.189" y="-364.8" font-family="Times,serif" font-size="14.00">check_problem_ownership</text>
</g>
<!-- UsersController -->
<g id="node18" class="node"><title>UsersController</title>
<path fill="none" stroke="black" d="M-281.714,20C-281.714,20 -200.286,20 -200.286,20 -194.286,20 -188.286,14 -188.286,8 -188.286,8 -188.286,-226 -188.286,-226 -188.286,-232 -194.286,-238 -200.286,-238 -200.286,-238 -281.714,-238 -281.714,-238 -287.714,-238 -293.714,-232 -293.714,-226 -293.714,-226 -293.714,8 -293.714,8 -293.714,14 -287.714,20 -281.714,20"/>
<text text-anchor="middle" x="-241" y="-222.8" font-family="Times,serif" font-size="14.00">UsersController</text>
<polyline fill="none" stroke="black" points="-293.714,-216 -188.286,-216 "/>
<text text-anchor="start" x="-285.714" y="-200.8" font-family="Times,serif" font-size="14.00">update</text>
<text text-anchor="start" x="-285.714" y="-186.8" font-family="Times,serif" font-size="14.00">connect</text>
<text text-anchor="start" x="-285.714" y="-172.8" font-family="Times,serif" font-size="14.00">connections</text>
<text text-anchor="start" x="-285.714" y="-158.8" font-family="Times,serif" font-size="14.00">create</text>
<text text-anchor="start" x="-285.714" y="-144.8" font-family="Times,serif" font-size="14.00">destroy</text>
<text text-anchor="start" x="-285.714" y="-130.8" font-family="Times,serif" font-size="14.00">edit</text>
<text text-anchor="start" x="-285.714" y="-116.8" font-family="Times,serif" font-size="14.00">index</text>
<text text-anchor="start" x="-285.714" y="-102.8" font-family="Times,serif" font-size="14.00">new</text>
<text text-anchor="start" x="-285.714" y="-88.8" font-family="Times,serif" font-size="14.00">show</text>
<text text-anchor="start" x="-285.714" y="-74.8" font-family="Times,serif" font-size="14.00">administration</text>
<polyline fill="none" stroke="black" points="-293.714,-68 -188.286,-68 "/>
<polyline fill="none" stroke="black" points="-293.714,-44 -188.286,-44 "/>
<text text-anchor="start" x="-285.714" y="-28.8" font-family="Times,serif" font-size="14.00">_layout</text>
<text text-anchor="start" x="-285.714" y="-14.8" font-family="Times,serif" font-size="14.00">admin_user</text>
<text text-anchor="start" x="-285.714" y="-0.8" font-family="Times,serif" font-size="14.00">correct_user</text>
<text text-anchor="start" x="-285.714" y="13.2" font-family="Times,serif" font-size="14.00">user_params</text>
</g>
</g>
</svg>
