<?xml version="1.0" encoding="UTF-8" standalone="no"?>
<!DOCTYPE svg PUBLIC "-//W3C//DTD SVG 1.1//EN"
 "http://www.w3.org/Graphics/SVG/1.1/DTD/svg11.dtd">
<!-- Generated by graphviz version 2.38.0 (20140413.2041)
 -->
<!-- Title: models_diagram Pages: 1 -->
<svg width="1517pt" height="1216pt"
 viewBox="0.00 0.00 1517.04 1216.00" xmlns="http://www.w3.org/2000/svg" xmlns:xlink="http://www.w3.org/1999/xlink">
<g id="graph0" class="graph" transform="scale(1 1) rotate(0) translate(4 1212)">
<title>models_diagram</title>
<polygon fill="none" stroke="none" points="-4,4 -4,-1212 1513.04,-1212 1513.04,4 -4,4"/>
<!-- _diagram_info -->
<g id="node1" class="node"><title>_diagram_info</title>
<text text-anchor="start" x="14.2439" y="-1144.6" font-family="Times,serif" font-size="13.00">Models diagram</text>
<text text-anchor="start" x="14.2439" y="-1131.6" font-family="Times,serif" font-size="13.00">Date: Oct 16 2016 &#45; 16:28</text>
<text text-anchor="start" x="14.2439" y="-1118.6" font-family="Times,serif" font-size="13.00">Migration version: 20161005020206</text>
<text text-anchor="start" x="14.2439" y="-1105.6" font-family="Times,serif" font-size="13.00">Generated by RailRoady 1.5.2</text>
<text text-anchor="start" x="14.2439" y="-1092.6" font-family="Times,serif" font-size="13.00">http://railroady.prestonlee.com</text>
</g>
<!-- Assignment -->
<g id="node2" class="node"><title>Assignment</title>
<path fill="none" stroke="black" d="M243.426,-1051.5C243.426,-1051.5 352.437,-1051.5 352.437,-1051.5 358.437,-1051.5 364.437,-1057.5 364.437,-1063.5 364.437,-1063.5 364.437,-1181.5 364.437,-1181.5 364.437,-1187.5 358.437,-1193.5 352.437,-1193.5 352.437,-1193.5 243.426,-1193.5 243.426,-1193.5 237.426,-1193.5 231.426,-1187.5 231.426,-1181.5 231.426,-1181.5 231.426,-1063.5 231.426,-1063.5 231.426,-1057.5 237.426,-1051.5 243.426,-1051.5"/>
<text text-anchor="middle" x="297.932" y="-1178.3" font-family="Times,serif" font-size="14.00">Assignment</text>
<polyline fill="none" stroke="black" points="231.426,-1171.5 364.437,-1171.5 "/>
<text text-anchor="start" x="239.426" y="-1156.3" font-family="Times,serif" font-size="14.00">updated_at :datetime</text>
<text text-anchor="start" x="239.426" y="-1142.3" font-family="Times,serif" font-size="14.00">name :varchar(255)</text>
<text text-anchor="start" x="239.426" y="-1128.3" font-family="Times,serif" font-size="14.00">starts_at :datetime</text>
<text text-anchor="start" x="239.426" y="-1114.3" font-family="Times,serif" font-size="14.00">ends_at :datetime</text>
<text text-anchor="start" x="239.426" y="-1100.3" font-family="Times,serif" font-size="14.00">description :text</text>
<text text-anchor="start" x="239.426" y="-1086.3" font-family="Times,serif" font-size="14.00">owner_id :int(11)</text>
<text text-anchor="start" x="239.426" y="-1072.3" font-family="Times,serif" font-size="14.00">created_at :datetime</text>
<text text-anchor="start" x="239.426" y="-1058.3" font-family="Times,serif" font-size="14.00">id :int(11)</text>
</g>
<!-- AssignmentProblem -->
<g id="node3" class="node"><title>AssignmentProblem</title>
<path fill="none" stroke="black" d="M12,-166.5C12,-166.5 129.863,-166.5 129.863,-166.5 135.863,-166.5 141.863,-172.5 141.863,-178.5 141.863,-178.5 141.863,-254.5 141.863,-254.5 141.863,-260.5 135.863,-266.5 129.863,-266.5 129.863,-266.5 12,-266.5 12,-266.5 6,-266.5 0,-260.5 0,-254.5 0,-254.5 0,-178.5 0,-178.5 0,-172.5 6,-166.5 12,-166.5"/>
<text text-anchor="middle" x="70.9316" y="-251.3" font-family="Times,serif" font-size="14.00">AssignmentProblem</text>
<polyline fill="none" stroke="black" points="0,-244.5 141.863,-244.5 "/>
<text text-anchor="start" x="8" y="-229.3" font-family="Times,serif" font-size="14.00">id :int(11)</text>
<text text-anchor="start" x="8" y="-215.3" font-family="Times,serif" font-size="14.00">assignment_id :int(11)</text>
<text text-anchor="start" x="8" y="-201.3" font-family="Times,serif" font-size="14.00">problem_id :int(11)</text>
<text text-anchor="start" x="8" y="-187.3" font-family="Times,serif" font-size="14.00">created_at :datetime</text>
<text text-anchor="start" x="8" y="-173.3" font-family="Times,serif" font-size="14.00">updated_at :datetime</text>
</g>
<!-- Assignment&#45;&gt;AssignmentProblem -->
<g id="edge3" class="edge"><title>Assignment&#45;&gt;AssignmentProblem</title>
<path fill="none" stroke="#bcc19b" d="M231.591,-1045.41C228.706,-1042.53 225.813,-1039.72 222.932,-1037 159.954,-977.62 69.9316,-1003.06 69.9316,-916.5 69.9316,-916.5 69.9316,-916.5 69.9316,-423.5 69.9316,-374.045 70.2234,-317.912 70.4918,-276.745"/>
<ellipse fill="none" stroke="#bcc19b" cx="234.688" cy="-1048.55" rx="4.00002" ry="4.00002"/>
<polygon fill="#bcc19b" stroke="#bcc19b" points="70.4925,-276.614 75.0592,-266.644 70.5259,-271.614 70.5593,-266.614 70.5593,-266.614 70.5593,-266.614 70.5259,-271.614 66.0594,-266.584 70.4925,-276.614 70.4925,-276.614"/>
</g>
<!-- Course -->
<g id="node4" class="node"><title>Course</title>
<path fill="none" stroke="black" d="M461.426,-865.5C461.426,-865.5 570.437,-865.5 570.437,-865.5 576.437,-865.5 582.437,-871.5 582.437,-877.5 582.437,-877.5 582.437,-953.5 582.437,-953.5 582.437,-959.5 576.437,-965.5 570.437,-965.5 570.437,-965.5 461.426,-965.5 461.426,-965.5 455.426,-965.5 449.426,-959.5 449.426,-953.5 449.426,-953.5 449.426,-877.5 449.426,-877.5 449.426,-871.5 455.426,-865.5 461.426,-865.5"/>
<text text-anchor="middle" x="515.932" y="-950.3" font-family="Times,serif" font-size="14.00">Course</text>
<polyline fill="none" stroke="black" points="449.426,-943.5 582.437,-943.5 "/>
<text text-anchor="start" x="457.426" y="-928.3" font-family="Times,serif" font-size="14.00">id :int(11)</text>
<text text-anchor="start" x="457.426" y="-914.3" font-family="Times,serif" font-size="14.00">name :varchar(255)</text>
<text text-anchor="start" x="457.426" y="-900.3" font-family="Times,serif" font-size="14.00">owner_id :int(11)</text>
<text text-anchor="start" x="457.426" y="-886.3" font-family="Times,serif" font-size="14.00">created_at :datetime</text>
<text text-anchor="start" x="457.426" y="-872.3" font-family="Times,serif" font-size="14.00">updated_at :datetime</text>
</g>
<!-- Assignment&#45;&gt;Course -->
<g id="edge2" class="edge"><title>Assignment&#45;&gt;Course</title>
<path fill="none" stroke="#57b07f" d="M366.604,-1044.1C369.05,-1041.68 371.497,-1039.31 373.932,-1037 399.627,-1012.65 408.868,-1009.82 435.932,-987 441.478,-982.324 447.201,-977.427 452.916,-972.487"/>
<polygon fill="#57b07f" stroke="#57b07f" points="366.322,-1044.39 356.085,-1048.32 362.801,-1047.94 359.28,-1051.49 359.28,-1051.49 359.28,-1051.49 362.801,-1047.94 362.475,-1054.65 366.322,-1044.39 366.322,-1044.39"/>
<polygon fill="#57b07f" stroke="#57b07f" points="453.136,-972.296 463.638,-969.139 456.912,-969.018 460.688,-965.741 460.688,-965.741 460.688,-965.741 456.912,-969.018 457.738,-962.342 453.136,-972.296 453.136,-972.296"/>
</g>
<!-- CourseAssignment -->
<g id="node5" class="node"><title>CourseAssignment</title>
<path fill="none" stroke="black" d="M619,-644.5C619,-644.5 736.863,-644.5 736.863,-644.5 742.863,-644.5 748.863,-650.5 748.863,-656.5 748.863,-656.5 748.863,-732.5 748.863,-732.5 748.863,-738.5 742.863,-744.5 736.863,-744.5 736.863,-744.5 619,-744.5 619,-744.5 613,-744.5 607,-738.5 607,-732.5 607,-732.5 607,-656.5 607,-656.5 607,-650.5 613,-644.5 619,-644.5"/>
<text text-anchor="middle" x="677.932" y="-729.3" font-family="Times,serif" font-size="14.00">CourseAssignment</text>
<polyline fill="none" stroke="black" points="607,-722.5 748.863,-722.5 "/>
<text text-anchor="start" x="615" y="-707.3" font-family="Times,serif" font-size="14.00">id :int(11)</text>
<text text-anchor="start" x="615" y="-693.3" font-family="Times,serif" font-size="14.00">course_id :int(11)</text>
<text text-anchor="start" x="615" y="-679.3" font-family="Times,serif" font-size="14.00">assignment_id :int(11)</text>
<text text-anchor="start" x="615" y="-665.3" font-family="Times,serif" font-size="14.00">created_at :datetime</text>
<text text-anchor="start" x="615" y="-651.3" font-family="Times,serif" font-size="14.00">updated_at :datetime</text>
</g>
<!-- Assignment&#45;&gt;CourseAssignment -->
<g id="edge1" class="edge"><title>Assignment&#45;&gt;CourseAssignment</title>
<path fill="none" stroke="#da63da" d="M360.29,-1046.31C364.691,-1042.9 369.247,-1039.76 373.932,-1037 459.604,-986.586 519.517,-1055.1 591.932,-987 656.056,-926.699 673.127,-821.2 677.238,-755.019"/>
<ellipse fill="none" stroke="#da63da" cx="357.052" cy="-1048.96" rx="4.00002" ry="4.00002"/>
<polygon fill="#da63da" stroke="#da63da" points="677.254,-754.733 682.286,-744.99 677.523,-749.741 677.792,-744.748 677.792,-744.748 677.792,-744.748 677.523,-749.741 673.299,-744.505 677.254,-754.733 677.254,-754.733"/>
</g>
<!-- Problem -->
<g id="node10" class="node"><title>Problem</title>
<path fill="none" stroke="black" d="M109.978,-304.5C109.978,-304.5 341.885,-304.5 341.885,-304.5 347.885,-304.5 353.885,-310.5 353.885,-316.5 353.885,-316.5 353.885,-532.5 353.885,-532.5 353.885,-538.5 347.885,-544.5 341.885,-544.5 341.885,-544.5 109.978,-544.5 109.978,-544.5 103.978,-544.5 97.978,-538.5 97.978,-532.5 97.978,-532.5 97.978,-316.5 97.978,-316.5 97.978,-310.5 103.978,-304.5 109.978,-304.5"/>
<text text-anchor="middle" x="225.932" y="-529.3" font-family="Times,serif" font-size="14.00">Problem</text>
<polyline fill="none" stroke="black" points="97.978,-522.5 353.885,-522.5 "/>
<text text-anchor="start" x="105.978" y="-507.3" font-family="Times,serif" font-size="14.00">time_limit :int(11)</text>
<text text-anchor="start" x="105.978" y="-493.3" font-family="Times,serif" font-size="14.00">name :varchar(255)</text>
<text text-anchor="start" x="105.978" y="-479.3" font-family="Times,serif" font-size="14.00">statement :text</text>
<text text-anchor="start" x="105.978" y="-465.3" font-family="Times,serif" font-size="14.00">input_format :text</text>
<text text-anchor="start" x="105.978" y="-451.3" font-family="Times,serif" font-size="14.00">output_format :text</text>
<text text-anchor="start" x="105.978" y="-437.3" font-family="Times,serif" font-size="14.00">examples :text</text>
<text text-anchor="start" x="105.978" y="-423.3" font-family="Times,serif" font-size="14.00">notes :text</text>
<text text-anchor="start" x="105.978" y="-409.3" font-family="Times,serif" font-size="14.00">owner_id :int(11)</text>
<text text-anchor="start" x="105.978" y="-395.3" font-family="Times,serif" font-size="14.00">created_at :datetime</text>
<text text-anchor="start" x="105.978" y="-381.3" font-family="Times,serif" font-size="14.00">updated_at :datetime</text>
<text text-anchor="start" x="105.978" y="-367.3" font-family="Times,serif" font-size="14.00">input_files_uploaded_at :datetime</text>
<text text-anchor="start" x="105.978" y="-353.3" font-family="Times,serif" font-size="14.00">outputs_generated_at :datetime</text>
<text text-anchor="start" x="105.978" y="-339.3" font-family="Times,serif" font-size="14.00">outputs_generation_info :text</text>
<text text-anchor="start" x="105.978" y="-325.3" font-family="Times,serif" font-size="14.00">outputs_generation_in_progress :tinyint(1)</text>
<text text-anchor="start" x="105.978" y="-311.3" font-family="Times,serif" font-size="14.00">id :int(11)</text>
</g>
<!-- Assignment&#45;&gt;Problem -->
<g id="edge4" class="edge"><title>Assignment&#45;&gt;Problem</title>
<path fill="none" stroke="#00a368" d="M288.841,-1041.29C281.394,-975.005 270.695,-878.422 261.932,-794 253.692,-714.626 244.978,-625.576 238.187,-554.901"/>
<polygon fill="#00a368" stroke="#00a368" points="288.844,-1041.32 285.489,-1051.76 289.402,-1046.28 289.961,-1051.25 289.961,-1051.25 289.961,-1051.25 289.402,-1046.28 294.433,-1050.75 288.844,-1041.32 288.844,-1041.32"/>
<polygon fill="#00a368" stroke="#00a368" points="238.155,-554.565 241.679,-544.181 237.677,-549.588 237.2,-544.611 237.2,-544.611 237.2,-544.611 237.677,-549.588 232.72,-545.041 238.155,-554.565 238.155,-554.565"/>
</g>
<!-- Course&#45;&gt;CourseAssignment -->
<g id="edge5" class="edge"><title>Course&#45;&gt;CourseAssignment</title>
<path fill="none" stroke="#0ae9f7" d="M566.136,-859.16C575.322,-848.381 584.623,-837.006 592.932,-826 610.339,-802.943 628.023,-776.399 642.72,-753.295"/>
<ellipse fill="none" stroke="#0ae9f7" cx="563.356" cy="-862.396" rx="4.00002" ry="4.00002"/>
<polygon fill="#0ae9f7" stroke="#0ae9f7" points="642.858,-753.077 652.004,-747.028 645.529,-748.851 648.2,-744.624 648.2,-744.624 648.2,-744.624 645.529,-748.851 644.396,-742.22 642.858,-753.077 642.858,-753.077"/>
</g>
<!-- CourseStudent -->
<g id="node6" class="node"><title>CourseStudent</title>
<path fill="none" stroke="black" d="M542.426,-374.5C542.426,-374.5 651.437,-374.5 651.437,-374.5 657.437,-374.5 663.437,-380.5 663.437,-386.5 663.437,-386.5 663.437,-462.5 663.437,-462.5 663.437,-468.5 657.437,-474.5 651.437,-474.5 651.437,-474.5 542.426,-474.5 542.426,-474.5 536.426,-474.5 530.426,-468.5 530.426,-462.5 530.426,-462.5 530.426,-386.5 530.426,-386.5 530.426,-380.5 536.426,-374.5 542.426,-374.5"/>
<text text-anchor="middle" x="596.932" y="-459.3" font-family="Times,serif" font-size="14.00">CourseStudent</text>
<polyline fill="none" stroke="black" points="530.426,-452.5 663.437,-452.5 "/>
<text text-anchor="start" x="538.426" y="-437.3" font-family="Times,serif" font-size="14.00">id :int(11)</text>
<text text-anchor="start" x="538.426" y="-423.3" font-family="Times,serif" font-size="14.00">user_id :int(11)</text>
<text text-anchor="start" x="538.426" y="-409.3" font-family="Times,serif" font-size="14.00">course_id :int(11)</text>
<text text-anchor="start" x="538.426" y="-395.3" font-family="Times,serif" font-size="14.00">created_at :datetime</text>
<text text-anchor="start" x="538.426" y="-381.3" font-family="Times,serif" font-size="14.00">updated_at :datetime</text>
</g>
<!-- Course&#45;&gt;CourseStudent -->
<g id="edge6" class="edge"><title>Course&#45;&gt;CourseStudent</title>
<path fill="none" stroke="#e2bbc0" d="M540.061,-857.496C547.54,-837.713 555.083,-815.178 559.932,-794 584.449,-686.92 592.721,-558.64 595.512,-485.148"/>
<ellipse fill="none" stroke="#e2bbc0" cx="538.528" cy="-861.485" rx="4.00001" ry="4.00001"/>
<polygon fill="#e2bbc0" stroke="#e2bbc0" points="595.528,-484.705 600.382,-474.872 595.706,-479.708 595.885,-474.711 595.885,-474.711 595.885,-474.711 595.706,-479.708 591.388,-474.551 595.528,-484.705 595.528,-484.705"/>
</g>
<!-- User -->
<g id="node18" class="node"><title>User</title>
<path fill="none" stroke="black" d="M283.33,-595.5C283.33,-595.5 454.534,-595.5 454.534,-595.5 460.534,-595.5 466.534,-601.5 466.534,-607.5 466.534,-607.5 466.534,-781.5 466.534,-781.5 466.534,-787.5 460.534,-793.5 454.534,-793.5 454.534,-793.5 283.33,-793.5 283.33,-793.5 277.33,-793.5 271.33,-787.5 271.33,-781.5 271.33,-781.5 271.33,-607.5 271.33,-607.5 271.33,-601.5 277.33,-595.5 283.33,-595.5"/>
<text text-anchor="middle" x="368.932" y="-778.3" font-family="Times,serif" font-size="14.00">User</text>
<polyline fill="none" stroke="black" points="271.33,-771.5 466.534,-771.5 "/>
<text text-anchor="start" x="279.33" y="-756.3" font-family="Times,serif" font-size="14.00">connection_token :varchar(255)</text>
<text text-anchor="start" x="279.33" y="-742.3" font-family="Times,serif" font-size="14.00">name :varchar(255)</text>
<text text-anchor="start" x="279.33" y="-728.3" font-family="Times,serif" font-size="14.00">email :varchar(255)</text>
<text text-anchor="start" x="279.33" y="-714.3" font-family="Times,serif" font-size="14.00">created_at :datetime</text>
<text text-anchor="start" x="279.33" y="-700.3" font-family="Times,serif" font-size="14.00">updated_at :datetime</text>
<text text-anchor="start" x="279.33" y="-686.3" font-family="Times,serif" font-size="14.00">password_digest :varchar(255)</text>
<text text-anchor="start" x="279.33" y="-672.3" font-family="Times,serif" font-size="14.00">remember_digest :varchar(255)</text>
<text text-anchor="start" x="279.33" y="-658.3" font-family="Times,serif" font-size="14.00">admin :tinyint(1)</text>
<text text-anchor="start" x="279.33" y="-644.3" font-family="Times,serif" font-size="14.00">activation_digest :varchar(255)</text>
<text text-anchor="start" x="279.33" y="-630.3" font-family="Times,serif" font-size="14.00">activated :tinyint(1)</text>
<text text-anchor="start" x="279.33" y="-616.3" font-family="Times,serif" font-size="14.00">activated_at :datetime</text>
<text text-anchor="start" x="279.33" y="-602.3" font-family="Times,serif" font-size="14.00">id :int(11)</text>
</g>
<!-- Course&#45;&gt;User -->
<g id="edge7" class="edge"><title>Course&#45;&gt;User</title>
<path fill="none" stroke="#4b2995" d="M504.903,-855.801C500.629,-840.885 494.804,-825.322 486.932,-812 482.721,-804.875 477.967,-797.88 472.847,-791.078"/>
<polygon fill="#4b2995" stroke="#4b2995" points="504.908,-855.82 503.147,-866.643 506.201,-860.65 507.494,-865.48 507.494,-865.48 507.494,-865.48 506.201,-860.65 511.84,-864.316 504.908,-855.82 504.908,-855.82"/>
<polygon fill="#4b2995" stroke="#4b2995" points="472.835,-791.063 470.222,-780.412 469.756,-787.123 466.677,-783.183 466.677,-783.183 466.677,-783.183 469.756,-787.123 463.131,-785.954 472.835,-791.063 472.835,-791.063"/>
</g>
<!-- Grader -->
<g id="node7" class="node"><title>Grader</title>
<path fill="none" stroke="black" d="M394.826,-1037.5C394.826,-1037.5 517.037,-1037.5 517.037,-1037.5 523.037,-1037.5 529.037,-1043.5 529.037,-1049.5 529.037,-1049.5 529.037,-1195.5 529.037,-1195.5 529.037,-1201.5 523.037,-1207.5 517.037,-1207.5 517.037,-1207.5 394.826,-1207.5 394.826,-1207.5 388.826,-1207.5 382.826,-1201.5 382.826,-1195.5 382.826,-1195.5 382.826,-1049.5 382.826,-1049.5 382.826,-1043.5 388.826,-1037.5 394.826,-1037.5"/>
<text text-anchor="middle" x="455.932" y="-1192.3" font-family="Times,serif" font-size="14.00">Grader</text>
<polyline fill="none" stroke="black" points="382.826,-1185.5 529.037,-1185.5 "/>
<text text-anchor="start" x="390.826" y="-1170.3" font-family="Times,serif" font-size="14.00">code :text</text>
<text text-anchor="start" x="390.826" y="-1156.3" font-family="Times,serif" font-size="14.00">time_limit :int(11)</text>
<text text-anchor="start" x="390.826" y="-1142.3" font-family="Times,serif" font-size="14.00">language :varchar(255)</text>
<text text-anchor="start" x="390.826" y="-1128.3" font-family="Times,serif" font-size="14.00">file_key :varchar(255)</text>
<text text-anchor="start" x="390.826" y="-1114.3" font-family="Times,serif" font-size="14.00">submission_id :int(11)</text>
<text text-anchor="start" x="390.826" y="-1100.3" font-family="Times,serif" font-size="14.00">problem_id :int(11)</text>
<text text-anchor="start" x="390.826" y="-1086.3" font-family="Times,serif" font-size="14.00">type :varchar(255)</text>
<text text-anchor="start" x="390.826" y="-1072.3" font-family="Times,serif" font-size="14.00">created_at :datetime</text>
<text text-anchor="start" x="390.826" y="-1058.3" font-family="Times,serif" font-size="14.00">updated_at :datetime</text>
<text text-anchor="start" x="390.826" y="-1044.3" font-family="Times,serif" font-size="14.00">id :int(11)</text>
</g>
<!-- InputFileUploader -->
<g id="node8" class="node"><title>InputFileUploader</title>
<path fill="none" stroke="black" d="M558.826,-1037.5C558.826,-1037.5 681.037,-1037.5 681.037,-1037.5 687.037,-1037.5 693.037,-1043.5 693.037,-1049.5 693.037,-1049.5 693.037,-1195.5 693.037,-1195.5 693.037,-1201.5 687.037,-1207.5 681.037,-1207.5 681.037,-1207.5 558.826,-1207.5 558.826,-1207.5 552.826,-1207.5 546.826,-1201.5 546.826,-1195.5 546.826,-1195.5 546.826,-1049.5 546.826,-1049.5 546.826,-1043.5 552.826,-1037.5 558.826,-1037.5"/>
<text text-anchor="middle" x="619.932" y="-1192.3" font-family="Times,serif" font-size="14.00">InputFileUploader</text>
<polyline fill="none" stroke="black" points="546.826,-1185.5 693.037,-1185.5 "/>
<text text-anchor="start" x="554.826" y="-1170.3" font-family="Times,serif" font-size="14.00">code :text</text>
<text text-anchor="start" x="554.826" y="-1156.3" font-family="Times,serif" font-size="14.00">time_limit :int(11)</text>
<text text-anchor="start" x="554.826" y="-1142.3" font-family="Times,serif" font-size="14.00">language :varchar(255)</text>
<text text-anchor="start" x="554.826" y="-1128.3" font-family="Times,serif" font-size="14.00">file_key :varchar(255)</text>
<text text-anchor="start" x="554.826" y="-1114.3" font-family="Times,serif" font-size="14.00">submission_id :int(11)</text>
<text text-anchor="start" x="554.826" y="-1100.3" font-family="Times,serif" font-size="14.00">problem_id :int(11)</text>
<text text-anchor="start" x="554.826" y="-1086.3" font-family="Times,serif" font-size="14.00">type :varchar(255)</text>
<text text-anchor="start" x="554.826" y="-1072.3" font-family="Times,serif" font-size="14.00">created_at :datetime</text>
<text text-anchor="start" x="554.826" y="-1058.3" font-family="Times,serif" font-size="14.00">updated_at :datetime</text>
<text text-anchor="start" x="554.826" y="-1044.3" font-family="Times,serif" font-size="14.00">id :int(11)</text>
</g>
<!-- OutputGenerator -->
<g id="node9" class="node"><title>OutputGenerator</title>
<path fill="none" stroke="black" d="M722.826,-1037.5C722.826,-1037.5 845.037,-1037.5 845.037,-1037.5 851.037,-1037.5 857.037,-1043.5 857.037,-1049.5 857.037,-1049.5 857.037,-1195.5 857.037,-1195.5 857.037,-1201.5 851.037,-1207.5 845.037,-1207.5 845.037,-1207.5 722.826,-1207.5 722.826,-1207.5 716.826,-1207.5 710.826,-1201.5 710.826,-1195.5 710.826,-1195.5 710.826,-1049.5 710.826,-1049.5 710.826,-1043.5 716.826,-1037.5 722.826,-1037.5"/>
<text text-anchor="middle" x="783.932" y="-1192.3" font-family="Times,serif" font-size="14.00">OutputGenerator</text>
<polyline fill="none" stroke="black" points="710.826,-1185.5 857.037,-1185.5 "/>
<text text-anchor="start" x="718.826" y="-1170.3" font-family="Times,serif" font-size="14.00">code :text</text>
<text text-anchor="start" x="718.826" y="-1156.3" font-family="Times,serif" font-size="14.00">time_limit :int(11)</text>
<text text-anchor="start" x="718.826" y="-1142.3" font-family="Times,serif" font-size="14.00">language :varchar(255)</text>
<text text-anchor="start" x="718.826" y="-1128.3" font-family="Times,serif" font-size="14.00">file_key :varchar(255)</text>
<text text-anchor="start" x="718.826" y="-1114.3" font-family="Times,serif" font-size="14.00">submission_id :int(11)</text>
<text text-anchor="start" x="718.826" y="-1100.3" font-family="Times,serif" font-size="14.00">problem_id :int(11)</text>
<text text-anchor="start" x="718.826" y="-1086.3" font-family="Times,serif" font-size="14.00">type :varchar(255)</text>
<text text-anchor="start" x="718.826" y="-1072.3" font-family="Times,serif" font-size="14.00">created_at :datetime</text>
<text text-anchor="start" x="718.826" y="-1058.3" font-family="Times,serif" font-size="14.00">updated_at :datetime</text>
<text text-anchor="start" x="718.826" y="-1044.3" font-family="Times,serif" font-size="14.00">id :int(11)</text>
</g>
<!-- Problem&#45;&gt;AssignmentProblem -->
<g id="edge8" class="edge"><title>Problem&#45;&gt;AssignmentProblem</title>
<path fill="none" stroke="#fb1ed6" d="M131.365,-297.817C125.476,-289.991 119.726,-282.349 114.259,-275.084"/>
<ellipse fill="none" stroke="#fb1ed6" cx="133.811" cy="-301.069" rx="4.00002" ry="4.00002"/>
<polygon fill="#fb1ed6" stroke="#fb1ed6" points="113.993,-274.731 111.577,-264.034 110.987,-270.735 107.981,-266.74 107.981,-266.74 107.981,-266.74 110.987,-270.735 104.385,-269.445 113.993,-274.731 113.993,-274.731"/>
</g>
<!-- TestCase -->
<g id="node16" class="node"><title>TestCase</title>
<path fill="none" stroke="black" d="M227.945,-0.5C227.945,-0.5 341.918,-0.5 341.918,-0.5 347.918,-0.5 353.918,-6.5 353.918,-12.5 353.918,-12.5 353.918,-116.5 353.918,-116.5 353.918,-122.5 347.918,-128.5 341.918,-128.5 341.918,-128.5 227.945,-128.5 227.945,-128.5 221.945,-128.5 215.945,-122.5 215.945,-116.5 215.945,-116.5 215.945,-12.5 215.945,-12.5 215.945,-6.5 221.945,-0.5 227.945,-0.5"/>
<text text-anchor="middle" x="284.932" y="-113.3" font-family="Times,serif" font-size="14.00">TestCase</text>
<polyline fill="none" stroke="black" points="215.945,-106.5 353.918,-106.5 "/>
<text text-anchor="start" x="223.945" y="-91.3" font-family="Times,serif" font-size="14.00">tc_index :int(11)</text>
<text text-anchor="start" x="223.945" y="-77.3" font-family="Times,serif" font-size="14.00">problem_id :int(11)</text>
<text text-anchor="start" x="223.945" y="-63.3" font-family="Times,serif" font-size="14.00">weight :int(11)</text>
<text text-anchor="start" x="223.945" y="-49.3" font-family="Times,serif" font-size="14.00">id :int(11)</text>
<text text-anchor="start" x="223.945" y="-35.3" font-family="Times,serif" font-size="14.00">created_at :datetime</text>
<text text-anchor="start" x="223.945" y="-21.3" font-family="Times,serif" font-size="14.00">updated_at :datetime</text>
<text text-anchor="start" x="223.945" y="-7.3" font-family="Times,serif" font-size="14.00">test_group_id :int(11)</text>
</g>
<!-- Problem&#45;&gt;TestCase -->
<g id="edge9" class="edge"><title>Problem&#45;&gt;TestCase</title>
<path fill="none" stroke="#89465d" d="M287.039,-296.428C290.18,-286.621 292.879,-276.744 294.932,-267 303.747,-225.156 301.879,-177.393 297.514,-138.875"/>
<ellipse fill="none" stroke="#89465d" cx="285.692" cy="-300.479" rx="4.00001" ry="4.00001"/>
<polygon fill="#89465d" stroke="#89465d" points="297.494,-138.708 300.757,-128.239 296.891,-133.744 296.289,-128.781 296.289,-128.781 296.289,-128.781 296.891,-133.744 291.822,-129.323 297.494,-138.708 297.494,-138.708"/>
</g>
<!-- TestGroup -->
<g id="node17" class="node"><title>TestGroup</title>
<path fill="none" stroke="black" d="M172.169,-180.5C172.169,-180.5 273.694,-180.5 273.694,-180.5 279.694,-180.5 285.694,-186.5 285.694,-192.5 285.694,-192.5 285.694,-240.5 285.694,-240.5 285.694,-246.5 279.694,-252.5 273.694,-252.5 273.694,-252.5 172.169,-252.5 172.169,-252.5 166.169,-252.5 160.169,-246.5 160.169,-240.5 160.169,-240.5 160.169,-192.5 160.169,-192.5 160.169,-186.5 166.169,-180.5 172.169,-180.5"/>
<text text-anchor="middle" x="222.932" y="-237.3" font-family="Times,serif" font-size="14.00">TestGroup</text>
<polyline fill="none" stroke="black" points="160.169,-230.5 285.694,-230.5 "/>
<text text-anchor="start" x="168.169" y="-215.3" font-family="Times,serif" font-size="14.00">id :int(11)</text>
<text text-anchor="start" x="168.169" y="-201.3" font-family="Times,serif" font-size="14.00">weight :int(11)</text>
<text text-anchor="start" x="168.169" y="-187.3" font-family="Times,serif" font-size="14.00">problem_id :int(11)</text>
</g>
<!-- Problem&#45;&gt;TestGroup -->
<g id="edge10" class="edge"><title>Problem&#45;&gt;TestGroup</title>
<path fill="none" stroke="#e532f6" d="M224.074,-295.923C223.903,-284.178 223.738,-272.885 223.59,-262.706"/>
<ellipse fill="none" stroke="#e532f6" cx="224.137" cy="-300.266" rx="4" ry="4"/>
<polygon fill="#e532f6" stroke="#e532f6" points="223.587,-262.528 227.941,-252.463 223.515,-257.528 223.442,-252.529 223.442,-252.529 223.442,-252.529 223.515,-257.528 218.942,-252.595 223.587,-262.528 223.587,-262.528"/>
</g>
<!-- Runner -->
<g id="node11" class="node"><title>Runner</title>
<path fill="none" stroke="black" d="M886.826,-1037.5C886.826,-1037.5 1009.04,-1037.5 1009.04,-1037.5 1015.04,-1037.5 1021.04,-1043.5 1021.04,-1049.5 1021.04,-1049.5 1021.04,-1195.5 1021.04,-1195.5 1021.04,-1201.5 1015.04,-1207.5 1009.04,-1207.5 1009.04,-1207.5 886.826,-1207.5 886.826,-1207.5 880.826,-1207.5 874.826,-1201.5 874.826,-1195.5 874.826,-1195.5 874.826,-1049.5 874.826,-1049.5 874.826,-1043.5 880.826,-1037.5 886.826,-1037.5"/>
<text text-anchor="middle" x="947.932" y="-1192.3" font-family="Times,serif" font-size="14.00">Runner</text>
<polyline fill="none" stroke="black" points="874.826,-1185.5 1021.04,-1185.5 "/>
<text text-anchor="start" x="882.826" y="-1170.3" font-family="Times,serif" font-size="14.00">code :text</text>
<text text-anchor="start" x="882.826" y="-1156.3" font-family="Times,serif" font-size="14.00">time_limit :int(11)</text>
<text text-anchor="start" x="882.826" y="-1142.3" font-family="Times,serif" font-size="14.00">language :varchar(255)</text>
<text text-anchor="start" x="882.826" y="-1128.3" font-family="Times,serif" font-size="14.00">file_key :varchar(255)</text>
<text text-anchor="start" x="882.826" y="-1114.3" font-family="Times,serif" font-size="14.00">submission_id :int(11)</text>
<text text-anchor="start" x="882.826" y="-1100.3" font-family="Times,serif" font-size="14.00">problem_id :int(11)</text>
<text text-anchor="start" x="882.826" y="-1086.3" font-family="Times,serif" font-size="14.00">type :varchar(255)</text>
<text text-anchor="start" x="882.826" y="-1072.3" font-family="Times,serif" font-size="14.00">created_at :datetime</text>
<text text-anchor="start" x="882.826" y="-1058.3" font-family="Times,serif" font-size="14.00">updated_at :datetime</text>
<text text-anchor="start" x="882.826" y="-1044.3" font-family="Times,serif" font-size="14.00">id :int(11)</text>
</g>
<!-- StudentPortal::ProblemSolution -->
<g id="node12" class="node"><title>StudentPortal::ProblemSolution</title>
<path fill="none" stroke="black" d="M1051.48,-1037.5C1051.48,-1037.5 1222.38,-1037.5 1222.38,-1037.5 1228.38,-1037.5 1234.38,-1043.5 1234.38,-1049.5 1234.38,-1049.5 1234.38,-1195.5 1234.38,-1195.5 1234.38,-1201.5 1228.38,-1207.5 1222.38,-1207.5 1222.38,-1207.5 1051.48,-1207.5 1051.48,-1207.5 1045.48,-1207.5 1039.48,-1201.5 1039.48,-1195.5 1039.48,-1195.5 1039.48,-1049.5 1039.48,-1049.5 1039.48,-1043.5 1045.48,-1037.5 1051.48,-1037.5"/>
<text text-anchor="middle" x="1136.93" y="-1192.3" font-family="Times,serif" font-size="14.00">StudentPortal::ProblemSolution</text>
<polyline fill="none" stroke="black" points="1039.48,-1185.5 1234.38,-1185.5 "/>
<text text-anchor="start" x="1047.48" y="-1170.3" font-family="Times,serif" font-size="14.00">status :int(11)</text>
<text text-anchor="start" x="1047.48" y="-1156.3" font-family="Times,serif" font-size="14.00">user_id :int(11)</text>
<text text-anchor="start" x="1047.48" y="-1142.3" font-family="Times,serif" font-size="14.00">course_id :int(11)</text>
<text text-anchor="start" x="1047.48" y="-1128.3" font-family="Times,serif" font-size="14.00">assignment_id :int(11)</text>
<text text-anchor="start" x="1047.48" y="-1114.3" font-family="Times,serif" font-size="14.00">problem_id :int(11)</text>
<text text-anchor="start" x="1047.48" y="-1100.3" font-family="Times,serif" font-size="14.00">code :text</text>
<text text-anchor="start" x="1047.48" y="-1086.3" font-family="Times,serif" font-size="14.00">created_at :datetime</text>
<text text-anchor="start" x="1047.48" y="-1072.3" font-family="Times,serif" font-size="14.00">updated_at :datetime</text>
<text text-anchor="start" x="1047.48" y="-1058.3" font-family="Times,serif" font-size="14.00">grade :float</text>
<text text-anchor="start" x="1047.48" y="-1044.3" font-family="Times,serif" font-size="14.00">id :int(11)</text>
</g>
<!-- StudentPortal::Submission -->
<g id="node13" class="node"><title>StudentPortal::Submission</title>
<path fill="none" stroke="black" d="M1060.11,-844.5C1060.11,-844.5 1213.75,-844.5 1213.75,-844.5 1219.75,-844.5 1225.75,-850.5 1225.75,-856.5 1225.75,-856.5 1225.75,-974.5 1225.75,-974.5 1225.75,-980.5 1219.75,-986.5 1213.75,-986.5 1213.75,-986.5 1060.11,-986.5 1060.11,-986.5 1054.11,-986.5 1048.11,-980.5 1048.11,-974.5 1048.11,-974.5 1048.11,-856.5 1048.11,-856.5 1048.11,-850.5 1054.11,-844.5 1060.11,-844.5"/>
<text text-anchor="middle" x="1136.93" y="-971.3" font-family="Times,serif" font-size="14.00">StudentPortal::Submission</text>
<polyline fill="none" stroke="black" points="1048.11,-964.5 1225.75,-964.5 "/>
<text text-anchor="start" x="1056.11" y="-949.3" font-family="Times,serif" font-size="14.00">grade :float</text>
<text text-anchor="start" x="1056.11" y="-935.3" font-family="Times,serif" font-size="14.00">language :varchar(255)</text>
<text text-anchor="start" x="1056.11" y="-921.3" font-family="Times,serif" font-size="14.00">status :int(11)</text>
<text text-anchor="start" x="1056.11" y="-907.3" font-family="Times,serif" font-size="14.00">problem_solution_id :int(11)</text>
<text text-anchor="start" x="1056.11" y="-893.3" font-family="Times,serif" font-size="14.00">created_at :datetime</text>
<text text-anchor="start" x="1056.11" y="-879.3" font-family="Times,serif" font-size="14.00">updated_at :datetime</text>
<text text-anchor="start" x="1056.11" y="-865.3" font-family="Times,serif" font-size="14.00">info :varchar(255)</text>
<text text-anchor="start" x="1056.11" y="-851.3" font-family="Times,serif" font-size="14.00">id :int(11)</text>
</g>
<!-- StudentPortal::ProblemSolution&#45;&gt;StudentPortal::Submission -->
<g id="edge11" class="edge"><title>StudentPortal::ProblemSolution&#45;&gt;StudentPortal::Submission</title>
<path fill="none" stroke="#3299ee" d="M1136.93,-1028.92C1136.93,-1018.18 1136.93,-1007.29 1136.93,-996.736"/>
<ellipse fill="none" stroke="#3299ee" cx="1136.93" cy="-1033.23" rx="4" ry="4"/>
<polygon fill="#3299ee" stroke="#3299ee" points="1136.93,-996.731 1141.43,-986.731 1136.93,-991.731 1136.93,-986.731 1136.93,-986.731 1136.93,-986.731 1136.93,-991.731 1132.43,-986.731 1136.93,-996.731 1136.93,-996.731"/>
<text text-anchor="middle" x="1171.16" y="-1007.8" font-family="Times,serif" font-size="14.00">submissions</text>
</g>
<!-- StudentPortal -->
<g id="node14" class="node"><title>StudentPortal</title>
<polygon fill="none" stroke="black" stroke-dasharray="1,5" points="1345.15,-1140.5 1252.71,-1140.5 1252.71,-1104.5 1345.15,-1104.5 1345.15,-1140.5"/>
<text text-anchor="middle" x="1298.93" y="-1118.3" font-family="Times,serif" font-size="14.00">StudentPortal</text>
</g>
<!-- Task -->
<g id="node15" class="node"><title>Task</title>
<path fill="none" stroke="black" d="M1374.83,-1037.5C1374.83,-1037.5 1497.04,-1037.5 1497.04,-1037.5 1503.04,-1037.5 1509.04,-1043.5 1509.04,-1049.5 1509.04,-1049.5 1509.04,-1195.5 1509.04,-1195.5 1509.04,-1201.5 1503.04,-1207.5 1497.04,-1207.5 1497.04,-1207.5 1374.83,-1207.5 1374.83,-1207.5 1368.83,-1207.5 1362.83,-1201.5 1362.83,-1195.5 1362.83,-1195.5 1362.83,-1049.5 1362.83,-1049.5 1362.83,-1043.5 1368.83,-1037.5 1374.83,-1037.5"/>
<text text-anchor="middle" x="1435.93" y="-1192.3" font-family="Times,serif" font-size="14.00">Task</text>
<polyline fill="none" stroke="black" points="1362.83,-1185.5 1509.04,-1185.5 "/>
<text text-anchor="start" x="1370.83" y="-1170.3" font-family="Times,serif" font-size="14.00">code :text</text>
<text text-anchor="start" x="1370.83" y="-1156.3" font-family="Times,serif" font-size="14.00">time_limit :int(11)</text>
<text text-anchor="start" x="1370.83" y="-1142.3" font-family="Times,serif" font-size="14.00">language :varchar(255)</text>
<text text-anchor="start" x="1370.83" y="-1128.3" font-family="Times,serif" font-size="14.00">file_key :varchar(255)</text>
<text text-anchor="start" x="1370.83" y="-1114.3" font-family="Times,serif" font-size="14.00">submission_id :int(11)</text>
<text text-anchor="start" x="1370.83" y="-1100.3" font-family="Times,serif" font-size="14.00">problem_id :int(11)</text>
<text text-anchor="start" x="1370.83" y="-1086.3" font-family="Times,serif" font-size="14.00">type :varchar(255)</text>
<text text-anchor="start" x="1370.83" y="-1072.3" font-family="Times,serif" font-size="14.00">created_at :datetime</text>
<text text-anchor="start" x="1370.83" y="-1058.3" font-family="Times,serif" font-size="14.00">updated_at :datetime</text>
<text text-anchor="start" x="1370.83" y="-1044.3" font-family="Times,serif" font-size="14.00">id :int(11)</text>
</g>
<!-- TestGroup&#45;&gt;TestCase -->
<g id="edge12" class="edge"><title>TestGroup&#45;&gt;TestCase</title>
<path fill="none" stroke="#de99b9" d="M240.544,-172.89C245.03,-162.037 249.979,-150.063 254.896,-138.167"/>
<ellipse fill="none" stroke="#de99b9" cx="238.996" cy="-176.635" rx="4.00002" ry="4.00002"/>
<polygon fill="#de99b9" stroke="#de99b9" points="255.003,-137.909 262.981,-130.386 256.913,-133.288 258.823,-128.667 258.823,-128.667 258.823,-128.667 256.913,-133.288 254.664,-126.948 255.003,-137.909 255.003,-137.909"/>
</g>
<!-- User&#45;&gt;Assignment -->
<g id="edge14" class="edge"><title>User&#45;&gt;Assignment</title>
<path fill="none" stroke="#28ec53" d="M318.637,-801.453C313.609,-815.507 309.236,-829.925 306.166,-844 291.926,-909.278 290.693,-985.228 292.557,-1041.15"/>
<ellipse fill="none" stroke="#28ec53" cx="320.112" cy="-797.441" rx="4.00001" ry="4.00001"/>
<polygon fill="#28ec53" stroke="#28ec53" points="292.564,-1041.36 288.441,-1051.52 292.751,-1046.36 292.938,-1051.35 292.938,-1051.35 292.938,-1051.35 292.751,-1046.36 297.435,-1051.19 292.564,-1041.36 292.564,-1041.36"/>
<text text-anchor="middle" x="373.814" y="-911.3" font-family="Times,serif" font-size="14.00">assignment_ownerships</text>
</g>
<!-- User&#45;&gt;Course -->
<g id="edge15" class="edge"><title>User&#45;&gt;Course</title>
<path fill="none" stroke="#2e60bb" d="M363.003,-801.559C365.798,-810.371 369.876,-818.688 375.621,-826 392.904,-847.995 411.467,-830.437 435.932,-844 443.779,-848.35 451.523,-853.581 458.921,-859.202"/>
<ellipse fill="none" stroke="#2e60bb" cx="361.916" cy="-797.561" rx="4.00001" ry="4.00001"/>
<polygon fill="#2e60bb" stroke="#2e60bb" points="458.956,-859.23 464.01,-868.961 462.878,-862.331 466.801,-865.431 466.801,-865.431 466.801,-865.431 462.878,-862.331 469.592,-861.901 458.956,-859.23 458.956,-859.23"/>
<text text-anchor="middle" x="429.587" y="-814.8" font-family="Times,serif" font-size="14.00">course_ownerships</text>
</g>
<!-- User&#45;&gt;CourseStudent -->
<g id="edge13" class="edge"><title>User&#45;&gt;CourseStudent</title>
<path fill="none" stroke="#5f9df5" d="M472.601,-598.603C489.463,-581.401 506.206,-563.144 520.932,-545 536.385,-525.959 551.333,-503.615 563.824,-483.433"/>
<ellipse fill="none" stroke="#5f9df5" cx="469.692" cy="-601.549" rx="4.00002" ry="4.00002"/>
<polygon fill="#5f9df5" stroke="#5f9df5" points="563.987,-483.166 573.042,-476.979 566.595,-478.899 569.202,-474.633 569.202,-474.633 569.202,-474.633 566.595,-478.899 565.362,-472.286 563.987,-483.166 563.987,-483.166"/>
</g>
<!-- User&#45;&gt;Problem -->
<g id="edge16" class="edge"><title>User&#45;&gt;Problem</title>
<path fill="none" stroke="#61271c" d="M302.864,-588.502C300.685,-584.639 298.559,-580.796 296.504,-577 292.44,-569.491 288.378,-561.707 284.371,-553.81"/>
<ellipse fill="none" stroke="#61271c" cx="304.856" cy="-591.998" rx="4.00002" ry="4.00002"/>
<polygon fill="#61271c" stroke="#61271c" points="284.361,-553.79 283.894,-542.834 282.117,-549.322 279.873,-544.854 279.873,-544.854 279.873,-544.854 282.117,-549.322 275.852,-546.874 284.361,-553.79 284.361,-553.79"/>
<text text-anchor="middle" x="355.646" y="-565.8" font-family="Times,serif" font-size="14.00">problem_ownerships</text>
</g>
<!-- User&#45;&gt;User -->
<g id="edge18" class="edge"><title>User&#45;&gt;User</title>
<path fill="none" stroke="#c0458d" d="M476.046,-709.496C481.386,-705.763 484.534,-700.765 484.534,-694.5 484.534,-688.235 481.386,-683.237 476.046,-679.504"/>
<polygon fill="#c0458d" stroke="#c0458d" points="475.737,-709.648 464.777,-710.02 471.25,-711.853 466.763,-714.059 466.763,-714.059 466.763,-714.059 471.25,-711.853 468.748,-718.098 475.737,-709.648 475.737,-709.648"/>
<polygon fill="#c0458d" stroke="#c0458d" points="475.737,-679.352 468.748,-670.902 471.25,-677.147 466.763,-674.941 466.763,-674.941 466.763,-674.941 471.25,-677.147 464.777,-678.98 475.737,-679.352 475.737,-679.352"/>
<text text-anchor="middle" x="517.968" y="-690.3" font-family="Times,serif" font-size="14.00">connections</text>
</g>
<!-- UserConnection -->
<g id="node19" class="node"><title>UserConnection</title>
<path fill="none" stroke="black" d="M383.786,-374.5C383.786,-374.5 500.077,-374.5 500.077,-374.5 506.077,-374.5 512.077,-380.5 512.077,-386.5 512.077,-386.5 512.077,-462.5 512.077,-462.5 512.077,-468.5 506.077,-474.5 500.077,-474.5 500.077,-474.5 383.786,-474.5 383.786,-474.5 377.786,-474.5 371.786,-468.5 371.786,-462.5 371.786,-462.5 371.786,-386.5 371.786,-386.5 371.786,-380.5 377.786,-374.5 383.786,-374.5"/>
<text text-anchor="middle" x="441.932" y="-459.3" font-family="Times,serif" font-size="14.00">UserConnection</text>
<polyline fill="none" stroke="black" points="371.786,-452.5 512.077,-452.5 "/>
<text text-anchor="start" x="379.786" y="-437.3" font-family="Times,serif" font-size="14.00">id :int(11)</text>
<text text-anchor="start" x="379.786" y="-423.3" font-family="Times,serif" font-size="14.00">user_id :int(11)</text>
<text text-anchor="start" x="379.786" y="-409.3" font-family="Times,serif" font-size="14.00">connection_id :int(11)</text>
<text text-anchor="start" x="379.786" y="-395.3" font-family="Times,serif" font-size="14.00">created_at :datetime</text>
<text text-anchor="start" x="379.786" y="-381.3" font-family="Times,serif" font-size="14.00">updated_at :datetime</text>
</g>
<!-- User&#45;&gt;UserConnection -->
<g id="edge17" class="edge"><title>User&#45;&gt;UserConnection</title>
<path fill="none" stroke="#05e198" d="M414.747,-587.517C415.875,-583.989 416.941,-580.477 417.932,-577 426.447,-547.12 432.186,-513.008 435.91,-484.727"/>
<ellipse fill="none" stroke="#05e198" cx="413.441" cy="-591.461" rx="4.00001" ry="4.00001"/>
<polygon fill="#05e198" stroke="#05e198" points="435.937,-484.512 441.656,-475.156 436.565,-479.551 437.192,-474.591 437.192,-474.591 437.192,-474.591 436.565,-479.551 432.728,-474.026 435.937,-484.512 435.937,-484.512"/>
</g>
</g>
</svg>
