<?xml version="1.0" encoding="UTF-8" standalone="no"?>
<!DOCTYPE svg PUBLIC "-//W3C//DTD SVG 1.1//EN"
 "http://www.w3.org/Graphics/SVG/1.1/DTD/svg11.dtd">
<!-- Generated by graphviz version 2.38.0 (20140413.2041)
 -->
<!-- Title: models_diagram Pages: 1 -->
<svg width="1442pt" height="485pt"
 viewBox="0.00 0.00 1441.69 485.00" xmlns="http://www.w3.org/2000/svg" xmlns:xlink="http://www.w3.org/1999/xlink">
<g id="graph0" class="graph" transform="scale(1 1) rotate(0) translate(4 481)">
<title>models_diagram</title>
<polygon fill="none" stroke="none" points="-4,4 -4,-481 1437.69,-481 1437.69,4 -4,4"/>
<!-- _diagram_info -->
<g id="node1" class="node"><title>_diagram_info</title>
<text text-anchor="start" x="8" y="-462.6" font-family="Times,serif" font-size="13.00">Models diagram</text>
<text text-anchor="start" x="8" y="-449.6" font-family="Times,serif" font-size="13.00">Date: Oct 16 2016 &#45; 16:28</text>
<text text-anchor="start" x="8" y="-436.6" font-family="Times,serif" font-size="13.00">Migration version: 20161005020206</text>
<text text-anchor="start" x="8" y="-423.6" font-family="Times,serif" font-size="13.00">Generated by RailRoady 1.5.2</text>
<text text-anchor="start" x="8" y="-410.6" font-family="Times,serif" font-size="13.00">http://railroady.prestonlee.com</text>
</g>
<!-- Assignment -->
<g id="node2" class="node"><title>Assignment</title>
<ellipse fill="none" stroke="black" cx="277.688" cy="-440.5" rx="52.2192" ry="18"/>
<text text-anchor="middle" x="277.688" y="-436.3" font-family="Times,serif" font-size="14.00">Assignment</text>
</g>
<!-- AssignmentProblem -->
<g id="node3" class="node"><title>AssignmentProblem</title>
<ellipse fill="none" stroke="black" cx="138.688" cy="-91" rx="82.1544" ry="18"/>
<text text-anchor="middle" x="138.688" y="-86.8" font-family="Times,serif" font-size="14.00">AssignmentProblem</text>
</g>
<!-- Assignment&#45;&gt;AssignmentProblem -->
<g id="edge3" class="edge"><title>Assignment&#45;&gt;AssignmentProblem</title>
<path fill="none" stroke="#d96797" d="M247.796,-419.433C209.69,-393.335 148.688,-349.589 148.688,-337 148.688,-337 148.688,-337 148.688,-163 148.688,-148.365 146.579,-132.197 144.298,-118.991"/>
<ellipse fill="none" stroke="#d96797" cx="251.32" cy="-421.836" rx="4.00002" ry="4.00002"/>
<polygon fill="#d96797" stroke="#d96797" points="144.291,-118.954 146.893,-108.301 143.379,-114.038 142.468,-109.121 142.468,-109.121 142.468,-109.121 143.379,-114.038 138.044,-109.941 144.291,-118.954 144.291,-118.954"/>
</g>
<!-- Course -->
<g id="node4" class="node"><title>Course</title>
<ellipse fill="none" stroke="black" cx="464.688" cy="-336" rx="35.3216" ry="18"/>
<text text-anchor="middle" x="464.688" y="-331.8" font-family="Times,serif" font-size="14.00">Course</text>
</g>
<!-- Assignment&#45;&gt;Course -->
<g id="edge2" class="edge"><title>Assignment&#45;&gt;Course</title>
<path fill="none" stroke="#f4e63c" d="M311.632,-419.437C320.407,-414.335 329.867,-408.909 338.688,-404 370.115,-386.508 406.417,-367.309 431.96,-353.964"/>
<polygon fill="#f4e63c" stroke="#f4e63c" points="311.425,-419.557 300.521,-420.715 307.108,-422.079 302.79,-424.601 302.79,-424.601 302.79,-424.601 307.108,-422.079 305.06,-428.487 311.425,-419.557 311.425,-419.557"/>
<polygon fill="#f4e63c" stroke="#f4e63c" points="431.987,-353.95 442.935,-353.317 436.421,-351.638 440.854,-349.326 440.854,-349.326 440.854,-349.326 436.421,-351.638 438.774,-345.336 431.987,-353.95 431.987,-353.95"/>
</g>
<!-- CourseAssignment -->
<g id="node5" class="node"><title>CourseAssignment</title>
<ellipse fill="none" stroke="black" cx="581.688" cy="-250" rx="77.3261" ry="18"/>
<text text-anchor="middle" x="581.688" y="-245.8" font-family="Times,serif" font-size="14.00">CourseAssignment</text>
</g>
<!-- Assignment&#45;&gt;CourseAssignment -->
<g id="edge1" class="edge"><title>Assignment&#45;&gt;CourseAssignment</title>
<path fill="none" stroke="#cb2b84" d="M307.831,-420.028C317.441,-414.352 328.284,-408.479 338.688,-404 411.024,-372.856 444.597,-399.769 508.688,-354 536.435,-334.185 557.417,-300.417 569.609,-276.971"/>
<ellipse fill="none" stroke="#cb2b84" cx="304.175" cy="-422.236" rx="4.00002" ry="4.00002"/>
<polygon fill="#cb2b84" stroke="#cb2b84" points="569.659,-276.87 578.165,-269.949 571.901,-272.401 574.142,-267.931 574.142,-267.931 574.142,-267.931 571.901,-272.401 570.12,-265.914 569.659,-276.87 569.659,-276.87"/>
</g>
<!-- Problem -->
<g id="node11" class="node"><title>Problem</title>
<ellipse fill="none" stroke="black" cx="229.688" cy="-164" rx="40.149" ry="18"/>
<text text-anchor="middle" x="229.688" y="-159.8" font-family="Times,serif" font-size="14.00">Problem</text>
</g>
<!-- Assignment&#45;&gt;Problem -->
<g id="edge4" class="edge"><title>Assignment&#45;&gt;Problem</title>
<path fill="none" stroke="#e0e01e" d="M268.177,-412.875C253.828,-371.147 227.3,-287.507 217.688,-214 216.881,-207.83 216.665,-206.138 217.688,-200 218.147,-197.244 218.797,-194.414 219.559,-191.614"/>
<polygon fill="#e0e01e" stroke="#e0e01e" points="268.257,-413.105 267.295,-424.029 269.901,-417.827 271.545,-422.549 271.545,-422.549 271.545,-422.549 269.901,-417.827 275.794,-421.07 268.257,-413.105 268.257,-413.105"/>
<polygon fill="#e0e01e" stroke="#e0e01e" points="219.649,-191.33 226.962,-183.158 221.161,-186.564 222.673,-181.798 222.673,-181.798 222.673,-181.798 221.161,-186.564 218.383,-180.437 219.649,-191.33 219.649,-191.33"/>
</g>
<!-- Course&#45;&gt;CourseAssignment -->
<g id="edge5" class="edge"><title>Course&#45;&gt;CourseAssignment</title>
<path fill="none" stroke="#4c97a7" d="M490.874,-316.2C508.568,-303.497 532.008,-286.668 550.642,-273.289"/>
<ellipse fill="none" stroke="#4c97a7" cx="487.52" cy="-318.607" rx="4.00002" ry="4.00002"/>
<polygon fill="#4c97a7" stroke="#4c97a7" points="550.704,-273.245 561.452,-271.068 554.766,-270.329 558.827,-267.413 558.827,-267.413 558.827,-267.413 554.766,-270.329 556.203,-263.757 550.704,-273.245 550.704,-273.245"/>
</g>
<!-- CourseStudent -->
<g id="node6" class="node"><title>CourseStudent</title>
<ellipse fill="none" stroke="black" cx="506.688" cy="-164" rx="62.3667" ry="18"/>
<text text-anchor="middle" x="506.688" y="-159.8" font-family="Times,serif" font-size="14.00">CourseStudent</text>
</g>
<!-- Course&#45;&gt;CourseStudent -->
<g id="edge6" class="edge"><title>Course&#45;&gt;CourseStudent</title>
<path fill="none" stroke="#e1e2d0" d="M470.805,-310.24C478.6,-278.688 492.023,-224.355 500.057,-191.84"/>
<ellipse fill="none" stroke="#e1e2d0" cx="469.828" cy="-314.195" rx="4.00001" ry="4.00001"/>
<polygon fill="#e1e2d0" stroke="#e1e2d0" points="500.063,-191.814 506.83,-183.185 501.262,-186.96 502.462,-182.106 502.462,-182.106 502.462,-182.106 501.262,-186.96 498.093,-181.026 500.063,-191.814 500.063,-191.814"/>
</g>
<!-- User -->
<g id="node19" class="node"><title>User</title>
<ellipse fill="none" stroke="black" cx="333.688" cy="-250" rx="27" ry="18"/>
<text text-anchor="middle" x="333.688" y="-245.8" font-family="Times,serif" font-size="14.00">User</text>
</g>
<!-- Course&#45;&gt;User -->
<g id="edge7" class="edge"><title>Course&#45;&gt;User</title>
<path fill="none" stroke="#7c357e" d="M454.658,-308.589C450.466,-300.417 444.867,-291.997 437.688,-286 418.502,-269.974 391.661,-261.182 370.052,-256.418"/>
<polygon fill="#7c357e" stroke="#7c357e" points="454.765,-308.821 454.854,-319.786 456.853,-313.364 458.942,-317.906 458.942,-317.906 458.942,-317.906 456.853,-313.364 463.031,-316.026 454.765,-308.821 454.765,-308.821"/>
<polygon fill="#7c357e" stroke="#7c357e" points="370.035,-256.414 361.117,-250.033 365.133,-255.429 360.231,-254.445 360.231,-254.445 360.231,-254.445 365.133,-255.429 359.344,-258.856 370.035,-256.414 370.035,-256.414"/>
</g>
<!-- Grader -->
<g id="node7" class="node"><title>Grader</title>
<ellipse fill="none" stroke="black" cx="382.688" cy="-440.5" rx="34.8111" ry="18"/>
<text text-anchor="middle" x="382.688" y="-436.3" font-family="Times,serif" font-size="14.00">Grader</text>
</g>
<!-- InputFileUploader -->
<g id="node8" class="node"><title>InputFileUploader</title>
<ellipse fill="none" stroke="black" cx="510.688" cy="-440.5" rx="75.3707" ry="18"/>
<text text-anchor="middle" x="510.688" y="-436.3" font-family="Times,serif" font-size="14.00">InputFileUploader</text>
</g>
<!-- InputFileViewer -->
<g id="node9" class="node"><title>InputFileViewer</title>
<ellipse fill="none" stroke="black" cx="671.688" cy="-440.5" rx="68.0596" ry="18"/>
<text text-anchor="middle" x="671.688" y="-436.3" font-family="Times,serif" font-size="14.00">InputFileViewer</text>
</g>
<!-- OutputGenerator -->
<g id="node10" class="node"><title>OutputGenerator</title>
<ellipse fill="none" stroke="black" cx="827.688" cy="-440.5" rx="70.0495" ry="18"/>
<text text-anchor="middle" x="827.688" y="-436.3" font-family="Times,serif" font-size="14.00">OutputGenerator</text>
</g>
<!-- Problem&#45;&gt;AssignmentProblem -->
<g id="edge8" class="edge"><title>Problem&#45;&gt;AssignmentProblem</title>
<path fill="none" stroke="#125254" d="M203.835,-142.829C192.642,-134.096 179.487,-123.832 167.939,-114.822"/>
<ellipse fill="none" stroke="#125254" cx="207.235" cy="-145.482" rx="4.00002" ry="4.00002"/>
<polygon fill="#125254" stroke="#125254" points="167.75,-114.675 162.633,-104.975 163.807,-111.599 159.865,-108.523 159.865,-108.523 159.865,-108.523 163.807,-111.599 157.097,-112.071 167.75,-114.675 167.75,-114.675"/>
</g>
<!-- TestCase -->
<g id="node17" class="node"><title>TestCase</title>
<ellipse fill="none" stroke="black" cx="336.688" cy="-18" rx="41.8108" ry="18"/>
<text text-anchor="middle" x="336.688" y="-13.8" font-family="Times,serif" font-size="14.00">TestCase</text>
</g>
<!-- Problem&#45;&gt;TestCase -->
<g id="edge9" class="edge"><title>Problem&#45;&gt;TestCase</title>
<path fill="none" stroke="#dbc665" d="M268.323,-149.6C297.556,-138.587 334.092,-122.634 342.688,-109 354.51,-90.2479 351.423,-64.7151 346.301,-45.6343"/>
<ellipse fill="none" stroke="#dbc665" cx="264.437" cy="-151.04" rx="4.00001" ry="4.00001"/>
<polygon fill="#dbc665" stroke="#dbc665" points="346.298,-45.6245 347.725,-34.7519 344.857,-40.8365 343.416,-36.0486 343.416,-36.0486 343.416,-36.0486 344.857,-40.8365 339.107,-37.3453 346.298,-45.6245 346.298,-45.6245"/>
</g>
<!-- TestGroup -->
<g id="node18" class="node"><title>TestGroup</title>
<ellipse fill="none" stroke="black" cx="286.688" cy="-91" rx="47.1239" ry="18"/>
<text text-anchor="middle" x="286.688" y="-86.8" font-family="Times,serif" font-size="14.00">TestGroup</text>
</g>
<!-- Problem&#45;&gt;TestGroup -->
<g id="edge10" class="edge"><title>Problem&#45;&gt;TestGroup</title>
<path fill="none" stroke="#028667" d="M247.846,-140.382C253.942,-132.788 260.768,-124.286 266.977,-116.551"/>
<ellipse fill="none" stroke="#028667" cx="245.126" cy="-143.77" rx="4.00002" ry="4.00002"/>
<polygon fill="#028667" stroke="#028667" points="267.149,-116.338 276.918,-111.357 270.279,-112.439 273.409,-108.54 273.409,-108.54 273.409,-108.54 270.279,-112.439 269.9,-105.723 267.149,-116.338 267.149,-116.338"/>
</g>
<!-- Runner -->
<g id="node12" class="node"><title>Runner</title>
<ellipse fill="none" stroke="black" cx="951.688" cy="-440.5" rx="36.2818" ry="18"/>
<text text-anchor="middle" x="951.688" y="-436.3" font-family="Times,serif" font-size="14.00">Runner</text>
</g>
<!-- StudentPortal::ProblemSolution -->
<g id="node13" class="node"><title>StudentPortal::ProblemSolution</title>
<ellipse fill="none" stroke="black" cx="1128.69" cy="-440.5" rx="123.223" ry="18"/>
<text text-anchor="middle" x="1128.69" y="-436.3" font-family="Times,serif" font-size="14.00">StudentPortal::ProblemSolution</text>
</g>
<!-- StudentPortal::Submission -->
<g id="node14" class="node"><title>StudentPortal::Submission</title>
<ellipse fill="none" stroke="black" cx="1128.69" cy="-336" rx="104.397" ry="18"/>
<text text-anchor="middle" x="1128.69" y="-331.8" font-family="Times,serif" font-size="14.00">StudentPortal::Submission</text>
</g>
<!-- StudentPortal::ProblemSolution&#45;&gt;StudentPortal::Submission -->
<g id="edge11" class="edge"><title>StudentPortal::ProblemSolution&#45;&gt;StudentPortal::Submission</title>
<path fill="none" stroke="#0be123" d="M1128.69,-414.017C1128.69,-398.986 1128.69,-379.959 1128.69,-364.577"/>
<ellipse fill="none" stroke="#0be123" cx="1128.69" cy="-418.112" rx="4" ry="4"/>
<polygon fill="#0be123" stroke="#0be123" points="1128.69,-364.131 1133.19,-354.131 1128.69,-359.131 1128.69,-354.131 1128.69,-354.131 1128.69,-354.131 1128.69,-359.131 1124.19,-354.131 1128.69,-364.131 1128.69,-364.131"/>
<text text-anchor="middle" x="1162.92" y="-374.8" font-family="Times,serif" font-size="14.00">submissions</text>
</g>
<!-- StudentPortal -->
<g id="node15" class="node"><title>StudentPortal</title>
<polygon fill="none" stroke="black" stroke-dasharray="1,5" points="1361.91,-458.5 1269.47,-458.5 1269.47,-422.5 1361.91,-422.5 1361.91,-458.5"/>
<text text-anchor="middle" x="1315.69" y="-436.3" font-family="Times,serif" font-size="14.00">StudentPortal</text>
</g>
<!-- Task -->
<g id="node16" class="node"><title>Task</title>
<ellipse fill="none" stroke="black" cx="1406.69" cy="-440.5" rx="27" ry="18"/>
<text text-anchor="middle" x="1406.69" y="-436.3" font-family="Times,serif" font-size="14.00">Task</text>
</g>
<!-- TestGroup&#45;&gt;TestCase -->
<g id="edge12" class="edge"><title>TestGroup&#45;&gt;TestCase</title>
<path fill="none" stroke="#d3b378" d="M303.073,-66.7335C308.261,-59.3658 314.014,-51.1971 319.272,-43.7305"/>
<ellipse fill="none" stroke="#d3b378" cx="300.588" cy="-70.2623" rx="4.00002" ry="4.00002"/>
<polygon fill="#d3b378" stroke="#d3b378" points="319.396,-43.5541 328.833,-37.969 322.275,-39.466 325.154,-35.378 325.154,-35.378 325.154,-35.378 322.275,-39.466 321.475,-32.787 319.396,-43.5541 319.396,-43.5541"/>
</g>
<!-- User&#45;&gt;Assignment -->
<g id="edge14" class="edge"><title>User&#45;&gt;Assignment</title>
<path fill="none" stroke="#12b5dd" d="M314.537,-272.096C304.452,-284.524 292.954,-301.09 286.922,-318 275.902,-348.895 274.844,-386.937 275.723,-412.135"/>
<ellipse fill="none" stroke="#12b5dd" cx="317.38" cy="-268.705" rx="4.00002" ry="4.00002"/>
<polygon fill="#12b5dd" stroke="#12b5dd" points="275.736,-412.424 271.719,-422.628 275.975,-417.418 276.214,-422.413 276.214,-422.413 276.214,-422.413 275.975,-417.418 280.709,-422.198 275.736,-412.424 275.736,-412.424"/>
<text text-anchor="middle" x="354.571" y="-331.8" font-family="Times,serif" font-size="14.00">assignment_ownerships</text>
</g>
<!-- User&#45;&gt;Course -->
<g id="edge15" class="edge"><title>User&#45;&gt;Course</title>
<path fill="none" stroke="#b4f319" d="M323.032,-274.958C320.856,-283.671 320.704,-293.07 326.377,-300 352.025,-331.333 376.624,-307.34 415.688,-318 419.536,-319.05 423.519,-320.246 427.476,-321.505"/>
<ellipse fill="none" stroke="#b4f319" cx="324.276" cy="-271.051" rx="4.00001" ry="4.00001"/>
<polygon fill="#b4f319" stroke="#b4f319" points="427.673,-321.571 435.747,-328.992 432.419,-323.146 437.164,-324.721 437.164,-324.721 437.164,-324.721 432.419,-323.146 438.582,-320.45 427.673,-321.571 427.673,-321.571"/>
<text text-anchor="middle" x="380.343" y="-288.8" font-family="Times,serif" font-size="14.00">course_ownerships</text>
</g>
<!-- User&#45;&gt;CourseStudent -->
<g id="edge13" class="edge"><title>User&#45;&gt;CourseStudent</title>
<path fill="none" stroke="#dd311b" d="M362.476,-235.022C391.121,-221.113 435.294,-199.665 467.204,-184.171"/>
<ellipse fill="none" stroke="#dd311b" cx="358.499" cy="-236.953" rx="4.00002" ry="4.00002"/>
<polygon fill="#dd311b" stroke="#dd311b" points="467.273,-184.138 478.234,-183.818 471.771,-181.954 476.269,-179.77 476.269,-179.77 476.269,-179.77 471.771,-181.954 474.303,-175.722 467.273,-184.138 467.273,-184.138"/>
</g>
<!-- User&#45;&gt;Problem -->
<g id="edge16" class="edge"><title>User&#45;&gt;Problem</title>
<path fill="none" stroke="#f978b0" d="M298.461,-247.767C273.866,-244.839 242.618,-236.533 226.26,-214 221.662,-207.666 220.802,-199.576 221.59,-191.802"/>
<ellipse fill="none" stroke="#f978b0" cx="302.536" cy="-248.171" rx="4" ry="4"/>
<polygon fill="#f978b0" stroke="#f978b0" points="221.594,-191.776 227.826,-182.753 222.497,-186.858 223.4,-181.94 223.4,-181.94 223.4,-181.94 222.497,-186.858 218.974,-181.128 221.594,-191.776 221.594,-191.776"/>
<text text-anchor="middle" x="285.402" y="-202.8" font-family="Times,serif" font-size="14.00">problem_ownerships</text>
</g>
<!-- User&#45;&gt;User -->
<g id="edge18" class="edge"><title>User&#45;&gt;User</title>
<path fill="none" stroke="#118b1f" d="M368.262,-257.406C374.403,-256.437 378.688,-253.968 378.688,-250 378.688,-246.032 374.403,-243.563 368.262,-242.594"/>
<polygon fill="#118b1f" stroke="#118b1f" points="368.214,-257.407 358.065,-253.255 363.217,-257.58 358.22,-257.752 358.22,-257.752 358.22,-257.752 363.217,-257.58 358.375,-262.249 368.214,-257.407 368.214,-257.407"/>
<polygon fill="#118b1f" stroke="#118b1f" points="368.214,-242.593 358.375,-237.751 363.217,-242.42 358.22,-242.248 358.22,-242.248 358.22,-242.248 363.217,-242.42 358.065,-246.745 368.214,-242.593 368.214,-242.593"/>
<text text-anchor="middle" x="412.122" y="-245.8" font-family="Times,serif" font-size="14.00">connections</text>
</g>
<!-- UserConnection -->
<g id="node20" class="node"><title>UserConnection</title>
<ellipse fill="none" stroke="black" cx="358.688" cy="-164" rx="67.6529" ry="18"/>
<text text-anchor="middle" x="358.688" y="-159.8" font-family="Times,serif" font-size="14.00">UserConnection</text>
</g>
<!-- User&#45;&gt;UserConnection -->
<g id="edge17" class="edge"><title>User&#45;&gt;UserConnection</title>
<path fill="none" stroke="#811015" d="M343.937,-224.826C345.292,-221.23 346.59,-217.542 347.688,-214 349.839,-207.062 351.755,-199.45 353.361,-192.338"/>
<ellipse fill="none" stroke="#811015" cx="342.397" cy="-228.738" rx="4.00001" ry="4.00001"/>
<polygon fill="#811015" stroke="#811015" points="353.393,-192.191 359.884,-183.353 354.438,-187.301 355.484,-182.412 355.484,-182.412 355.484,-182.412 354.438,-187.301 351.083,-181.471 353.393,-192.191 353.393,-192.191"/>
</g>
</g>
</svg>
