<?xml version="1.0" encoding="UTF-8" standalone="no"?>
<!DOCTYPE svg PUBLIC "-//W3C//DTD SVG 1.1//EN"
 "http://www.w3.org/Graphics/SVG/1.1/DTD/svg11.dtd">
<!-- Generated by graphviz version 2.38.0 (20140413.2041)
 -->
<!-- Title: models_diagram Pages: 1 -->
<svg width="1568pt" height="1216pt"
 viewBox="0.00 0.00 1568.09 1216.00" xmlns="http://www.w3.org/2000/svg" xmlns:xlink="http://www.w3.org/1999/xlink">
<g id="graph0" class="graph" transform="scale(1 1) rotate(0) translate(4 1212)">
<title>models_diagram</title>
<polygon fill="none" stroke="none" points="-4,4 -4,-1212 1564.09,-1212 1564.09,4 -4,4"/>
<!-- _diagram_info -->
<g id="node1" class="node"><title>_diagram_info</title>
<text text-anchor="start" x="115.775" y="-1144.6" font-family="Times,serif" font-size="13.00">Models diagram</text>
<text text-anchor="start" x="115.775" y="-1131.6" font-family="Times,serif" font-size="13.00">Date: Nov 24 2016 &#45; 17:36</text>
<text text-anchor="start" x="115.775" y="-1118.6" font-family="Times,serif" font-size="13.00">Migration version: 20161110230418</text>
<text text-anchor="start" x="115.775" y="-1105.6" font-family="Times,serif" font-size="13.00">Generated by RailRoady 1.5.2</text>
<text text-anchor="start" x="115.775" y="-1092.6" font-family="Times,serif" font-size="13.00">http://railroady.prestonlee.com</text>
</g>
<!-- Assignment -->
<g id="node2" class="node"><title>Assignment</title>
<path fill="none" stroke="black" d="M344.481,-1051.5C344.481,-1051.5 453.492,-1051.5 453.492,-1051.5 459.492,-1051.5 465.492,-1057.5 465.492,-1063.5 465.492,-1063.5 465.492,-1181.5 465.492,-1181.5 465.492,-1187.5 459.492,-1193.5 453.492,-1193.5 453.492,-1193.5 344.481,-1193.5 344.481,-1193.5 338.481,-1193.5 332.481,-1187.5 332.481,-1181.5 332.481,-1181.5 332.481,-1063.5 332.481,-1063.5 332.481,-1057.5 338.481,-1051.5 344.481,-1051.5"/>
<text text-anchor="middle" x="398.987" y="-1178.3" font-family="Times,serif" font-size="14.00">Assignment</text>
<polyline fill="none" stroke="black" points="332.481,-1171.5 465.492,-1171.5 "/>
<text text-anchor="start" x="340.481" y="-1156.3" font-family="Times,serif" font-size="14.00">updated_at :datetime</text>
<text text-anchor="start" x="340.481" y="-1142.3" font-family="Times,serif" font-size="14.00">name :varchar(255)</text>
<text text-anchor="start" x="340.481" y="-1128.3" font-family="Times,serif" font-size="14.00">starts_at :datetime</text>
<text text-anchor="start" x="340.481" y="-1114.3" font-family="Times,serif" font-size="14.00">ends_at :datetime</text>
<text text-anchor="start" x="340.481" y="-1100.3" font-family="Times,serif" font-size="14.00">description :text</text>
<text text-anchor="start" x="340.481" y="-1086.3" font-family="Times,serif" font-size="14.00">owner_id :int(11)</text>
<text text-anchor="start" x="340.481" y="-1072.3" font-family="Times,serif" font-size="14.00">created_at :datetime</text>
<text text-anchor="start" x="340.481" y="-1058.3" font-family="Times,serif" font-size="14.00">id :int(11)</text>
</g>
<!-- AssignmentProblem -->
<g id="node3" class="node"><title>AssignmentProblem</title>
<path fill="none" stroke="black" d="M224.055,-187.5C224.055,-187.5 341.918,-187.5 341.918,-187.5 347.918,-187.5 353.918,-193.5 353.918,-199.5 353.918,-199.5 353.918,-275.5 353.918,-275.5 353.918,-281.5 347.918,-287.5 341.918,-287.5 341.918,-287.5 224.055,-287.5 224.055,-287.5 218.055,-287.5 212.055,-281.5 212.055,-275.5 212.055,-275.5 212.055,-199.5 212.055,-199.5 212.055,-193.5 218.055,-187.5 224.055,-187.5"/>
<text text-anchor="middle" x="282.987" y="-272.3" font-family="Times,serif" font-size="14.00">AssignmentProblem</text>
<polyline fill="none" stroke="black" points="212.055,-265.5 353.918,-265.5 "/>
<text text-anchor="start" x="220.055" y="-250.3" font-family="Times,serif" font-size="14.00">id :int(11)</text>
<text text-anchor="start" x="220.055" y="-236.3" font-family="Times,serif" font-size="14.00">assignment_id :int(11)</text>
<text text-anchor="start" x="220.055" y="-222.3" font-family="Times,serif" font-size="14.00">problem_id :int(11)</text>
<text text-anchor="start" x="220.055" y="-208.3" font-family="Times,serif" font-size="14.00">created_at :datetime</text>
<text text-anchor="start" x="220.055" y="-194.3" font-family="Times,serif" font-size="14.00">updated_at :datetime</text>
</g>
<!-- Assignment&#45;&gt;AssignmentProblem -->
<g id="edge3" class="edge"><title>Assignment&#45;&gt;AssignmentProblem</title>
<path fill="none" stroke="#f26bca" d="M335.176,-1044.95C308.676,-1009.99 283.987,-971.719 283.987,-950.5 283.987,-950.5 283.987,-950.5 283.987,-478.5 283.987,-416.843 283.653,-346.278 283.371,-297.703"/>
<ellipse fill="none" stroke="#f26bca" cx="337.708" cy="-1048.26" rx="4.00002" ry="4.00002"/>
<polygon fill="#f26bca" stroke="#f26bca" points="283.371,-297.682 287.811,-287.655 283.341,-292.682 283.311,-287.682 283.311,-287.682 283.311,-287.682 283.341,-292.682 278.812,-287.709 283.371,-297.682 283.371,-297.682"/>
</g>
<!-- Course -->
<g id="node4" class="node"><title>Course</title>
<path fill="none" stroke="black" d="M562.481,-899.5C562.481,-899.5 671.492,-899.5 671.492,-899.5 677.492,-899.5 683.492,-905.5 683.492,-911.5 683.492,-911.5 683.492,-987.5 683.492,-987.5 683.492,-993.5 677.492,-999.5 671.492,-999.5 671.492,-999.5 562.481,-999.5 562.481,-999.5 556.481,-999.5 550.481,-993.5 550.481,-987.5 550.481,-987.5 550.481,-911.5 550.481,-911.5 550.481,-905.5 556.481,-899.5 562.481,-899.5"/>
<text text-anchor="middle" x="616.987" y="-984.3" font-family="Times,serif" font-size="14.00">Course</text>
<polyline fill="none" stroke="black" points="550.481,-977.5 683.492,-977.5 "/>
<text text-anchor="start" x="558.481" y="-962.3" font-family="Times,serif" font-size="14.00">id :int(11)</text>
<text text-anchor="start" x="558.481" y="-948.3" font-family="Times,serif" font-size="14.00">name :varchar(255)</text>
<text text-anchor="start" x="558.481" y="-934.3" font-family="Times,serif" font-size="14.00">owner_id :int(11)</text>
<text text-anchor="start" x="558.481" y="-920.3" font-family="Times,serif" font-size="14.00">created_at :datetime</text>
<text text-anchor="start" x="558.481" y="-906.3" font-family="Times,serif" font-size="14.00">updated_at :datetime</text>
</g>
<!-- Assignment&#45;&gt;Course -->
<g id="edge2" class="edge"><title>Assignment&#45;&gt;Course</title>
<path fill="none" stroke="#443b00" d="M466.531,-1044.28C469.33,-1041.77 472.153,-1039.33 474.987,-1037 499.773,-1016.62 509.564,-1016.67 536.987,-1000 538.474,-999.096 539.976,-998.182 541.489,-997.259"/>
<polygon fill="#443b00" stroke="#443b00" points="466.511,-1044.3 456.123,-1047.82 462.849,-1047.71 459.188,-1051.11 459.188,-1051.11 459.188,-1051.11 462.849,-1047.71 462.252,-1054.41 466.511,-1044.3 466.511,-1044.3"/>
<polygon fill="#443b00" stroke="#443b00" points="541.717,-997.12 552.596,-995.744 545.983,-994.513 550.249,-991.905 550.249,-991.905 550.249,-991.905 545.983,-994.513 547.902,-988.065 541.717,-997.12 541.717,-997.12"/>
</g>
<!-- CourseAssignment -->
<g id="node5" class="node"><title>CourseAssignment</title>
<path fill="none" stroke="black" d="M699.055,-699.5C699.055,-699.5 816.918,-699.5 816.918,-699.5 822.918,-699.5 828.918,-705.5 828.918,-711.5 828.918,-711.5 828.918,-787.5 828.918,-787.5 828.918,-793.5 822.918,-799.5 816.918,-799.5 816.918,-799.5 699.055,-799.5 699.055,-799.5 693.055,-799.5 687.055,-793.5 687.055,-787.5 687.055,-787.5 687.055,-711.5 687.055,-711.5 687.055,-705.5 693.055,-699.5 699.055,-699.5"/>
<text text-anchor="middle" x="757.987" y="-784.3" font-family="Times,serif" font-size="14.00">CourseAssignment</text>
<polyline fill="none" stroke="black" points="687.055,-777.5 828.918,-777.5 "/>
<text text-anchor="start" x="695.055" y="-762.3" font-family="Times,serif" font-size="14.00">id :int(11)</text>
<text text-anchor="start" x="695.055" y="-748.3" font-family="Times,serif" font-size="14.00">course_id :int(11)</text>
<text text-anchor="start" x="695.055" y="-734.3" font-family="Times,serif" font-size="14.00">assignment_id :int(11)</text>
<text text-anchor="start" x="695.055" y="-720.3" font-family="Times,serif" font-size="14.00">created_at :datetime</text>
<text text-anchor="start" x="695.055" y="-706.3" font-family="Times,serif" font-size="14.00">updated_at :datetime</text>
</g>
<!-- Assignment&#45;&gt;CourseAssignment -->
<g id="edge1" class="edge"><title>Assignment&#45;&gt;CourseAssignment</title>
<path fill="none" stroke="#d226aa" d="M460.835,-1046.23C465.383,-1042.8 470.109,-1039.69 474.987,-1037 561.079,-989.608 620.549,-1066.41 692.987,-1000 745.479,-951.874 757.831,-867.201 759.661,-809.996"/>
<ellipse fill="none" stroke="#d226aa" cx="457.426" cy="-1048.96" rx="4.00002" ry="4.00002"/>
<polygon fill="#d226aa" stroke="#d226aa" points="759.669,-809.646 764.387,-799.747 759.778,-804.648 759.888,-799.649 759.888,-799.649 759.888,-799.649 759.778,-804.648 755.389,-799.55 759.669,-809.646 759.669,-809.646"/>
</g>
<!-- Problem -->
<g id="node11" class="node"><title>Problem</title>
<path fill="none" stroke="black" d="M12.0332,-359.5C12.0332,-359.5 243.94,-359.5 243.94,-359.5 249.94,-359.5 255.94,-365.5 255.94,-371.5 255.94,-371.5 255.94,-587.5 255.94,-587.5 255.94,-593.5 249.94,-599.5 243.94,-599.5 243.94,-599.5 12.0332,-599.5 12.0332,-599.5 6.0332,-599.5 0.0332031,-593.5 0.0332031,-587.5 0.0332031,-587.5 0.0332031,-371.5 0.0332031,-371.5 0.0332031,-365.5 6.0332,-359.5 12.0332,-359.5"/>
<text text-anchor="middle" x="127.987" y="-584.3" font-family="Times,serif" font-size="14.00">Problem</text>
<polyline fill="none" stroke="black" points="0.0332031,-577.5 255.94,-577.5 "/>
<text text-anchor="start" x="8.0332" y="-562.3" font-family="Times,serif" font-size="14.00">time_limit :int(11)</text>
<text text-anchor="start" x="8.0332" y="-548.3" font-family="Times,serif" font-size="14.00">name :varchar(255)</text>
<text text-anchor="start" x="8.0332" y="-534.3" font-family="Times,serif" font-size="14.00">statement :text</text>
<text text-anchor="start" x="8.0332" y="-520.3" font-family="Times,serif" font-size="14.00">input_format :text</text>
<text text-anchor="start" x="8.0332" y="-506.3" font-family="Times,serif" font-size="14.00">output_format :text</text>
<text text-anchor="start" x="8.0332" y="-492.3" font-family="Times,serif" font-size="14.00">examples :text</text>
<text text-anchor="start" x="8.0332" y="-478.3" font-family="Times,serif" font-size="14.00">notes :text</text>
<text text-anchor="start" x="8.0332" y="-464.3" font-family="Times,serif" font-size="14.00">owner_id :int(11)</text>
<text text-anchor="start" x="8.0332" y="-450.3" font-family="Times,serif" font-size="14.00">created_at :datetime</text>
<text text-anchor="start" x="8.0332" y="-436.3" font-family="Times,serif" font-size="14.00">updated_at :datetime</text>
<text text-anchor="start" x="8.0332" y="-422.3" font-family="Times,serif" font-size="14.00">input_files_uploaded_at :datetime</text>
<text text-anchor="start" x="8.0332" y="-408.3" font-family="Times,serif" font-size="14.00">outputs_generated_at :datetime</text>
<text text-anchor="start" x="8.0332" y="-394.3" font-family="Times,serif" font-size="14.00">outputs_generation_info :text</text>
<text text-anchor="start" x="8.0332" y="-380.3" font-family="Times,serif" font-size="14.00">outputs_generation_in_progress :tinyint(1)</text>
<text text-anchor="start" x="8.0332" y="-366.3" font-family="Times,serif" font-size="14.00">id :int(11)</text>
</g>
<!-- Assignment&#45;&gt;Problem -->
<g id="edge4" class="edge"><title>Assignment&#45;&gt;Problem</title>
<path fill="none" stroke="#5162da" d="M333.918,-1044.96C330.35,-1042.12 326.701,-1039.45 322.987,-1037 302.217,-1023.31 286.955,-1037.19 269.987,-1019 166.313,-907.85 136.42,-730.143 128.788,-609.537"/>
<polygon fill="#5162da" stroke="#5162da" points="333.938,-1044.98 338.692,-1054.86 337.764,-1048.2 341.589,-1051.42 341.589,-1051.42 341.589,-1051.42 337.764,-1048.2 344.487,-1047.97 333.938,-1044.98 333.938,-1044.98"/>
<polygon fill="#5162da" stroke="#5162da" points="128.785,-609.486 132.688,-599.238 128.491,-604.495 128.196,-599.503 128.196,-599.503 128.196,-599.503 128.491,-604.495 123.704,-599.768 128.785,-609.486 128.785,-609.486"/>
</g>
<!-- Course&#45;&gt;CourseAssignment -->
<g id="edge5" class="edge"><title>Course&#45;&gt;CourseAssignment</title>
<path fill="none" stroke="#86abe5" d="M663.897,-892.969C667.025,-888.959 670.083,-884.942 672.987,-881 690.051,-857.837 707.615,-831.383 722.315,-808.376"/>
<ellipse fill="none" stroke="#86abe5" cx="661.415" cy="-896.115" rx="4.00002" ry="4.00002"/>
<polygon fill="#86abe5" stroke="#86abe5" points="722.438,-808.182 731.6,-802.155 725.12,-803.962 727.802,-799.742 727.802,-799.742 727.802,-799.742 725.12,-803.962 724.003,-797.328 722.438,-808.182 722.438,-808.182"/>
</g>
<!-- CourseStudent -->
<g id="node6" class="node"><title>CourseStudent</title>
<path fill="none" stroke="black" d="M695.481,-429.5C695.481,-429.5 804.492,-429.5 804.492,-429.5 810.492,-429.5 816.492,-435.5 816.492,-441.5 816.492,-441.5 816.492,-517.5 816.492,-517.5 816.492,-523.5 810.492,-529.5 804.492,-529.5 804.492,-529.5 695.481,-529.5 695.481,-529.5 689.481,-529.5 683.481,-523.5 683.481,-517.5 683.481,-517.5 683.481,-441.5 683.481,-441.5 683.481,-435.5 689.481,-429.5 695.481,-429.5"/>
<text text-anchor="middle" x="749.987" y="-514.3" font-family="Times,serif" font-size="14.00">CourseStudent</text>
<polyline fill="none" stroke="black" points="683.481,-507.5 816.492,-507.5 "/>
<text text-anchor="start" x="691.481" y="-492.3" font-family="Times,serif" font-size="14.00">id :int(11)</text>
<text text-anchor="start" x="691.481" y="-478.3" font-family="Times,serif" font-size="14.00">user_id :int(11)</text>
<text text-anchor="start" x="691.481" y="-464.3" font-family="Times,serif" font-size="14.00">course_id :int(11)</text>
<text text-anchor="start" x="691.481" y="-450.3" font-family="Times,serif" font-size="14.00">created_at :datetime</text>
<text text-anchor="start" x="691.481" y="-436.3" font-family="Times,serif" font-size="14.00">updated_at :datetime</text>
</g>
<!-- Course&#45;&gt;CourseStudent -->
<g id="edge6" class="edge"><title>Course&#45;&gt;CourseStudent</title>
<path fill="none" stroke="#759c9c" d="M641.78,-891.521C642.954,-887.992 644.037,-884.466 644.987,-881 672.405,-780.981 650.145,-749.902 677.987,-650 688.611,-611.877 705.794,-570.993 720.71,-538.931"/>
<ellipse fill="none" stroke="#759c9c" cx="640.401" cy="-895.457" rx="4.00001" ry="4.00001"/>
<polygon fill="#759c9c" stroke="#759c9c" points="720.793,-538.753 729.124,-531.621 722.923,-534.229 725.052,-529.705 725.052,-529.705 725.052,-529.705 722.923,-534.229 720.98,-527.789 720.793,-538.753 720.793,-538.753"/>
</g>
<!-- User -->
<g id="node19" class="node"><title>User</title>
<path fill="none" stroke="black" d="M363.385,-650.5C363.385,-650.5 534.589,-650.5 534.589,-650.5 540.589,-650.5 546.589,-656.5 546.589,-662.5 546.589,-662.5 546.589,-836.5 546.589,-836.5 546.589,-842.5 540.589,-848.5 534.589,-848.5 534.589,-848.5 363.385,-848.5 363.385,-848.5 357.385,-848.5 351.385,-842.5 351.385,-836.5 351.385,-836.5 351.385,-662.5 351.385,-662.5 351.385,-656.5 357.385,-650.5 363.385,-650.5"/>
<text text-anchor="middle" x="448.987" y="-833.3" font-family="Times,serif" font-size="14.00">User</text>
<polyline fill="none" stroke="black" points="351.385,-826.5 546.589,-826.5 "/>
<text text-anchor="start" x="359.385" y="-811.3" font-family="Times,serif" font-size="14.00">connection_token :varchar(255)</text>
<text text-anchor="start" x="359.385" y="-797.3" font-family="Times,serif" font-size="14.00">name :varchar(255)</text>
<text text-anchor="start" x="359.385" y="-783.3" font-family="Times,serif" font-size="14.00">email :varchar(255)</text>
<text text-anchor="start" x="359.385" y="-769.3" font-family="Times,serif" font-size="14.00">created_at :datetime</text>
<text text-anchor="start" x="359.385" y="-755.3" font-family="Times,serif" font-size="14.00">updated_at :datetime</text>
<text text-anchor="start" x="359.385" y="-741.3" font-family="Times,serif" font-size="14.00">password_digest :varchar(255)</text>
<text text-anchor="start" x="359.385" y="-727.3" font-family="Times,serif" font-size="14.00">remember_digest :varchar(255)</text>
<text text-anchor="start" x="359.385" y="-713.3" font-family="Times,serif" font-size="14.00">admin :tinyint(1)</text>
<text text-anchor="start" x="359.385" y="-699.3" font-family="Times,serif" font-size="14.00">activation_digest :varchar(255)</text>
<text text-anchor="start" x="359.385" y="-685.3" font-family="Times,serif" font-size="14.00">activated :tinyint(1)</text>
<text text-anchor="start" x="359.385" y="-671.3" font-family="Times,serif" font-size="14.00">activated_at :datetime</text>
<text text-anchor="start" x="359.385" y="-657.3" font-family="Times,serif" font-size="14.00">id :int(11)</text>
</g>
<!-- Course&#45;&gt;User -->
<g id="edge7" class="edge"><title>Course&#45;&gt;User</title>
<path fill="none" stroke="#9550fa" d="M541.134,-901.06C539.747,-900.358 538.364,-899.67 536.987,-899 516.127,-888.844 503.879,-897.903 487.987,-881 481.495,-874.095 476.08,-866.154 471.564,-857.67"/>
<polygon fill="#9550fa" stroke="#9550fa" points="541.475,-901.24 548.231,-909.877 545.9,-903.567 550.325,-905.895 550.325,-905.895 550.325,-905.895 545.9,-903.567 552.42,-901.912 541.475,-901.24 541.475,-901.24"/>
<polygon fill="#9550fa" stroke="#9550fa" points="471.552,-857.645 471.222,-846.684 469.364,-853.149 467.176,-848.653 467.176,-848.653 467.176,-848.653 469.364,-853.149 463.129,-850.623 471.552,-857.645 471.552,-857.645"/>
</g>
<!-- Grader -->
<g id="node7" class="node"><title>Grader</title>
<path fill="none" stroke="black" d="M495.881,-1037.5C495.881,-1037.5 618.092,-1037.5 618.092,-1037.5 624.092,-1037.5 630.092,-1043.5 630.092,-1049.5 630.092,-1049.5 630.092,-1195.5 630.092,-1195.5 630.092,-1201.5 624.092,-1207.5 618.092,-1207.5 618.092,-1207.5 495.881,-1207.5 495.881,-1207.5 489.881,-1207.5 483.881,-1201.5 483.881,-1195.5 483.881,-1195.5 483.881,-1049.5 483.881,-1049.5 483.881,-1043.5 489.881,-1037.5 495.881,-1037.5"/>
<text text-anchor="middle" x="556.987" y="-1192.3" font-family="Times,serif" font-size="14.00">Grader</text>
<polyline fill="none" stroke="black" points="483.881,-1185.5 630.092,-1185.5 "/>
<text text-anchor="start" x="491.881" y="-1170.3" font-family="Times,serif" font-size="14.00">code :text</text>
<text text-anchor="start" x="491.881" y="-1156.3" font-family="Times,serif" font-size="14.00">time_limit :int(11)</text>
<text text-anchor="start" x="491.881" y="-1142.3" font-family="Times,serif" font-size="14.00">language :varchar(255)</text>
<text text-anchor="start" x="491.881" y="-1128.3" font-family="Times,serif" font-size="14.00">file_key :varchar(255)</text>
<text text-anchor="start" x="491.881" y="-1114.3" font-family="Times,serif" font-size="14.00">submission_id :int(11)</text>
<text text-anchor="start" x="491.881" y="-1100.3" font-family="Times,serif" font-size="14.00">problem_id :int(11)</text>
<text text-anchor="start" x="491.881" y="-1086.3" font-family="Times,serif" font-size="14.00">type :varchar(255)</text>
<text text-anchor="start" x="491.881" y="-1072.3" font-family="Times,serif" font-size="14.00">created_at :datetime</text>
<text text-anchor="start" x="491.881" y="-1058.3" font-family="Times,serif" font-size="14.00">updated_at :datetime</text>
<text text-anchor="start" x="491.881" y="-1044.3" font-family="Times,serif" font-size="14.00">id :int(11)</text>
</g>
<!-- InputFileUploader -->
<g id="node8" class="node"><title>InputFileUploader</title>
<path fill="none" stroke="black" d="M659.881,-1037.5C659.881,-1037.5 782.092,-1037.5 782.092,-1037.5 788.092,-1037.5 794.092,-1043.5 794.092,-1049.5 794.092,-1049.5 794.092,-1195.5 794.092,-1195.5 794.092,-1201.5 788.092,-1207.5 782.092,-1207.5 782.092,-1207.5 659.881,-1207.5 659.881,-1207.5 653.881,-1207.5 647.881,-1201.5 647.881,-1195.5 647.881,-1195.5 647.881,-1049.5 647.881,-1049.5 647.881,-1043.5 653.881,-1037.5 659.881,-1037.5"/>
<text text-anchor="middle" x="720.987" y="-1192.3" font-family="Times,serif" font-size="14.00">InputFileUploader</text>
<polyline fill="none" stroke="black" points="647.881,-1185.5 794.092,-1185.5 "/>
<text text-anchor="start" x="655.881" y="-1170.3" font-family="Times,serif" font-size="14.00">code :text</text>
<text text-anchor="start" x="655.881" y="-1156.3" font-family="Times,serif" font-size="14.00">time_limit :int(11)</text>
<text text-anchor="start" x="655.881" y="-1142.3" font-family="Times,serif" font-size="14.00">language :varchar(255)</text>
<text text-anchor="start" x="655.881" y="-1128.3" font-family="Times,serif" font-size="14.00">file_key :varchar(255)</text>
<text text-anchor="start" x="655.881" y="-1114.3" font-family="Times,serif" font-size="14.00">submission_id :int(11)</text>
<text text-anchor="start" x="655.881" y="-1100.3" font-family="Times,serif" font-size="14.00">problem_id :int(11)</text>
<text text-anchor="start" x="655.881" y="-1086.3" font-family="Times,serif" font-size="14.00">type :varchar(255)</text>
<text text-anchor="start" x="655.881" y="-1072.3" font-family="Times,serif" font-size="14.00">created_at :datetime</text>
<text text-anchor="start" x="655.881" y="-1058.3" font-family="Times,serif" font-size="14.00">updated_at :datetime</text>
<text text-anchor="start" x="655.881" y="-1044.3" font-family="Times,serif" font-size="14.00">id :int(11)</text>
</g>
<!-- OutputGenerator -->
<g id="node9" class="node"><title>OutputGenerator</title>
<path fill="none" stroke="black" d="M823.881,-1037.5C823.881,-1037.5 946.092,-1037.5 946.092,-1037.5 952.092,-1037.5 958.092,-1043.5 958.092,-1049.5 958.092,-1049.5 958.092,-1195.5 958.092,-1195.5 958.092,-1201.5 952.092,-1207.5 946.092,-1207.5 946.092,-1207.5 823.881,-1207.5 823.881,-1207.5 817.881,-1207.5 811.881,-1201.5 811.881,-1195.5 811.881,-1195.5 811.881,-1049.5 811.881,-1049.5 811.881,-1043.5 817.881,-1037.5 823.881,-1037.5"/>
<text text-anchor="middle" x="884.987" y="-1192.3" font-family="Times,serif" font-size="14.00">OutputGenerator</text>
<polyline fill="none" stroke="black" points="811.881,-1185.5 958.092,-1185.5 "/>
<text text-anchor="start" x="819.881" y="-1170.3" font-family="Times,serif" font-size="14.00">code :text</text>
<text text-anchor="start" x="819.881" y="-1156.3" font-family="Times,serif" font-size="14.00">time_limit :int(11)</text>
<text text-anchor="start" x="819.881" y="-1142.3" font-family="Times,serif" font-size="14.00">language :varchar(255)</text>
<text text-anchor="start" x="819.881" y="-1128.3" font-family="Times,serif" font-size="14.00">file_key :varchar(255)</text>
<text text-anchor="start" x="819.881" y="-1114.3" font-family="Times,serif" font-size="14.00">submission_id :int(11)</text>
<text text-anchor="start" x="819.881" y="-1100.3" font-family="Times,serif" font-size="14.00">problem_id :int(11)</text>
<text text-anchor="start" x="819.881" y="-1086.3" font-family="Times,serif" font-size="14.00">type :varchar(255)</text>
<text text-anchor="start" x="819.881" y="-1072.3" font-family="Times,serif" font-size="14.00">created_at :datetime</text>
<text text-anchor="start" x="819.881" y="-1058.3" font-family="Times,serif" font-size="14.00">updated_at :datetime</text>
<text text-anchor="start" x="819.881" y="-1044.3" font-family="Times,serif" font-size="14.00">id :int(11)</text>
</g>
<!-- PolygonUploader -->
<g id="node10" class="node"><title>PolygonUploader</title>
<path fill="none" stroke="black" d="M987.881,-1037.5C987.881,-1037.5 1110.09,-1037.5 1110.09,-1037.5 1116.09,-1037.5 1122.09,-1043.5 1122.09,-1049.5 1122.09,-1049.5 1122.09,-1195.5 1122.09,-1195.5 1122.09,-1201.5 1116.09,-1207.5 1110.09,-1207.5 1110.09,-1207.5 987.881,-1207.5 987.881,-1207.5 981.881,-1207.5 975.881,-1201.5 975.881,-1195.5 975.881,-1195.5 975.881,-1049.5 975.881,-1049.5 975.881,-1043.5 981.881,-1037.5 987.881,-1037.5"/>
<text text-anchor="middle" x="1048.99" y="-1192.3" font-family="Times,serif" font-size="14.00">PolygonUploader</text>
<polyline fill="none" stroke="black" points="975.881,-1185.5 1122.09,-1185.5 "/>
<text text-anchor="start" x="983.881" y="-1170.3" font-family="Times,serif" font-size="14.00">code :text</text>
<text text-anchor="start" x="983.881" y="-1156.3" font-family="Times,serif" font-size="14.00">time_limit :int(11)</text>
<text text-anchor="start" x="983.881" y="-1142.3" font-family="Times,serif" font-size="14.00">language :varchar(255)</text>
<text text-anchor="start" x="983.881" y="-1128.3" font-family="Times,serif" font-size="14.00">file_key :varchar(255)</text>
<text text-anchor="start" x="983.881" y="-1114.3" font-family="Times,serif" font-size="14.00">submission_id :int(11)</text>
<text text-anchor="start" x="983.881" y="-1100.3" font-family="Times,serif" font-size="14.00">problem_id :int(11)</text>
<text text-anchor="start" x="983.881" y="-1086.3" font-family="Times,serif" font-size="14.00">type :varchar(255)</text>
<text text-anchor="start" x="983.881" y="-1072.3" font-family="Times,serif" font-size="14.00">created_at :datetime</text>
<text text-anchor="start" x="983.881" y="-1058.3" font-family="Times,serif" font-size="14.00">updated_at :datetime</text>
<text text-anchor="start" x="983.881" y="-1044.3" font-family="Times,serif" font-size="14.00">id :int(11)</text>
</g>
<!-- Problem&#45;&gt;AssignmentProblem -->
<g id="edge8" class="edge"><title>Problem&#45;&gt;AssignmentProblem</title>
<path fill="none" stroke="#e23d2e" d="M209.434,-352.388C222.08,-332.807 234.586,-313.443 245.6,-296.389"/>
<ellipse fill="none" stroke="#e23d2e" cx="207.203" cy="-355.843" rx="4.00002" ry="4.00002"/>
<polygon fill="#e23d2e" stroke="#e23d2e" points="245.791,-296.094 254.996,-290.135 248.504,-291.893 251.216,-287.693 251.216,-287.693 251.216,-287.693 248.504,-291.893 247.436,-285.252 245.791,-296.094 245.791,-296.094"/>
</g>
<!-- TestCase -->
<g id="node17" class="node"><title>TestCase</title>
<path fill="none" stroke="black" d="M12,-0.5C12,-0.5 125.974,-0.5 125.974,-0.5 131.974,-0.5 137.974,-6.5 137.974,-12.5 137.974,-12.5 137.974,-116.5 137.974,-116.5 137.974,-122.5 131.974,-128.5 125.974,-128.5 125.974,-128.5 12,-128.5 12,-128.5 6,-128.5 0,-122.5 0,-116.5 0,-116.5 0,-12.5 0,-12.5 0,-6.5 6,-0.5 12,-0.5"/>
<text text-anchor="middle" x="68.9868" y="-113.3" font-family="Times,serif" font-size="14.00">TestCase</text>
<polyline fill="none" stroke="black" points="0,-106.5 137.974,-106.5 "/>
<text text-anchor="start" x="8" y="-91.3" font-family="Times,serif" font-size="14.00">tc_index :int(11)</text>
<text text-anchor="start" x="8" y="-77.3" font-family="Times,serif" font-size="14.00">problem_id :int(11)</text>
<text text-anchor="start" x="8" y="-63.3" font-family="Times,serif" font-size="14.00">weight :int(11)</text>
<text text-anchor="start" x="8" y="-49.3" font-family="Times,serif" font-size="14.00">id :int(11)</text>
<text text-anchor="start" x="8" y="-35.3" font-family="Times,serif" font-size="14.00">created_at :datetime</text>
<text text-anchor="start" x="8" y="-21.3" font-family="Times,serif" font-size="14.00">updated_at :datetime</text>
<text text-anchor="start" x="8" y="-7.3" font-family="Times,serif" font-size="14.00">test_group_id :int(11)</text>
</g>
<!-- Problem&#45;&gt;TestCase -->
<g id="edge9" class="edge"><title>Problem&#45;&gt;TestCase</title>
<path fill="none" stroke="#bb7f5f" d="M70.2737,-351.599C65.6707,-337.456 61.7419,-323.075 58.9868,-309 47.9465,-252.597 51.4381,-187.493 57.1483,-138.801"/>
<ellipse fill="none" stroke="#bb7f5f" cx="71.6261" cy="-355.635" rx="4.00001" ry="4.00001"/>
<polygon fill="#bb7f5f" stroke="#bb7f5f" points="57.1737,-138.594 62.8623,-129.219 57.7848,-133.632 58.396,-128.669 58.396,-128.669 58.396,-128.669 57.7848,-133.632 53.9297,-128.119 57.1737,-138.594 57.1737,-138.594"/>
</g>
<!-- TestGroup -->
<g id="node18" class="node"><title>TestGroup</title>
<path fill="none" stroke="black" d="M80.2241,-201.5C80.2241,-201.5 181.75,-201.5 181.75,-201.5 187.75,-201.5 193.75,-207.5 193.75,-213.5 193.75,-213.5 193.75,-261.5 193.75,-261.5 193.75,-267.5 187.75,-273.5 181.75,-273.5 181.75,-273.5 80.2241,-273.5 80.2241,-273.5 74.2241,-273.5 68.2241,-267.5 68.2241,-261.5 68.2241,-261.5 68.2241,-213.5 68.2241,-213.5 68.2241,-207.5 74.2241,-201.5 80.2241,-201.5"/>
<text text-anchor="middle" x="130.987" y="-258.3" font-family="Times,serif" font-size="14.00">TestGroup</text>
<polyline fill="none" stroke="black" points="68.2241,-251.5 193.75,-251.5 "/>
<text text-anchor="start" x="76.2241" y="-236.3" font-family="Times,serif" font-size="14.00">id :int(11)</text>
<text text-anchor="start" x="76.2241" y="-222.3" font-family="Times,serif" font-size="14.00">weight :int(11)</text>
<text text-anchor="start" x="76.2241" y="-208.3" font-family="Times,serif" font-size="14.00">problem_id :int(11)</text>
</g>
<!-- Problem&#45;&gt;TestGroup -->
<g id="edge10" class="edge"><title>Problem&#45;&gt;TestGroup</title>
<path fill="none" stroke="#0111c1" d="M129.579,-351.139C129.881,-326.933 130.179,-303.128 130.422,-283.683"/>
<ellipse fill="none" stroke="#0111c1" cx="129.528" cy="-355.203" rx="4" ry="4"/>
<polygon fill="#0111c1" stroke="#0111c1" points="130.422,-283.644 135.047,-273.701 130.485,-278.645 130.548,-273.645 130.548,-273.645 130.548,-273.645 130.485,-278.645 126.048,-273.589 130.422,-283.644 130.422,-283.644"/>
</g>
<!-- Runner -->
<g id="node12" class="node"><title>Runner</title>
<path fill="none" stroke="black" d="M1151.88,-1037.5C1151.88,-1037.5 1274.09,-1037.5 1274.09,-1037.5 1280.09,-1037.5 1286.09,-1043.5 1286.09,-1049.5 1286.09,-1049.5 1286.09,-1195.5 1286.09,-1195.5 1286.09,-1201.5 1280.09,-1207.5 1274.09,-1207.5 1274.09,-1207.5 1151.88,-1207.5 1151.88,-1207.5 1145.88,-1207.5 1139.88,-1201.5 1139.88,-1195.5 1139.88,-1195.5 1139.88,-1049.5 1139.88,-1049.5 1139.88,-1043.5 1145.88,-1037.5 1151.88,-1037.5"/>
<text text-anchor="middle" x="1212.99" y="-1192.3" font-family="Times,serif" font-size="14.00">Runner</text>
<polyline fill="none" stroke="black" points="1139.88,-1185.5 1286.09,-1185.5 "/>
<text text-anchor="start" x="1147.88" y="-1170.3" font-family="Times,serif" font-size="14.00">code :text</text>
<text text-anchor="start" x="1147.88" y="-1156.3" font-family="Times,serif" font-size="14.00">time_limit :int(11)</text>
<text text-anchor="start" x="1147.88" y="-1142.3" font-family="Times,serif" font-size="14.00">language :varchar(255)</text>
<text text-anchor="start" x="1147.88" y="-1128.3" font-family="Times,serif" font-size="14.00">file_key :varchar(255)</text>
<text text-anchor="start" x="1147.88" y="-1114.3" font-family="Times,serif" font-size="14.00">submission_id :int(11)</text>
<text text-anchor="start" x="1147.88" y="-1100.3" font-family="Times,serif" font-size="14.00">problem_id :int(11)</text>
<text text-anchor="start" x="1147.88" y="-1086.3" font-family="Times,serif" font-size="14.00">type :varchar(255)</text>
<text text-anchor="start" x="1147.88" y="-1072.3" font-family="Times,serif" font-size="14.00">created_at :datetime</text>
<text text-anchor="start" x="1147.88" y="-1058.3" font-family="Times,serif" font-size="14.00">updated_at :datetime</text>
<text text-anchor="start" x="1147.88" y="-1044.3" font-family="Times,serif" font-size="14.00">id :int(11)</text>
</g>
<!-- StudentPortal::ProblemSolution -->
<g id="node13" class="node"><title>StudentPortal::ProblemSolution</title>
<path fill="none" stroke="black" d="M482.539,-387.5C482.539,-387.5 653.435,-387.5 653.435,-387.5 659.435,-387.5 665.435,-393.5 665.435,-399.5 665.435,-399.5 665.435,-559.5 665.435,-559.5 665.435,-565.5 659.435,-571.5 653.435,-571.5 653.435,-571.5 482.539,-571.5 482.539,-571.5 476.539,-571.5 470.539,-565.5 470.539,-559.5 470.539,-559.5 470.539,-399.5 470.539,-399.5 470.539,-393.5 476.539,-387.5 482.539,-387.5"/>
<text text-anchor="middle" x="567.987" y="-556.3" font-family="Times,serif" font-size="14.00">StudentPortal::ProblemSolution</text>
<polyline fill="none" stroke="black" points="470.539,-549.5 665.435,-549.5 "/>
<text text-anchor="start" x="478.539" y="-534.3" font-family="Times,serif" font-size="14.00">language :varchar(255)</text>
<text text-anchor="start" x="478.539" y="-520.3" font-family="Times,serif" font-size="14.00">user_id :int(11)</text>
<text text-anchor="start" x="478.539" y="-506.3" font-family="Times,serif" font-size="14.00">course_id :int(11)</text>
<text text-anchor="start" x="478.539" y="-492.3" font-family="Times,serif" font-size="14.00">assignment_id :int(11)</text>
<text text-anchor="start" x="478.539" y="-478.3" font-family="Times,serif" font-size="14.00">problem_id :int(11)</text>
<text text-anchor="start" x="478.539" y="-464.3" font-family="Times,serif" font-size="14.00">code :text</text>
<text text-anchor="start" x="478.539" y="-450.3" font-family="Times,serif" font-size="14.00">created_at :datetime</text>
<text text-anchor="start" x="478.539" y="-436.3" font-family="Times,serif" font-size="14.00">updated_at :datetime</text>
<text text-anchor="start" x="478.539" y="-422.3" font-family="Times,serif" font-size="14.00">grade :float</text>
<text text-anchor="start" x="478.539" y="-408.3" font-family="Times,serif" font-size="14.00">status :int(11)</text>
<text text-anchor="start" x="478.539" y="-394.3" font-family="Times,serif" font-size="14.00">id :int(11)</text>
</g>
<!-- StudentPortal::Submission -->
<g id="node14" class="node"><title>StudentPortal::Submission</title>
<path fill="none" stroke="black" d="M491.166,-166.5C491.166,-166.5 644.808,-166.5 644.808,-166.5 650.808,-166.5 656.808,-172.5 656.808,-178.5 656.808,-178.5 656.808,-296.5 656.808,-296.5 656.808,-302.5 650.808,-308.5 644.808,-308.5 644.808,-308.5 491.166,-308.5 491.166,-308.5 485.166,-308.5 479.166,-302.5 479.166,-296.5 479.166,-296.5 479.166,-178.5 479.166,-178.5 479.166,-172.5 485.166,-166.5 491.166,-166.5"/>
<text text-anchor="middle" x="567.987" y="-293.3" font-family="Times,serif" font-size="14.00">StudentPortal::Submission</text>
<polyline fill="none" stroke="black" points="479.166,-286.5 656.808,-286.5 "/>
<text text-anchor="start" x="487.166" y="-271.3" font-family="Times,serif" font-size="14.00">grade :float</text>
<text text-anchor="start" x="487.166" y="-257.3" font-family="Times,serif" font-size="14.00">language :varchar(255)</text>
<text text-anchor="start" x="487.166" y="-243.3" font-family="Times,serif" font-size="14.00">status :int(11)</text>
<text text-anchor="start" x="487.166" y="-229.3" font-family="Times,serif" font-size="14.00">problem_solution_id :int(11)</text>
<text text-anchor="start" x="487.166" y="-215.3" font-family="Times,serif" font-size="14.00">created_at :datetime</text>
<text text-anchor="start" x="487.166" y="-201.3" font-family="Times,serif" font-size="14.00">updated_at :datetime</text>
<text text-anchor="start" x="487.166" y="-187.3" font-family="Times,serif" font-size="14.00">info :varchar(255)</text>
<text text-anchor="start" x="487.166" y="-173.3" font-family="Times,serif" font-size="14.00">id :int(11)</text>
</g>
<!-- StudentPortal::ProblemSolution&#45;&gt;StudentPortal::Submission -->
<g id="edge11" class="edge"><title>StudentPortal::ProblemSolution&#45;&gt;StudentPortal::Submission</title>
<path fill="none" stroke="#3596a7" d="M567.987,-379.41C567.987,-359.164 567.987,-338.098 567.987,-318.615"/>
<ellipse fill="none" stroke="#3596a7" cx="567.987" cy="-383.424" rx="4" ry="4"/>
<polygon fill="#3596a7" stroke="#3596a7" points="567.987,-318.584 572.487,-308.584 567.987,-313.584 567.987,-308.584 567.987,-308.584 567.987,-308.584 567.987,-313.584 563.487,-308.584 567.987,-318.584 567.987,-318.584"/>
<text text-anchor="middle" x="602.218" y="-329.8" font-family="Times,serif" font-size="14.00">submissions</text>
</g>
<!-- StudentPortal -->
<g id="node15" class="node"><title>StudentPortal</title>
<polygon fill="none" stroke="black" stroke-dasharray="1,5" points="1396.21,-1140.5 1303.77,-1140.5 1303.77,-1104.5 1396.21,-1104.5 1396.21,-1140.5"/>
<text text-anchor="middle" x="1349.99" y="-1118.3" font-family="Times,serif" font-size="14.00">StudentPortal</text>
</g>
<!-- Task -->
<g id="node16" class="node"><title>Task</title>
<path fill="none" stroke="black" d="M1425.88,-1037.5C1425.88,-1037.5 1548.09,-1037.5 1548.09,-1037.5 1554.09,-1037.5 1560.09,-1043.5 1560.09,-1049.5 1560.09,-1049.5 1560.09,-1195.5 1560.09,-1195.5 1560.09,-1201.5 1554.09,-1207.5 1548.09,-1207.5 1548.09,-1207.5 1425.88,-1207.5 1425.88,-1207.5 1419.88,-1207.5 1413.88,-1201.5 1413.88,-1195.5 1413.88,-1195.5 1413.88,-1049.5 1413.88,-1049.5 1413.88,-1043.5 1419.88,-1037.5 1425.88,-1037.5"/>
<text text-anchor="middle" x="1486.99" y="-1192.3" font-family="Times,serif" font-size="14.00">Task</text>
<polyline fill="none" stroke="black" points="1413.88,-1185.5 1560.09,-1185.5 "/>
<text text-anchor="start" x="1421.88" y="-1170.3" font-family="Times,serif" font-size="14.00">code :text</text>
<text text-anchor="start" x="1421.88" y="-1156.3" font-family="Times,serif" font-size="14.00">time_limit :int(11)</text>
<text text-anchor="start" x="1421.88" y="-1142.3" font-family="Times,serif" font-size="14.00">language :varchar(255)</text>
<text text-anchor="start" x="1421.88" y="-1128.3" font-family="Times,serif" font-size="14.00">file_key :varchar(255)</text>
<text text-anchor="start" x="1421.88" y="-1114.3" font-family="Times,serif" font-size="14.00">submission_id :int(11)</text>
<text text-anchor="start" x="1421.88" y="-1100.3" font-family="Times,serif" font-size="14.00">problem_id :int(11)</text>
<text text-anchor="start" x="1421.88" y="-1086.3" font-family="Times,serif" font-size="14.00">type :varchar(255)</text>
<text text-anchor="start" x="1421.88" y="-1072.3" font-family="Times,serif" font-size="14.00">created_at :datetime</text>
<text text-anchor="start" x="1421.88" y="-1058.3" font-family="Times,serif" font-size="14.00">updated_at :datetime</text>
<text text-anchor="start" x="1421.88" y="-1044.3" font-family="Times,serif" font-size="14.00">id :int(11)</text>
</g>
<!-- TestGroup&#45;&gt;TestCase -->
<g id="edge12" class="edge"><title>TestGroup&#45;&gt;TestCase</title>
<path fill="none" stroke="#11d058" d="M115.537,-193.887C109.442,-177.077 102.264,-157.282 95.3948,-138.335"/>
<ellipse fill="none" stroke="#11d058" cx="116.927" cy="-197.723" rx="4.00001" ry="4.00001"/>
<polygon fill="#11d058" stroke="#11d058" points="95.3547,-138.224 96.1765,-127.289 93.6503,-133.523 91.946,-128.823 91.946,-128.823 91.946,-128.823 93.6503,-133.523 87.7155,-130.357 95.3547,-138.224 95.3547,-138.224"/>
</g>
<!-- User&#45;&gt;Assignment -->
<g id="edge14" class="edge"><title>User&#45;&gt;Assignment</title>
<path fill="none" stroke="#dd136b" d="M415.863,-856.645C412.42,-870.774 409.392,-885.159 407.221,-899 399.874,-945.844 397.677,-998.881 397.382,-1041.42"/>
<ellipse fill="none" stroke="#dd136b" cx="416.847" cy="-852.708" rx="4.00001" ry="4.00001"/>
<polygon fill="#dd136b" stroke="#dd136b" points="397.382,-1041.44 392.846,-1051.43 397.364,-1046.44 397.346,-1051.44 397.346,-1051.44 397.346,-1051.44 397.364,-1046.44 401.846,-1051.46 397.382,-1041.44 397.382,-1041.44"/>
<text text-anchor="middle" x="473.87" y="-945.3" font-family="Times,serif" font-size="14.00">assignment_ownerships</text>
</g>
<!-- User&#45;&gt;Course -->
<g id="edge15" class="edge"><title>User&#45;&gt;Course</title>
<path fill="none" stroke="#ec1bdc" d="M516.316,-855.133C523.223,-864.125 530.389,-872.879 537.676,-881 541.061,-884.772 544.655,-888.528 548.373,-892.225"/>
<ellipse fill="none" stroke="#ec1bdc" cx="513.748" cy="-851.739" rx="4.00002" ry="4.00002"/>
<polygon fill="#ec1bdc" stroke="#ec1bdc" points="548.457,-892.306 552.526,-902.49 552.054,-895.779 555.651,-899.252 555.651,-899.252 555.651,-899.252 552.054,-895.779 558.777,-896.015 548.457,-892.306 548.457,-892.306"/>
<text text-anchor="middle" x="590.642" y="-869.8" font-family="Times,serif" font-size="14.00">course_ownerships</text>
</g>
<!-- User&#45;&gt;CourseStudent -->
<g id="edge13" class="edge"><title>User&#45;&gt;CourseStudent</title>
<path fill="none" stroke="#184a3d" d="M553.798,-677.823C583.178,-658.255 615.223,-637.139 644.987,-618 657.746,-609.795 663.201,-610.668 673.987,-600 691.959,-582.224 707.754,-559.451 720.221,-538.563"/>
<ellipse fill="none" stroke="#184a3d" cx="550.114" cy="-680.279" rx="4.00002" ry="4.00002"/>
<polygon fill="#184a3d" stroke="#184a3d" points="720.324,-538.387 729.246,-532.012 722.84,-534.067 725.357,-529.746 725.357,-529.746 725.357,-529.746 722.84,-534.067 721.469,-527.481 720.324,-538.387 720.324,-538.387"/>
</g>
<!-- User&#45;&gt;Problem -->
<g id="edge16" class="edge"><title>User&#45;&gt;Problem</title>
<path fill="none" stroke="#b81171" d="M344.977,-661.663C319.142,-640.094 291.069,-616.656 263.953,-594.017"/>
<ellipse fill="none" stroke="#b81171" cx="348.298" cy="-664.436" rx="4.00002" ry="4.00002"/>
<polygon fill="#b81171" stroke="#b81171" points="263.631,-593.748 258.838,-583.885 259.793,-590.543 255.954,-587.339 255.954,-587.339 255.954,-587.339 259.793,-590.543 253.07,-590.793 263.631,-593.748 263.631,-593.748"/>
<text text-anchor="middle" x="365.701" y="-620.8" font-family="Times,serif" font-size="14.00">problem_ownerships</text>
</g>
<!-- User&#45;&gt;StudentPortal::ProblemSolution -->
<g id="edge17" class="edge"><title>User&#45;&gt;StudentPortal::ProblemSolution</title>
<path fill="none" stroke="#bbf2b3" d="M495.987,-642.65C505.029,-622.286 514.475,-601.014 523.437,-580.831"/>
<ellipse fill="none" stroke="#bbf2b3" cx="494.246" cy="-646.573" rx="4.00002" ry="4.00002"/>
<polygon fill="#bbf2b3" stroke="#bbf2b3" points="523.459,-580.781 531.63,-573.468 525.488,-576.211 527.517,-571.642 527.517,-571.642 527.517,-571.642 525.488,-576.211 523.404,-569.815 523.459,-580.781 523.459,-580.781"/>
<text text-anchor="middle" x="556.097" y="-620.8" font-family="Times,serif" font-size="14.00">problem_solutions</text>
</g>
<!-- User&#45;&gt;User -->
<g id="edge19" class="edge"><title>User&#45;&gt;User</title>
<path fill="none" stroke="#61cc07" d="M556.101,-764.496C561.441,-760.763 564.589,-755.765 564.589,-749.5 564.589,-743.235 561.441,-738.237 556.101,-734.504"/>
<polygon fill="#61cc07" stroke="#61cc07" points="555.792,-764.648 544.833,-765.02 551.305,-766.853 546.818,-769.059 546.818,-769.059 546.818,-769.059 551.305,-766.853 548.803,-773.098 555.792,-764.648 555.792,-764.648"/>
<polygon fill="#61cc07" stroke="#61cc07" points="555.792,-734.352 548.803,-725.902 551.305,-732.147 546.818,-729.941 546.818,-729.941 546.818,-729.941 551.305,-732.147 544.833,-733.98 555.792,-734.352 555.792,-734.352"/>
<text text-anchor="middle" x="598.023" y="-745.3" font-family="Times,serif" font-size="14.00">connections</text>
</g>
<!-- UserConnection -->
<g id="node20" class="node"><title>UserConnection</title>
<path fill="none" stroke="black" d="M323.841,-429.5C323.841,-429.5 440.132,-429.5 440.132,-429.5 446.132,-429.5 452.132,-435.5 452.132,-441.5 452.132,-441.5 452.132,-517.5 452.132,-517.5 452.132,-523.5 446.132,-529.5 440.132,-529.5 440.132,-529.5 323.841,-529.5 323.841,-529.5 317.841,-529.5 311.841,-523.5 311.841,-517.5 311.841,-517.5 311.841,-441.5 311.841,-441.5 311.841,-435.5 317.841,-429.5 323.841,-429.5"/>
<text text-anchor="middle" x="381.987" y="-514.3" font-family="Times,serif" font-size="14.00">UserConnection</text>
<polyline fill="none" stroke="black" points="311.841,-507.5 452.132,-507.5 "/>
<text text-anchor="start" x="319.841" y="-492.3" font-family="Times,serif" font-size="14.00">id :int(11)</text>
<text text-anchor="start" x="319.841" y="-478.3" font-family="Times,serif" font-size="14.00">user_id :int(11)</text>
<text text-anchor="start" x="319.841" y="-464.3" font-family="Times,serif" font-size="14.00">connection_id :int(11)</text>
<text text-anchor="start" x="319.841" y="-450.3" font-family="Times,serif" font-size="14.00">created_at :datetime</text>
<text text-anchor="start" x="319.841" y="-436.3" font-family="Times,serif" font-size="14.00">updated_at :datetime</text>
</g>
<!-- User&#45;&gt;UserConnection -->
<g id="edge18" class="edge"><title>User&#45;&gt;UserConnection</title>
<path fill="none" stroke="#da1abf" d="M439.968,-642.413C438.544,-634.108 436.895,-625.888 434.987,-618 428.56,-591.438 418.269,-563.103 408.457,-539.098"/>
<ellipse fill="none" stroke="#da1abf" cx="440.623" cy="-646.447" rx="4.00001" ry="4.00001"/>
<polygon fill="#da1abf" stroke="#da1abf" points="408.423,-539.017 408.741,-528.055 406.504,-534.4 404.585,-529.782 404.585,-529.782 404.585,-529.782 406.504,-534.4 400.43,-531.51 408.423,-539.017 408.423,-539.017"/>
</g>
</g>
</svg>
