<?xml version="1.0" encoding="UTF-8" standalone="no"?>
<!DOCTYPE svg PUBLIC "-//W3C//DTD SVG 1.1//EN"
 "http://www.w3.org/Graphics/SVG/1.1/DTD/svg11.dtd">
<!-- Generated by graphviz version 2.38.0 (20140413.2041)
 -->
<!-- Title: models_diagram Pages: 1 -->
<svg width="1419pt" height="485pt"
 viewBox="0.00 0.00 1418.91 485.00" xmlns="http://www.w3.org/2000/svg" xmlns:xlink="http://www.w3.org/1999/xlink">
<g id="graph0" class="graph" transform="scale(1 1) rotate(0) translate(4 481)">
<title>models_diagram</title>
<polygon fill="none" stroke="none" points="-4,4 -4,-481 1414.91,-481 1414.91,4 -4,4"/>
<!-- _diagram_info -->
<g id="node1" class="node"><title>_diagram_info</title>
<text text-anchor="start" x="85.6936" y="-462.6" font-family="Times,serif" font-size="13.00">Models diagram</text>
<text text-anchor="start" x="85.6936" y="-449.6" font-family="Times,serif" font-size="13.00">Date: Nov 24 2016 &#45; 17:36</text>
<text text-anchor="start" x="85.6936" y="-436.6" font-family="Times,serif" font-size="13.00">Migration version: 20161110230418</text>
<text text-anchor="start" x="85.6936" y="-423.6" font-family="Times,serif" font-size="13.00">Generated by RailRoady 1.5.2</text>
<text text-anchor="start" x="85.6936" y="-410.6" font-family="Times,serif" font-size="13.00">http://railroady.prestonlee.com</text>
</g>
<!-- Assignment -->
<g id="node2" class="node"><title>Assignment</title>
<ellipse fill="none" stroke="black" cx="354.905" cy="-440.5" rx="52.2192" ry="18"/>
<text text-anchor="middle" x="354.905" y="-436.3" font-family="Times,serif" font-size="14.00">Assignment</text>
</g>
<!-- AssignmentProblem -->
<g id="node3" class="node"><title>AssignmentProblem</title>
<ellipse fill="none" stroke="black" cx="239.905" cy="-91" rx="82.1544" ry="18"/>
<text text-anchor="middle" x="239.905" y="-86.8" font-family="Times,serif" font-size="14.00">AssignmentProblem</text>
</g>
<!-- Assignment&#45;&gt;AssignmentProblem -->
<g id="edge3" class="edge"><title>Assignment&#45;&gt;AssignmentProblem</title>
<path fill="none" stroke="#9b6c62" d="M322.982,-420.18C283.064,-395.762 219.905,-356.155 219.905,-350 219.905,-350 219.905,-350 219.905,-176 219.905,-156.57 225.032,-135.283 230.094,-119"/>
<ellipse fill="none" stroke="#9b6c62" cx="326.73" cy="-422.467" rx="4.00002" ry="4.00002"/>
<polygon fill="#9b6c62" stroke="#9b6c62" points="230.229,-118.59 237.631,-110.499 231.793,-113.841 233.357,-109.092 233.357,-109.092 233.357,-109.092 231.793,-113.841 229.082,-107.684 230.229,-118.59 230.229,-118.59"/>
</g>
<!-- Course -->
<g id="node4" class="node"><title>Course</title>
<ellipse fill="none" stroke="black" cx="541.905" cy="-349" rx="35.3216" ry="18"/>
<text text-anchor="middle" x="541.905" y="-344.8" font-family="Times,serif" font-size="14.00">Course</text>
</g>
<!-- Assignment&#45;&gt;Course -->
<g id="edge2" class="edge"><title>Assignment&#45;&gt;Course</title>
<path fill="none" stroke="#862259" d="M387.821,-419.36C396.808,-414.133 406.628,-408.666 415.905,-404 445.187,-389.274 479.429,-374.764 504.82,-364.5"/>
<polygon fill="#862259" stroke="#862259" points="387.776,-419.386 376.876,-420.592 383.469,-421.927 379.163,-424.467 379.163,-424.467 379.163,-424.467 383.469,-421.927 381.45,-428.343 387.776,-419.386 387.776,-419.386"/>
<polygon fill="#862259" stroke="#862259" points="505.149,-364.368 516.106,-364.823 509.79,-362.507 514.431,-360.646 514.431,-360.646 514.431,-360.646 509.79,-362.507 512.756,-356.469 505.149,-364.368 505.149,-364.368"/>
</g>
<!-- CourseAssignment -->
<g id="node5" class="node"><title>CourseAssignment</title>
<ellipse fill="none" stroke="black" cx="666.905" cy="-263" rx="77.3261" ry="18"/>
<text text-anchor="middle" x="666.905" y="-258.8" font-family="Times,serif" font-size="14.00">CourseAssignment</text>
</g>
<!-- Assignment&#45;&gt;CourseAssignment -->
<g id="edge1" class="edge"><title>Assignment&#45;&gt;CourseAssignment</title>
<path fill="none" stroke="#153b8c" d="M384.612,-419.715C394.274,-413.971 405.257,-408.138 415.905,-404 487.978,-375.989 520.365,-408.031 585.905,-367 616.035,-348.137 639.561,-313.927 653.32,-290.133"/>
<ellipse fill="none" stroke="#153b8c" cx="380.921" cy="-421.973" rx="4.00002" ry="4.00002"/>
<polygon fill="#153b8c" stroke="#153b8c" points="653.396,-289.997 662.203,-283.464 655.836,-285.632 658.276,-281.268 658.276,-281.268 658.276,-281.268 655.836,-285.632 654.348,-279.072 653.396,-289.997 653.396,-289.997"/>
</g>
<!-- Problem -->
<g id="node12" class="node"><title>Problem</title>
<ellipse fill="none" stroke="black" cx="151.905" cy="-177" rx="40.149" ry="18"/>
<text text-anchor="middle" x="151.905" y="-172.8" font-family="Times,serif" font-size="14.00">Problem</text>
</g>
<!-- Assignment&#45;&gt;Problem -->
<g id="edge4" class="edge"><title>Assignment&#45;&gt;Problem</title>
<path fill="none" stroke="#b30348" d="M323.49,-418.958C313.969,-413.444 303.278,-407.928 292.905,-404 255.979,-390.016 234.515,-413.214 205.905,-386 155.585,-338.134 149.893,-249.899 150.533,-205.314"/>
<polygon fill="#b30348" stroke="#b30348" points="323.638,-419.047 329.896,-428.051 327.925,-421.62 332.212,-424.193 332.212,-424.193 332.212,-424.193 327.925,-421.62 334.528,-420.335 323.638,-419.047 323.638,-419.047"/>
<polygon fill="#b30348" stroke="#b30348" points="150.536,-205.219 155.298,-195.341 150.668,-200.221 150.799,-195.223 150.799,-195.223 150.799,-195.223 150.668,-200.221 146.301,-195.104 150.536,-205.219 150.536,-205.219"/>
</g>
<!-- Course&#45;&gt;CourseAssignment -->
<g id="edge5" class="edge"><title>Course&#45;&gt;CourseAssignment</title>
<path fill="none" stroke="#3b8333" d="M569.062,-329.751C588.256,-316.852 614.076,-299.502 634.372,-285.863"/>
<ellipse fill="none" stroke="#3b8333" cx="565.587" cy="-332.086" rx="4.00002" ry="4.00002"/>
<polygon fill="#3b8333" stroke="#3b8333" points="634.396,-285.846 645.206,-284.003 638.546,-283.057 642.696,-280.268 642.696,-280.268 642.696,-280.268 638.546,-283.057 640.186,-276.533 634.396,-285.846 634.396,-285.846"/>
</g>
<!-- CourseStudent -->
<g id="node6" class="node"><title>CourseStudent</title>
<ellipse fill="none" stroke="black" cx="727.905" cy="-177" rx="62.3667" ry="18"/>
<text text-anchor="middle" x="727.905" y="-172.8" font-family="Times,serif" font-size="14.00">CourseStudent</text>
</g>
<!-- Course&#45;&gt;CourseStudent -->
<g id="edge6" class="edge"><title>Course&#45;&gt;CourseStudent</title>
<path fill="none" stroke="#d45173" d="M545.789,-323.034C550.513,-300.198 560.536,-266.754 580.905,-245 605.209,-219.045 641.493,-202.365 671.931,-192.14"/>
<ellipse fill="none" stroke="#d45173" cx="545.03" cy="-326.998" rx="4.00001" ry="4.00001"/>
<polygon fill="#d45173" stroke="#d45173" points="672.063,-192.098 682.96,-193.328 676.824,-190.57 681.585,-189.043 681.585,-189.043 681.585,-189.043 676.824,-190.57 680.211,-184.758 672.063,-192.098 672.063,-192.098"/>
</g>
<!-- User -->
<g id="node20" class="node"><title>User</title>
<ellipse fill="none" stroke="black" cx="406.905" cy="-263" rx="27" ry="18"/>
<text text-anchor="middle" x="406.905" y="-258.8" font-family="Times,serif" font-size="14.00">User</text>
</g>
<!-- Course&#45;&gt;User -->
<g id="edge7" class="edge"><title>Course&#45;&gt;User</title>
<path fill="none" stroke="#f9a4e6" d="M504.495,-334.639C500.597,-333.361 496.681,-332.124 492.905,-331 461.293,-321.585 444.614,-335.932 420.905,-313 414.914,-307.205 411.436,-299.038 409.433,-291.03"/>
<polygon fill="#f9a4e6" stroke="#f9a4e6" points="504.582,-334.668 512.624,-342.123 509.321,-336.263 514.059,-337.858 514.059,-337.858 514.059,-337.858 509.321,-336.263 515.495,-333.594 504.582,-334.668 504.582,-334.668"/>
<polygon fill="#f9a4e6" stroke="#f9a4e6" points="409.427,-290.996 412.032,-280.344 408.517,-286.079 407.607,-281.163 407.607,-281.163 407.607,-281.163 408.517,-286.079 403.183,-281.982 409.427,-290.996 409.427,-290.996"/>
</g>
<!-- Grader -->
<g id="node7" class="node"><title>Grader</title>
<ellipse fill="none" stroke="black" cx="459.905" cy="-440.5" rx="34.8111" ry="18"/>
<text text-anchor="middle" x="459.905" y="-436.3" font-family="Times,serif" font-size="14.00">Grader</text>
</g>
<!-- InputFileUploader -->
<g id="node8" class="node"><title>InputFileUploader</title>
<ellipse fill="none" stroke="black" cx="587.905" cy="-440.5" rx="75.3707" ry="18"/>
<text text-anchor="middle" x="587.905" y="-436.3" font-family="Times,serif" font-size="14.00">InputFileUploader</text>
</g>
<!-- InputFileViewer -->
<g id="node9" class="node"><title>InputFileViewer</title>
<ellipse fill="none" stroke="black" cx="748.905" cy="-440.5" rx="68.0596" ry="18"/>
<text text-anchor="middle" x="748.905" y="-436.3" font-family="Times,serif" font-size="14.00">InputFileViewer</text>
</g>
<!-- OutputGenerator -->
<g id="node10" class="node"><title>OutputGenerator</title>
<ellipse fill="none" stroke="black" cx="904.905" cy="-440.5" rx="70.0495" ry="18"/>
<text text-anchor="middle" x="904.905" y="-436.3" font-family="Times,serif" font-size="14.00">OutputGenerator</text>
</g>
<!-- PolygonUploader -->
<g id="node11" class="node"><title>PolygonUploader</title>
<ellipse fill="none" stroke="black" cx="1065.91" cy="-440.5" rx="72.4894" ry="18"/>
<text text-anchor="middle" x="1065.91" y="-436.3" font-family="Times,serif" font-size="14.00">PolygonUploader</text>
</g>
<!-- Problem&#45;&gt;AssignmentProblem -->
<g id="edge8" class="edge"><title>Problem&#45;&gt;AssignmentProblem</title>
<path fill="none" stroke="#14fe2b" d="M174.527,-154.407C186.816,-142.676 202.045,-128.139 214.713,-116.048"/>
<ellipse fill="none" stroke="#14fe2b" cx="171.351" cy="-157.438" rx="4.00002" ry="4.00002"/>
<polygon fill="#14fe2b" stroke="#14fe2b" points="214.986,-115.787 225.327,-112.137 218.603,-112.334 222.22,-108.882 222.22,-108.882 222.22,-108.882 218.603,-112.334 219.112,-105.627 214.986,-115.787 214.986,-115.787"/>
</g>
<!-- TestCase -->
<g id="node18" class="node"><title>TestCase</title>
<ellipse fill="none" stroke="black" cx="41.9053" cy="-18" rx="41.8108" ry="18"/>
<text text-anchor="middle" x="41.9053" y="-13.8" font-family="Times,serif" font-size="14.00">TestCase</text>
</g>
<!-- Problem&#45;&gt;TestCase -->
<g id="edge9" class="edge"><title>Problem&#45;&gt;TestCase</title>
<path fill="none" stroke="#ba5a6d" d="M110.851,-164.11C84.3524,-154.066 51.9371,-136.774 35.9053,-109 24.8743,-89.8898 27.8043,-64.5505 32.6685,-45.629"/>
<ellipse fill="none" stroke="#ba5a6d" cx="114.742" cy="-165.517" rx="4.00001" ry="4.00001"/>
<polygon fill="#ba5a6d" stroke="#ba5a6d" points="32.7161,-45.4641 39.8164,-37.1074 34.1048,-40.6608 35.4935,-35.8576 35.4935,-35.8576 35.4935,-35.8576 34.1048,-40.6608 31.1705,-34.6077 32.7161,-45.4641 32.7161,-45.4641"/>
</g>
<!-- TestGroup -->
<g id="node19" class="node"><title>TestGroup</title>
<ellipse fill="none" stroke="black" cx="91.9053" cy="-91" rx="47.1239" ry="18"/>
<text text-anchor="middle" x="91.9053" y="-86.8" font-family="Times,serif" font-size="14.00">TestGroup</text>
</g>
<!-- Problem&#45;&gt;TestGroup -->
<g id="edge10" class="edge"><title>Problem&#45;&gt;TestGroup</title>
<path fill="none" stroke="#12d4ba" d="M135.357,-152.833C127.365,-141.643 117.766,-128.205 109.625,-116.808"/>
<ellipse fill="none" stroke="#12d4ba" cx="137.726" cy="-156.149" rx="4.00002" ry="4.00002"/>
<polygon fill="#12d4ba" stroke="#12d4ba" points="109.547,-116.699 107.397,-105.946 106.641,-112.63 103.735,-108.561 103.735,-108.561 103.735,-108.561 106.641,-112.63 100.073,-111.177 109.547,-116.699 109.547,-116.699"/>
</g>
<!-- Runner -->
<g id="node13" class="node"><title>Runner</title>
<ellipse fill="none" stroke="black" cx="1192.91" cy="-440.5" rx="36.2818" ry="18"/>
<text text-anchor="middle" x="1192.91" y="-436.3" font-family="Times,serif" font-size="14.00">Runner</text>
</g>
<!-- StudentPortal::ProblemSolution -->
<g id="node14" class="node"><title>StudentPortal::ProblemSolution</title>
<ellipse fill="none" stroke="black" cx="524.905" cy="-177" rx="123.223" ry="18"/>
<text text-anchor="middle" x="524.905" y="-172.8" font-family="Times,serif" font-size="14.00">StudentPortal::ProblemSolution</text>
</g>
<!-- StudentPortal::Submission -->
<g id="node15" class="node"><title>StudentPortal::Submission</title>
<ellipse fill="none" stroke="black" cx="524.905" cy="-91" rx="104.397" ry="18"/>
<text text-anchor="middle" x="524.905" y="-86.8" font-family="Times,serif" font-size="14.00">StudentPortal::Submission</text>
</g>
<!-- StudentPortal::ProblemSolution&#45;&gt;StudentPortal::Submission -->
<g id="edge11" class="edge"><title>StudentPortal::ProblemSolution&#45;&gt;StudentPortal::Submission</title>
<path fill="none" stroke="#92dd72" d="M524.905,-150.257C524.905,-140.441 524.905,-129.226 524.905,-119.273"/>
<ellipse fill="none" stroke="#92dd72" cx="524.905" cy="-154.595" rx="4" ry="4"/>
<polygon fill="#92dd72" stroke="#92dd72" points="524.905,-119.095 529.405,-109.095 524.905,-114.095 524.905,-109.095 524.905,-109.095 524.905,-109.095 524.905,-114.095 520.405,-109.095 524.905,-119.095 524.905,-119.095"/>
<text text-anchor="middle" x="559.136" y="-129.8" font-family="Times,serif" font-size="14.00">submissions</text>
</g>
<!-- StudentPortal -->
<g id="node16" class="node"><title>StudentPortal</title>
<polygon fill="none" stroke="black" stroke-dasharray="1,5" points="1339.13,-458.5 1246.68,-458.5 1246.68,-422.5 1339.13,-422.5 1339.13,-458.5"/>
<text text-anchor="middle" x="1292.91" y="-436.3" font-family="Times,serif" font-size="14.00">StudentPortal</text>
</g>
<!-- Task -->
<g id="node17" class="node"><title>Task</title>
<ellipse fill="none" stroke="black" cx="1383.91" cy="-440.5" rx="27" ry="18"/>
<text text-anchor="middle" x="1383.91" y="-436.3" font-family="Times,serif" font-size="14.00">Task</text>
</g>
<!-- TestGroup&#45;&gt;TestCase -->
<g id="edge12" class="edge"><title>TestGroup&#45;&gt;TestCase</title>
<path fill="none" stroke="#58da05" d="M75.5204,-66.7335C70.3319,-59.3658 64.5793,-51.1971 59.3212,-43.7305"/>
<ellipse fill="none" stroke="#58da05" cx="78.0055" cy="-70.2623" rx="4.00002" ry="4.00002"/>
<polygon fill="#58da05" stroke="#58da05" points="59.1969,-43.5541 57.1183,-32.787 56.318,-39.466 53.4391,-35.378 53.4391,-35.378 53.4391,-35.378 56.318,-39.466 49.7599,-37.969 59.1969,-43.5541 59.1969,-43.5541"/>
</g>
<!-- User&#45;&gt;Assignment -->
<g id="edge14" class="edge"><title>User&#45;&gt;Assignment</title>
<path fill="none" stroke="#b8bfe7" d="M389.274,-285.628C380.117,-298.117 369.704,-314.568 364.14,-331 355.125,-357.621 353.466,-389.916 353.66,-412.316"/>
<ellipse fill="none" stroke="#b8bfe7" cx="391.781" cy="-282.314" rx="4.00002" ry="4.00002"/>
<polygon fill="#b8bfe7" stroke="#b8bfe7" points="353.663,-412.451 349.381,-422.546 353.772,-417.45 353.88,-422.449 353.88,-422.449 353.88,-422.449 353.772,-417.45 358.379,-422.351 353.663,-412.451 353.663,-412.451"/>
<text text-anchor="middle" x="430.788" y="-344.8" font-family="Times,serif" font-size="14.00">assignment_ownerships</text>
</g>
<!-- User&#45;&gt;Course -->
<g id="edge15" class="edge"><title>User&#45;&gt;Course</title>
<path fill="none" stroke="#b23ed5" d="M418.872,-287.603C424.43,-296.602 431.775,-306.296 440.595,-313 460.169,-327.879 469.666,-322.971 492.905,-331 496.477,-332.234 500.195,-333.521 503.914,-334.809"/>
<ellipse fill="none" stroke="#b23ed5" cx="416.815" cy="-284.064" rx="4.00002" ry="4.00002"/>
<polygon fill="#b23ed5" stroke="#b23ed5" points="504.218,-334.914 512.193,-342.441 508.942,-336.552 513.666,-338.189 513.666,-338.189 513.666,-338.189 508.942,-336.552 515.14,-333.937 504.218,-334.914 504.218,-334.914"/>
<text text-anchor="middle" x="493.561" y="-301.8" font-family="Times,serif" font-size="14.00">course_ownerships</text>
</g>
<!-- User&#45;&gt;CourseStudent -->
<g id="edge13" class="edge"><title>User&#45;&gt;CourseStudent</title>
<path fill="none" stroke="#ccec12" d="M439.694,-253.714C463.209,-247.385 495.452,-237.913 522.905,-227 535.835,-221.861 537.681,-217.323 550.905,-213 596.326,-198.153 610.088,-204.569 656.905,-195 661.975,-193.964 667.234,-192.826 672.492,-191.644"/>
<ellipse fill="none" stroke="#ccec12" cx="435.629" cy="-254.793" rx="4.00001" ry="4.00001"/>
<polygon fill="#ccec12" stroke="#ccec12" points="672.808,-191.572 683.561,-193.722 677.681,-190.454 682.554,-189.336 682.554,-189.336 682.554,-189.336 677.681,-190.454 681.548,-184.95 672.808,-191.572 672.808,-191.572"/>
</g>
<!-- User&#45;&gt;Problem -->
<g id="edge16" class="edge"><title>User&#45;&gt;Problem</title>
<path fill="none" stroke="#3d6a7b" d="M372.477,-256.863C340.117,-251.45 290.639,-241.657 249.478,-227 226.868,-218.949 202.757,-206.877 184.159,-196.729"/>
<ellipse fill="none" stroke="#3d6a7b" cx="376.776" cy="-257.565" rx="4.00001" ry="4.00001"/>
<polygon fill="#3d6a7b" stroke="#3d6a7b" points="183.983,-196.632 177.422,-187.845 179.611,-194.206 175.239,-191.78 175.239,-191.78 175.239,-191.78 179.611,-194.206 173.056,-195.715 183.983,-196.632 183.983,-196.632"/>
<text text-anchor="middle" x="307.619" y="-215.8" font-family="Times,serif" font-size="14.00">problem_ownerships</text>
</g>
<!-- User&#45;&gt;StudentPortal::ProblemSolution -->
<g id="edge17" class="edge"><title>User&#45;&gt;StudentPortal::ProblemSolution</title>
<path fill="none" stroke="#d045d5" d="M408.142,-236.506C409.726,-228.143 412.817,-219.372 418.685,-213 425.225,-205.897 433.232,-200.234 441.89,-195.717"/>
<ellipse fill="none" stroke="#d045d5" cx="407.563" cy="-240.666" rx="4.00001" ry="4.00001"/>
<polygon fill="#d045d5" stroke="#d045d5" points="442.051,-195.642 453.015,-195.493 446.582,-193.528 451.113,-191.415 451.113,-191.415 451.113,-191.415 446.582,-193.528 449.21,-187.336 442.051,-195.642 442.051,-195.642"/>
<text text-anchor="middle" x="470.016" y="-215.8" font-family="Times,serif" font-size="14.00">problem_solutions</text>
</g>
<!-- User&#45;&gt;User -->
<g id="edge19" class="edge"><title>User&#45;&gt;User</title>
<path fill="none" stroke="#900108" d="M441.48,-270.406C447.62,-269.437 451.905,-266.968 451.905,-263 451.905,-259.032 447.62,-256.563 441.48,-255.594"/>
<polygon fill="#900108" stroke="#900108" points="441.432,-270.407 431.283,-266.255 436.435,-270.58 431.438,-270.752 431.438,-270.752 431.438,-270.752 436.435,-270.58 431.593,-275.249 441.432,-270.407 441.432,-270.407"/>
<polygon fill="#900108" stroke="#900108" points="441.432,-255.593 431.593,-250.751 436.435,-255.42 431.438,-255.248 431.438,-255.248 431.438,-255.248 436.435,-255.42 431.283,-259.745 441.432,-255.593 441.432,-255.593"/>
<text text-anchor="middle" x="485.34" y="-258.8" font-family="Times,serif" font-size="14.00">connections</text>
</g>
<!-- UserConnection -->
<g id="node21" class="node"><title>UserConnection</title>
<ellipse fill="none" stroke="black" cx="315.905" cy="-177" rx="67.6529" ry="18"/>
<text text-anchor="middle" x="315.905" y="-172.8" font-family="Times,serif" font-size="14.00">UserConnection</text>
</g>
<!-- User&#45;&gt;UserConnection -->
<g id="edge18" class="edge"><title>User&#45;&gt;UserConnection</title>
<path fill="none" stroke="#66c3a3" d="M392.682,-239.052C386.616,-230.309 379.057,-220.624 370.905,-213 365.506,-207.951 359.282,-203.2 353.006,-198.923"/>
<ellipse fill="none" stroke="#66c3a3" cx="394.981" cy="-242.482" rx="4.00002" ry="4.00002"/>
<polygon fill="#66c3a3" stroke="#66c3a3" points="352.879,-198.841 346.934,-189.627 348.682,-196.122 344.486,-193.403 344.486,-193.403 344.486,-193.403 348.682,-196.122 342.039,-197.179 352.879,-198.841 352.879,-198.841"/>
</g>
</g>
</svg>
